<svg width="59" height="63" viewBox="0 0 59 63" fill="none" xmlns="http://www.w3.org/2000/svg">
<path fill-rule="evenodd" clip-rule="evenodd" d="M33.8835 2.43488C35.4997 4.45177 35.8175 7.24096 34.7218 9.58567C34.5848 9.88012 34.4204 10.1635 34.2342 10.4357C33.9561 10.846 33.6361 11.2183 33.2831 11.549C33.308 11.557 33.3329 11.5672 33.3573 11.5797C34.1517 11.9853 34.8913 12.491 35.5598 13.091C37.7293 15.0412 38.973 17.886 38.9839 20.8196C38.9839 21.003 38.8305 21.153 38.6552 21.153H38.5895C37.7124 21.1789 36.8306 21.1702 35.9504 21.1616C35.5108 21.1573 35.0717 21.153 34.6339 21.153H29.5606H27.5772H22.2574H18.9264C18.7511 21.153 18.5977 20.9974 18.5977 20.8196C18.6031 19.9529 18.7072 19.0861 18.9209 18.2416C19.6441 15.369 21.6164 12.9132 24.2243 11.5797C24.2489 11.5671 24.2754 11.5568 24.3034 11.5488C23.0664 10.3688 22.2823 8.72068 22.2084 6.9465C22.0933 4.19618 23.726 1.59035 26.2188 0.518007C28.8705 -0.621002 32.0646 0.162413 33.8835 2.43488ZM24.8811 12.0404C24.1832 12.4062 23.1584 12.9814 22.6135 13.4522C20.5756 15.2153 19.3634 17.7701 19.2572 20.475C19.4798 20.4679 19.7062 20.475 19.9305 20.482C20.0869 20.4869 20.2423 20.4918 20.3947 20.4918H22.9368H28.032H30.0098H35.3132H38.3157C38.295 19.8447 38.2132 19.2058 38.0635 18.5749C37.4061 15.7913 35.3773 13.24 32.868 11.9509C32.8563 11.9449 32.8455 11.9387 32.8354 11.9323C31.1381 13.2606 28.8462 13.7268 26.7448 13.0249C26.066 12.7988 25.4389 12.4629 24.8811 12.0404ZM34.1819 9.19362C34.1711 9.20955 34.161 9.22721 34.152 9.24671C33.0508 11.6414 30.3827 13.0527 27.8186 12.6082C25.4189 12.1915 23.474 10.3024 22.9809 7.87991C22.4769 5.41854 23.6 2.82937 25.7148 1.52367C27.9117 0.179082 30.8155 0.434665 32.733 2.17374C34.6636 3.92205 35.2663 6.80906 34.1819 9.19362Z" fill="#2A2A2A"/>
<path d="M52.6033 28.9375H38.2863C35.1564 28.9375 32.6191 31.4748 32.6191 34.6047C32.6191 37.7345 35.1564 40.2718 38.2863 40.2718H52.6033C55.7332 40.2718 58.2705 37.7345 58.2705 34.6047C58.2705 31.4748 55.7332 28.9375 52.6033 28.9375Z" stroke="#2A2A2A" stroke-width="0.75"/>
<path d="M20.9842 28.9375H6.66716C3.53727 28.9375 1 31.4748 1 34.6047C1 37.7345 3.53727 40.2718 6.66716 40.2718H20.9842C24.1141 40.2718 26.6513 37.7345 26.6513 34.6047C26.6513 31.4748 24.1141 28.9375 20.9842 28.9375Z" fill="#EEFAF2" stroke="#2A2A2A" stroke-width="0.75"/>
<path d="M31.3736 46.686C30.5252 46.686 29.8243 47.2024 29.5292 47.9402H29.3816V47.018C29.3816 45.9113 28.4963 45.026 27.3896 45.026C26.283 45.026 25.3977 45.9113 25.3977 47.018V45.6531C25.3977 44.5465 24.5124 43.6612 23.4057 43.6612C22.2991 43.6612 21.4138 44.5465 21.4138 45.6531V38.9764C21.4138 37.8697 20.5284 36.9844 19.4218 36.9844C18.3151 36.9844 17.4298 37.8697 17.4298 38.9764V47.1655C17.4298 47.1655 17.3192 51.8503 17.5774 54.2481C17.8725 58.3427 21.3031 61.5888 25.4715 61.5888C29.8243 61.5888 33.3287 58.1214 33.4024 53.7685C33.4394 53.7317 33.4394 53.6579 33.4394 53.5841V50.5592V48.7517V48.6411C33.3656 47.5713 32.4802 46.686 31.3736 46.686Z" fill="#CCE5D5"/>
<path d="M29.5281 47.943V48.5395H29.9319L30.0819 48.1645L29.5281 47.943ZM29.3805 47.943H28.7839V48.5395H29.3805V47.943ZM17.4287 47.1683L18.0251 47.1824L18.0252 47.1754V47.1683H17.4287ZM17.5763 54.2509L18.1713 54.208L18.1705 54.1975L18.1694 54.187L17.5763 54.2509ZM33.4013 53.7713L32.9795 53.3495L32.8089 53.5201L32.8049 53.7612L33.4013 53.7713ZM33.4382 48.6439H34.0348V48.6233L34.0333 48.6028L33.4382 48.6439ZM31.3725 46.0923C30.2681 46.0923 29.3553 46.7686 28.9742 47.7214L30.0819 48.1645C30.291 47.6418 30.78 47.2853 31.3725 47.2853V46.0923ZM29.5281 47.3464H29.3805V48.5395H29.5281V47.3464ZM29.977 47.943V47.0208H28.7839V47.943H29.977ZM29.977 47.0208C29.977 45.5847 28.8246 44.4323 27.3885 44.4323V45.6253C28.1657 45.6253 28.7839 46.2436 28.7839 47.0208H29.977ZM27.3885 44.4323C25.9525 44.4323 24.8001 45.5847 24.8001 47.0208H25.9931C25.9931 46.2436 26.6113 45.6253 27.3885 45.6253V44.4323ZM25.9931 47.0208V45.6559H24.8001V47.0208H25.9931ZM25.9931 45.6559C25.9931 44.2198 24.8407 43.0674 23.4046 43.0674V44.2605C24.1818 44.2605 24.8001 44.8787 24.8001 45.6559H25.9931ZM23.4046 43.0674C21.9685 43.0674 20.8161 44.2198 20.8161 45.6559H22.0092C22.0092 44.8787 22.6274 44.2605 23.4046 44.2605V43.0674ZM22.0092 45.6559V38.9791H20.8161V45.6559H22.0092ZM22.0092 38.9791C22.0092 37.543 20.8568 36.3906 19.4207 36.3906V37.5837C20.1978 37.5837 20.8161 38.202 20.8161 38.9791H22.0092ZM19.4207 36.3906C17.9845 36.3906 16.8321 37.543 16.8321 38.9791H18.0252C18.0252 38.202 18.6435 37.5837 19.4207 37.5837V36.3906ZM16.8321 38.9791V47.1683H18.0252V38.9791H16.8321ZM17.4287 47.1683C16.8323 47.1542 16.8323 47.1543 16.8323 47.1543C16.8323 47.1544 16.8323 47.1545 16.8323 47.1545C16.8323 47.1547 16.8323 47.1549 16.8323 47.1552C16.8323 47.1559 16.8323 47.1568 16.8323 47.158C16.8322 47.1603 16.8321 47.1638 16.832 47.1684C16.8318 47.1776 16.8315 47.1911 16.8311 47.2088C16.8304 47.2441 16.8293 47.2961 16.828 47.363C16.8255 47.4968 16.8221 47.6903 16.819 47.9299C16.8126 48.4089 16.8068 49.0728 16.8091 49.8123C16.8137 51.283 16.8503 53.0817 16.9831 54.3148L18.1694 54.187C18.044 53.0224 18.0068 51.2798 18.0022 49.8086C17.9999 49.0772 18.0056 48.42 18.0119 47.9457C18.0151 47.7087 18.0184 47.5174 18.0209 47.3856C18.0221 47.3198 18.0232 47.2688 18.0239 47.2343C18.0243 47.2171 18.0246 47.204 18.0248 47.1953C18.0249 47.1909 18.0249 47.1876 18.025 47.1855C18.0251 47.1844 18.0251 47.1836 18.0251 47.1831C18.0251 47.1829 18.0251 47.1827 18.0251 47.1826C18.0251 47.1825 18.0251 47.1824 18.0251 47.1824C18.0251 47.1824 18.0251 47.1824 17.4287 47.1683ZM16.9813 54.2938C17.2986 58.6979 20.9866 62.1881 25.4703 62.1881V60.995C21.6173 60.995 18.4441 57.9931 18.1713 54.208L16.9813 54.2938ZM25.4703 62.1881C30.1509 62.1881 33.9185 58.4575 33.9978 53.7815L32.8049 53.7612C32.7366 57.7908 29.4954 60.995 25.4703 60.995V62.1881ZM33.8231 54.1931C33.9792 54.0371 34.0135 53.852 34.0242 53.7773C34.0359 53.6948 34.0348 53.6128 34.0348 53.5869H32.8417C32.8417 53.6072 32.8416 53.6159 32.8414 53.6224C32.8412 53.6287 32.8411 53.6222 32.8431 53.6086C32.8449 53.5958 32.8504 53.5627 32.8671 53.5199C32.8844 53.4758 32.9175 53.4115 32.9795 53.3495L33.8231 54.1931ZM34.0348 53.5869V50.562H32.8417V53.5869H34.0348ZM34.0348 50.562V48.7545H32.8417V50.562H34.0348ZM34.0348 48.7545V48.6439H32.8417V48.7545H34.0348ZM34.0333 48.6028C33.9391 47.237 32.8092 46.0923 31.3725 46.0923V47.2853C32.149 47.2853 32.7897 47.9112 32.8431 48.6849L34.0333 48.6028Z" fill="#2A2A2A"/>
</svg>
