<svg width="48" height="49" viewBox="0 0 48 49" fill="none" xmlns="http://www.w3.org/2000/svg">
<rect x="13.0469" y="26.3145" width="2.52308" height="2.52308" fill="#2C2C2C"/>
<rect x="19.9844" y="26.3145" width="2.52308" height="2.52308" fill="#2C2C2C"/>
<rect x="26.9219" y="26.3145" width="2.52308" height="2.52308" fill="#2C2C2C"/>
<rect x="19.9844" y="20.0078" width="2.52308" height="2.52308" fill="#2C2C2C"/>
<rect x="26.9219" y="20.0078" width="2.52308" height="2.52308" fill="#2C2C2C"/>
<rect x="33.2305" y="11.1777" width="2.52308" height="2.52308" fill="#2C2C2C"/>
<rect x="16.8301" y="26.3145" width="2.52308" height="2.52308" fill="#2C2C2C"/>
<rect x="23.7695" y="26.3145" width="2.52308" height="2.52308" fill="#2C2C2C"/>
<rect x="16.8301" y="20.0078" width="2.52308" height="2.52308" fill="#2C2C2C"/>
<rect x="23.7695" y="20.0078" width="2.52308" height="2.52308" fill="#2C2C2C"/>
<rect x="23.7695" y="13.7012" width="2.52308" height="2.52308" fill="#2C2C2C"/>
<rect x="9.89062" y="29.4688" width="2.52308" height="2.52308" fill="#2C2C2C"/>
<rect x="9.89062" y="26.3145" width="2.52308" height="2.52308" fill="#2C2C2C"/>
<rect x="16.8301" y="29.4688" width="2.52308" height="2.52308" fill="#2C2C2C"/>
<rect x="35.123" y="30.7305" width="2.52308" height="2.52308" fill="#2C2C2C"/>
<rect x="16.8301" y="23.1621" width="2.52308" height="2.52308" fill="#2C2C2C"/>
<rect x="23.7695" y="23.1621" width="2.52308" height="2.52308" fill="#2C2C2C"/>
<rect x="23.7695" y="16.8535" width="2.52308" height="2.52308" fill="#2C2C2C"/>
<rect x="9.89062" y="32.623" width="2.52308" height="2.52308" fill="#2C2C2C"/>
<rect x="16.8301" y="32.623" width="2.52308" height="2.52308" fill="#2C2C2C"/>
<rect x="23.7695" y="32.623" width="2.52308" height="2.52308" fill="#2C2C2C"/>
<rect x="18.7246" y="5.5" width="2.52308" height="2.52308" fill="#2C2C2C"/>
<rect x="19.9844" y="29.4688" width="2.52308" height="2.52308" fill="#2C2C2C"/>
<rect x="26.9219" y="29.4688" width="2.52308" height="2.52308" fill="#2C2C2C"/>
<rect x="8" y="13.7012" width="2.52308" height="2.52308" fill="#2C2C2C"/>
<rect x="26.9219" y="23.1621" width="2.52308" height="2.52308" fill="#2C2C2C"/>
<rect x="26.9219" y="16.8535" width="2.52308" height="2.52308" fill="#2C2C2C"/>
<rect x="13.0469" y="32.623" width="2.52308" height="2.52308" fill="#2C2C2C"/>
<rect x="19.9844" y="32.623" width="2.52308" height="2.52308" fill="#2C2C2C"/>
<rect x="26.9219" y="32.623" width="2.52308" height="2.52308" fill="#2C2C2C"/>
<circle cx="34.4928" cy="35.776" r="9.46154" fill="#FAFAFA"/>
<circle cx="36.0699" cy="36.7222" r="9.77692" fill="#89A1EF"/>
<circle cx="34.4927" cy="35.7779" r="9.59231" stroke="black"/>
<path d="M31.712 34.632C31.326 33.8592 30.4593 33.4532 29.6185 33.6515C28.7777 33.8497 28.1836 34.6002 28.1836 35.464C28.1836 36.3279 28.7777 37.0783 29.6185 37.2766C30.4593 37.4748 31.326 37.0688 31.712 36.296" stroke="#2E2E2E" stroke-linecap="round" stroke-linejoin="round"/>
<path d="M37.0324 33.8335C37.8675 33.8355 38.6025 33.2826 38.832 32.4796C39.0615 31.6765 38.7297 30.8188 38.0196 30.3792C37.3094 29.9396 36.3937 30.0251 35.7773 30.5886C35.1608 31.1522 34.9937 32.0565 35.3679 32.8032" stroke="#2E2E2E" stroke-linecap="round" stroke-linejoin="round"/>
<path d="M35.3664 38.1216C34.9942 38.8664 35.1617 39.7678 35.7765 40.3292C36.3913 40.8907 37.3041 40.9758 38.0121 40.5377C38.7202 40.0996 39.0514 39.2448 38.8233 38.444C38.5953 37.6432 37.8634 37.0911 37.0308 37.0918" stroke="#2E2E2E" stroke-linecap="round" stroke-linejoin="round"/>
<path d="M37.0305 33.835C36.3254 33.8343 35.6811 33.4355 35.3661 32.8047L31.7109 34.632C31.9754 35.1553 31.9754 35.7732 31.7109 36.2964L35.3661 38.1243C35.6811 37.4934 36.3254 37.0946 37.0305 37.094" stroke="#2E2E2E" stroke-linecap="round" stroke-linejoin="round"/>
</svg>
