<svg width="277" height="93" viewBox="0 0 277 93" fill="none" xmlns="http://www.w3.org/2000/svg">
<path d="M13.1527 7.218C15.1546 5.40612 19.7931 3.11826 22.3321 8.46188C24.871 13.8055 28.9943 12.6499 30.7386 11.4041" stroke="black" stroke-width="2"/>
<path d="M36.2588 69.9988L38.4437 82.9736L26.1147 78.3784L36.2588 69.9988Z" fill="#7FD1B9"/>
<path d="M24.2023 75.1088L33.0111 67.8323L34.9084 79.0992L24.2023 75.1088Z" stroke="black"/>
<path d="M263.097 43.908L273.851 45.5304L267.069 54.032L263.097 43.908Z" fill="#FFE500"/>
<path d="M264.036 54.5218L260.697 46.0101L269.738 47.3741L264.036 54.5218Z" stroke="black"/>
<rect x="195.627" y="22.5332" width="5.26466" height="5.26466" transform="rotate(78.8382 195.627 22.5332)" fill="#54A2DB"/>
<rect x="192.772" y="22.0131" width="4.26466" height="4.26466" transform="rotate(78.8382 192.772 22.0131)" stroke="black"/>
<circle cx="211.239" cy="77.5989" r="5.27707" transform="rotate(-15.8251 211.239 77.5989)" fill="#7FD1B9"/>
<circle cx="207.516" cy="75.5189" r="4.77707" transform="rotate(-15.8251 207.516 75.5189)" stroke="black"/>
<circle cx="61.2946" cy="20.0762" r="4.47923" transform="rotate(-15.8251 61.2946 20.0762)" fill="#54A2DB"/>
<circle cx="58.531" cy="18.5333" r="3.97923" transform="rotate(-15.8251 58.531 18.5333)" stroke="black"/>
<rect x="115.674" y="66.5195" width="8.62346" height="8.62346" transform="rotate(66.5152 115.674 66.5195)" fill="#FFE500"/>
<rect x="116.407" y="64.6578" width="7.62346" height="7.62346" transform="rotate(66.5152 116.407 64.6578)" stroke="black"/>
<path d="M274.776 2.80305C274.94 4.78884 274.2 8.53309 269.93 7.62379C265.66 6.71449 264.487 9.64897 264.435 11.2299" stroke="black" stroke-width="2"/>
<path d="M151.574 12.2346L153.757 24.0949L142.394 20.0553L151.574 12.2346Z" fill="#E98686"/>
<path d="M140.68 17.0696L148.542 10.3721L150.411 20.529L140.68 17.0696Z" stroke="black"/>
<path d="M148.095 81.7136C148.19 83.7039 147.32 87.4203 143.084 86.3641C138.848 85.3078 137.575 88.2 137.468 89.7782" stroke="black" stroke-width="2"/>
<circle r="2" transform="matrix(-1 0 0 1 2 60)" fill="#2A2929"/>
<circle cx="223" cy="17" r="1" transform="rotate(-180 223 17)" fill="#2A2929"/>
<circle r="2" transform="matrix(-1 0 0 1 243 70)" fill="#2A2929"/>
</svg>
