<?xml version="1.0" encoding="utf-8"?>
<svg width="40" height="40" viewBox="0 0 40 40" fill="none" xmlns="http://www.w3.org/2000/svg">
  <path d="M18 18C18 16.8954 18.8954 16 20 16H31.766C32.8705 16 33.766 16.8954 33.766 18V24.7872C33.766 25.8918 32.8705 26.7872 31.766 26.7872H25.883L22.8585 26.919C21.9483 26.9587 21.2699 26.09 21.5289 25.2165C21.7095 24.6076 21.4331 23.9561 20.8699 23.6628L19.0761 22.7285C18.4148 22.384 18 21.7003 18 20.9546V18Z" fill="#8FD6FF"/>
  <path d="M10.2092 13.4566C9.21348 12.129 7.85817 14.0098 7.30497 15.1162C6.47519 17.6052 7.30497 19.2655 10.2092 23.4145C13.1135 27.5634 16.8475 29.6379 18.5071 30.0528C19.8348 30.3847 21.2731 28.5315 21.8263 27.5634L18.5071 23.8294L16.0177 25.0741L11.039 18.8506L12.6986 16.7762L10.2092 13.4566Z" fill="#8FD6FF"/>
</svg>