<svg width="114" height="103" viewBox="0 0 114 103" fill="none" xmlns="http://www.w3.org/2000/svg">
<mask id="mask0" mask-type="alpha" maskUnits="userSpaceOnUse" x="0" y="0" width="114" height="103">
<rect x="0.00976562" width="113" height="103" fill="#C4C4C4"/>
</mask>
<g mask="url(#mask0)">
<path d="M31.1947 53.6449C31.1947 48.8696 27.3442 45.0008 22.5973 45.0008C17.8505 45.0008 14 48.8696 14 53.6449C14 58.4203 17.8505 62.2891 22.5973 62.2891C27.3442 62.2891 31.1947 58.4203 31.1947 53.6449Z" fill="#ABBCE8" stroke="#2A2A2A" stroke-width="0.5"/>
<path d="M25.4644 50.9092H24.2046C24.1094 50.9092 24.0317 50.9339 23.9717 50.9833C23.9153 51.0327 23.8676 51.0891 23.8288 51.1527L22.6802 53.0423C22.6626 52.9823 22.6414 52.9258 22.6167 52.8729C22.5955 52.82 22.5708 52.7706 22.5426 52.7247L21.5263 51.1527C21.4876 51.0927 21.4399 51.0362 21.3834 50.9833C21.327 50.9339 21.2564 50.9092 21.1717 50.9092H20.002L21.8651 53.7092L20.0761 56.3398H21.3358C21.4311 56.3398 21.5016 56.3257 21.5475 56.2975C21.5934 56.2728 21.634 56.2304 21.6693 56.1705L22.8073 54.3602C22.8461 54.4802 22.9008 54.5984 22.9713 54.7149L23.887 56.144C23.9647 56.2746 24.0653 56.3398 24.1887 56.3398H25.3903L23.6065 53.7674L25.4644 50.9092Z" fill="#2A2A2A"/>
<path d="M50.763 53.6449C50.763 48.8696 46.9125 45.0008 42.1657 45.0008C37.4188 45.0008 33.5684 48.8696 33.5684 53.6449C33.5684 58.4203 37.4188 62.2891 42.1657 62.2891C46.9125 62.2891 50.763 58.4203 50.763 53.6449Z" fill="#ABBCE8" stroke="#2A2A2A" stroke-width="0.5"/>
<path d="M71.423 53.6449C71.423 48.8696 67.5728 45.0008 62.8258 45.0008C58.079 45.0008 54.2285 48.8696 54.2285 53.6449C54.2285 58.4203 58.079 62.2891 62.8258 62.2891C67.5728 62.2891 71.423 58.4203 71.423 53.6449Z" fill="#ABBCE8" stroke="#2A2A2A" stroke-width="0.5"/>
<path d="M39.5563 51.9815C39.6092 51.6145 39.7116 51.2934 39.8633 51.0181C40.015 50.7393 40.2038 50.5082 40.4296 50.3247C40.659 50.1377 40.9201 49.9983 41.213 49.9066C41.5094 49.8113 41.827 49.7637 42.1658 49.7637C42.5186 49.7637 42.8362 49.8148 43.1185 49.9172C43.4043 50.016 43.6478 50.1554 43.8489 50.3353C44.0501 50.5117 44.2036 50.72 44.3094 50.9599C44.4188 51.1998 44.4735 51.4592 44.4735 51.738C44.4735 51.9815 44.4453 52.1967 44.3888 52.3837C44.3359 52.5672 44.2583 52.7278 44.1559 52.8654C44.0536 53.003 43.9266 53.1195 43.7748 53.2147C43.6231 53.31 43.452 53.3894 43.2614 53.4529C43.7202 53.5976 44.0625 53.8181 44.2883 54.1146C44.5141 54.411 44.627 54.7832 44.627 55.2314C44.627 55.6125 44.5565 55.9495 44.4153 56.2424C44.2742 56.5352 44.0836 56.7822 43.8437 56.9834C43.6037 57.181 43.3249 57.331 43.0074 57.4333C42.6933 57.5356 42.3599 57.5868 42.007 57.5868C41.6224 57.5868 41.2871 57.5427 41.0013 57.4545C40.7155 57.3662 40.4667 57.2357 40.255 57.0628C40.0433 56.8898 39.8633 56.6781 39.7151 56.4276C39.5669 56.1771 39.4398 55.8877 39.334 55.5595L39.9109 55.3214C40.0627 55.2578 40.2038 55.242 40.3344 55.2737C40.4685 55.3019 40.5655 55.3725 40.6255 55.4854C40.689 55.6089 40.7578 55.7307 40.8319 55.8507C40.9096 55.9707 41.0013 56.0783 41.1072 56.1735C41.213 56.2653 41.3366 56.3412 41.4777 56.4011C41.6224 56.4576 41.7935 56.4858 41.9911 56.4858C42.2134 56.4858 42.4075 56.4505 42.5733 56.38C42.7392 56.3059 42.8768 56.2106 42.9862 56.0941C43.0991 55.9777 43.182 55.8489 43.235 55.7078C43.2914 55.5631 43.3196 55.4184 43.3196 55.2737C43.3196 55.0902 43.3003 54.9244 43.2614 54.7762C43.2226 54.6244 43.1415 54.4956 43.0179 54.3898C42.8945 54.2839 42.7162 54.201 42.4833 54.141C42.254 54.081 41.9453 54.051 41.5571 54.051V53.1195C41.8782 53.1159 42.1446 53.086 42.3563 53.0295C42.568 52.973 42.7357 52.8954 42.8591 52.7966C42.9862 52.6943 43.0744 52.5725 43.1238 52.4314C43.1732 52.2902 43.1979 52.135 43.1979 51.9656C43.1979 51.6056 43.0973 51.3322 42.8962 51.1452C42.6951 50.9582 42.4269 50.8646 42.0917 50.8646C41.9364 50.8646 41.7935 50.8875 41.6629 50.9334C41.5324 50.9758 41.4141 51.0375 41.3083 51.1187C41.206 51.1963 41.1195 51.2881 41.0489 51.3939C40.9784 51.4998 40.9254 51.6162 40.8901 51.7433C40.8302 51.9056 40.7508 52.0132 40.652 52.0661C40.5567 52.1191 40.4209 52.1314 40.2444 52.1032L39.5563 51.9815Z" fill="#2A2A2A"/>
<path d="M64.6932 55.1905C64.6544 55.1412 64.6156 55.1023 64.5768 55.0741C64.5415 55.0459 64.4886 55.0318 64.418 55.0318C64.351 55.0318 64.2857 55.0512 64.2221 55.09C64.1586 55.1323 64.0828 55.1782 63.9945 55.2276C63.9064 55.2805 63.8005 55.3264 63.677 55.3652C63.557 55.4076 63.407 55.4287 63.227 55.4287C62.9977 55.4287 62.7966 55.3864 62.6236 55.3017C62.4508 55.2206 62.3061 55.1023 62.1896 54.9471C62.0767 54.7918 61.992 54.603 61.9355 54.3807C61.8791 54.162 61.8509 53.9132 61.8509 53.6344C61.8509 53.345 61.8809 53.0875 61.9408 52.8616C62.0044 52.6358 62.0943 52.4452 62.2108 52.29C62.3272 52.1382 62.4684 52.0218 62.6342 51.9406C62.8001 51.863 62.9871 51.8242 63.1953 51.8242C63.4035 51.8242 63.5711 51.8489 63.6981 51.8983C63.8287 51.9512 63.9381 52.0077 64.0263 52.0677C64.1145 52.1312 64.1904 52.1876 64.2539 52.237C64.321 52.29 64.3951 52.3164 64.4762 52.3164C64.5821 52.3164 64.6615 52.2758 64.7144 52.1947L65.0902 51.7183C64.9455 51.5489 64.7885 51.406 64.6191 51.2896C64.4497 51.1767 64.2733 51.0849 64.0898 51.0143C63.9099 50.9473 63.7228 50.8996 63.5287 50.8714C63.3382 50.8432 63.1477 50.8291 62.9571 50.8291C62.6219 50.8291 62.3061 50.8909 62.0096 51.0143C61.7132 51.1414 61.4539 51.3249 61.2316 51.5648C61.0093 51.8048 60.8328 52.0977 60.7023 52.4435C60.5752 52.7928 60.5117 53.1898 60.5117 53.6344C60.5117 54.0331 60.5682 54.4019 60.6811 54.7406C60.7975 55.0829 60.9669 55.3776 61.1892 55.6246C61.4115 55.8751 61.6868 56.0709 62.0149 56.2121C62.3431 56.3533 62.7207 56.4238 63.1477 56.4238C63.5535 56.4238 63.9081 56.3586 64.2116 56.228C64.5185 56.0974 64.7938 55.9104 65.0373 55.6669L64.6932 55.1905Z" fill="#2A2A2A"/>
<path d="M111.12 53.6449C111.12 48.8696 107.27 45.0008 102.523 45.0008C97.7765 45.0008 93.9258 48.8696 93.9258 53.6449C93.9258 58.4203 97.7765 62.2891 102.523 62.2891C107.27 62.2891 111.12 58.4203 111.12 53.6449Z" fill="#ABBCE8" stroke="#2A2A2A" stroke-width="0.5"/>
<path d="M104.113 55.1905C104.074 55.1412 104.035 55.1023 103.997 55.0741C103.961 55.0459 103.908 55.0318 103.838 55.0318C103.771 55.0318 103.706 55.0512 103.642 55.09C103.579 55.1323 103.502 55.1782 103.414 55.2276C103.326 55.2805 103.22 55.3264 103.097 55.3652C102.977 55.4076 102.827 55.4287 102.647 55.4287C102.417 55.4287 102.216 55.3864 102.044 55.3017C101.87 55.2206 101.726 55.1023 101.61 54.9471C101.496 54.7918 101.412 54.603 101.355 54.3807C101.299 54.162 101.271 53.9132 101.271 53.6344C101.271 53.345 101.3 53.0875 101.361 52.8616C101.424 52.6358 101.514 52.4452 101.631 52.29C101.747 52.1382 101.888 52.0218 102.054 51.9406C102.22 51.863 102.407 51.8242 102.615 51.8242C102.823 51.8242 102.991 51.8489 103.118 51.8983C103.248 51.9512 103.358 52.0077 103.446 52.0677C103.534 52.1312 103.61 52.1876 103.674 52.237C103.741 52.29 103.815 52.3164 103.896 52.3164C104.002 52.3164 104.081 52.2758 104.134 52.1947L104.51 51.7183C104.365 51.5489 104.208 51.406 104.039 51.2896C103.87 51.1767 103.693 51.0849 103.51 51.0143C103.33 50.9473 103.142 50.8996 102.949 50.8714C102.758 50.8432 102.568 50.8291 102.377 50.8291C102.041 50.8291 101.726 50.8909 101.43 51.0143C101.133 51.1414 100.874 51.3249 100.651 51.5648C100.429 51.8048 100.252 52.0977 100.122 52.4435C99.9952 52.7928 99.9316 53.1898 99.9316 53.6344C99.9316 54.0331 99.9878 54.4019 100.101 54.7406C100.217 55.0829 100.387 55.3776 100.609 55.6246C100.831 55.8751 101.107 56.0709 101.435 56.2121C101.763 56.3533 102.14 56.4238 102.568 56.4238C102.973 56.4238 103.328 56.3586 103.631 56.228C103.938 56.0974 104.214 55.9104 104.457 55.6669L104.113 55.1905Z" fill="#2A2A2A"/>
<path fill-rule="evenodd" clip-rule="evenodd" d="M81.0278 49.9042C80.8224 49.6961 80.8251 49.3609 81.0331 49.1557C81.2411 48.9504 81.5762 48.9526 81.7815 49.1608L85.34 52.768C85.5438 52.9745 85.5433 53.3065 85.339 53.5124L81.7805 57.1012C81.5746 57.3088 81.2395 57.3102 81.032 57.1043C80.8245 56.8986 80.823 56.5634 81.0288 56.3558L83.6928 53.6691H77.8027C77.5106 53.6691 77.2734 53.432 77.2734 53.1398C77.2734 52.8474 77.5106 52.6104 77.8027 52.6104H83.6976L81.0278 49.9042Z" fill="#2A2A2A"/>
</g>
</svg>
