<svg width="90" height="24" viewBox="0 0 90 24" fill="none" xmlns="http://www.w3.org/2000/svg">
<g clip-path="url(#clip0)">
<path d="M78.0303 11.1673C77.7163 11.4797 77.7163 11.9863 78.0303 12.2987L83.1442 17.3898C83.4581 17.7023 83.967 17.7023 84.281 17.3898C84.5944 17.0774 84.5944 16.5709 84.281 16.2585L79.7349 11.733L84.281 7.20748C84.5944 6.89505 84.5944 6.38854 84.281 6.07612C83.967 5.76369 83.4581 5.76369 83.1442 6.07612L78.0303 11.1673ZM58.6486 11.1673C58.3347 11.4797 58.3347 11.9863 58.6486 12.2987L63.7626 17.3898C64.0765 17.7023 64.5849 17.7023 64.8988 17.3898C65.2128 17.0774 65.2128 16.5709 64.8988 16.2585L60.3533 11.733L64.8988 7.20748C65.2128 6.89505 65.2128 6.38854 64.8988 6.07612C64.5849 5.76369 64.0765 5.76369 63.7626 6.07612L58.6486 11.1673ZM39.2667 11.1673C38.9528 11.4797 38.9528 11.9863 39.2667 12.2987L44.3806 17.3898C44.6944 17.7023 45.2032 17.7023 45.517 17.3898C45.8308 17.0774 45.8308 16.5709 45.517 16.2585L40.9713 11.733L45.517 7.20748C45.8308 6.89505 45.8308 6.38854 45.517 6.07612C45.2032 5.76369 44.6944 5.76369 44.3806 6.07612L39.2667 11.1673ZM19.8848 11.1673C19.571 11.4797 19.571 11.9863 19.8848 12.2987L24.9987 17.3898C25.3125 17.7023 25.8213 17.7023 26.1351 17.3898C26.449 17.0774 26.449 16.5709 26.1351 16.2585L21.5894 11.733L26.1351 7.20748C26.449 6.89505 26.449 6.38854 26.1351 6.07612C25.8213 5.76369 25.3125 5.76369 24.9987 6.07612L19.8848 11.1673ZM0.502939 11.1673C0.189125 11.4797 0.189125 11.9863 0.502939 12.2987L5.61685 17.3898C5.93067 17.7023 6.43944 17.7023 6.75326 17.3898C7.06708 17.0774 7.06708 16.5709 6.75326 16.2585L2.20757 11.733L6.75326 7.20748C7.06708 6.89505 7.06708 6.38854 6.75326 6.07612C6.43944 5.76369 5.93067 5.76369 5.61685 6.07612L0.502939 11.1673ZM89.9997 10.933H78.5986V12.533H89.9997V10.933ZM70.6176 10.933H59.2165V12.533H70.6176V10.933ZM51.236 10.933H39.8349V12.533H51.236V10.933ZM31.8541 10.933H20.453V12.533H31.8541V10.933ZM12.4723 10.933H1.07115V12.533H12.4723V10.933Z" fill="#2A2A2A"/>
<path d="M45.5352 23.1999C51.7484 23.1999 56.7852 18.1258 56.7852 11.8665C56.7852 5.60731 51.7484 0.533203 45.5352 0.533203C39.322 0.533203 34.2852 5.60731 34.2852 11.8665C34.2852 18.1258 39.322 23.1999 45.5352 23.1999Z" stroke="#2A2A2A"/>
</g>
<defs>
<clipPath id="clip0">
<rect width="90" height="24" fill="white"/>
</clipPath>
</defs>
</svg>
