<svg width="55" height="86" viewBox="0 0 55 86" fill="none" xmlns="http://www.w3.org/2000/svg">
<g clip-path="url(#clip0)">
<path d="M19.6205 43.1074H4.3593C2.10166 43.1074 0.271484 44.9752 0.271484 47.2791V62.8536C0.271484 65.1576 2.10166 67.0253 4.3593 67.0253H19.6205C21.8781 67.0253 23.7083 65.1576 23.7083 62.8536V47.2791C23.7083 44.9752 21.8781 43.1074 19.6205 43.1074Z" fill="#FCEDE4" stroke="#2A2A2A" stroke-width="0.5"/>
<path d="M50.1439 43.1074H34.8827C32.6251 43.1074 30.7949 44.9752 30.7949 47.2791V62.8536C30.7949 65.1576 32.6251 67.0253 34.8827 67.0253H50.1439C52.4016 67.0253 54.2317 65.1576 54.2317 62.8536V47.2791C54.2317 44.9752 52.4016 43.1074 50.1439 43.1074Z" fill="#F4B795" stroke="#2A2A2A" stroke-width="0.5"/>
<path d="M38.6733 60.918C37.24 61.16 36.8826 59.4112 37.1391 58.2837C37.4174 57.0617 37.8155 59.4818 38.3443 59.5358" fill="#F4B795"/>
<path d="M38.6733 60.918C37.24 61.16 36.8826 59.4112 37.1391 58.2837C37.4174 57.0617 37.8155 59.4818 38.3443 59.5358" stroke="#2A2A2A" stroke-width="0.25" stroke-miterlimit="10"/>
<path d="M45.1643 56.4863C45.7256 56.7555 46.9255 58.1673 45.7721 60.069C46.3031 60.1624 46.6948 60.529 46.8159 60.8889C46.9767 61.3672 46.5867 61.9991 46.1251 61.4117C46.0593 61.835 45.5589 61.9352 45.3139 61.4735C45.2215 61.7722 45.0584 61.8345 44.7101 61.751C44.0528 61.1987 43.5249 61.3845 43.2383 60.6825" fill="#F4B795"/>
<path d="M45.1643 56.4863C45.7256 56.7555 46.9255 58.1673 45.7721 60.069C46.3031 60.1624 46.6948 60.529 46.8159 60.8889C46.9767 61.3672 46.5867 61.9991 46.1251 61.4117C46.0593 61.835 45.5589 61.9352 45.3139 61.4735C45.2215 61.7722 45.0584 61.8345 44.7101 61.751C44.0528 61.1987 43.5249 61.3845 43.2383 60.6825" stroke="#2A2A2A" stroke-width="0.25" stroke-miterlimit="10"/>
<path d="M45.4202 53.068C46.8545 54.9804 45.3035 56.4227 44.7256 58.6131C43.9957 61.3787 41.3027 61.7147 39.5386 60.9754C37.7264 60.2156 38.3618 58.0502 39.1518 56.3971C39.577 55.508 39.5371 54.6964 39.9826 53.8738C40.4425 53.0246 40.0356 53.5903 40.161 52.5898" fill="#F4B795"/>
<path d="M45.4202 53.068C46.8545 54.9804 45.3035 56.4227 44.7256 58.6131C43.9957 61.3787 41.3027 61.7147 39.5386 60.9754C37.7264 60.2156 38.3618 58.0502 39.1518 56.3971C39.577 55.508 39.5371 54.6964 39.9826 53.8738C40.4425 53.0246 40.0356 53.5903 40.161 52.5898" stroke="#2A2A2A" stroke-width="0.25" stroke-miterlimit="10"/>
<path d="M41.8744 58.2104C42.4833 58.7461 42.0483 60.2935 41.5174 60.8102C42.0377 60.9043 42.3875 61.273 42.4676 61.6351C42.5739 62.1168 42.1114 62.7526 41.7172 62.1613C41.603 62.5868 41.0912 62.6875 40.8986 62.2236C40.7723 62.524 40.6021 62.5868 40.2629 62.5029C39.669 61.9472 39.6949 61.4026 39.0789 61.095C38.4737 60.7924 36.5787 58.8256 39.5153 55.0654C39.5153 55.0654 39.2038 53.5461 40.16 52.5898" fill="#F4B795"/>
<path d="M41.8744 58.2104C42.4833 58.7461 42.0483 60.2935 41.5174 60.8102C42.0377 60.9043 42.3875 61.273 42.4676 61.6351C42.5739 62.1168 42.1114 62.7526 41.7172 62.1613C41.603 62.5868 41.0912 62.6875 40.8986 62.2236C40.7723 62.524 40.6021 62.5868 40.2629 62.5029C39.669 61.9472 39.6949 61.4026 39.0789 61.095C38.4737 60.7925 36.5787 58.8256 39.5153 55.0654C39.5153 55.0654 39.2038 53.5461 40.16 52.5898" stroke="#2A2A2A" stroke-width="0.25" stroke-miterlimit="10"/>
<path d="M45.1055 60.7188C45.2942 60.8478 45.3983 61.2333 45.3154 61.4585" stroke="#2A2A2A" stroke-width="0.25" stroke-miterlimit="10"/>
<path d="M45.8926 60.6445C46.1255 60.9137 46.1309 61.1212 46.1254 61.4099" stroke="#2A2A2A" stroke-width="0.25" stroke-miterlimit="10"/>
<path d="M44.9355 60.0278C45.2403 59.9677 45.5663 60.0228 45.8589 60.0878" stroke="#2A2A2A" stroke-width="0.25" stroke-miterlimit="10" stroke-linecap="round"/>
<path d="M41.5723 61.3945C41.7746 61.666 41.7563 61.8746 41.7178 62.1649" stroke="#2A2A2A" stroke-width="0.25" stroke-miterlimit="10"/>
<path d="M40.7773 61.3945C40.9795 61.666 40.9613 61.8746 40.9227 62.1649" stroke="#2A2A2A" stroke-width="0.25" stroke-miterlimit="10"/>
<path d="M45.8373 55.0527C46.1749 57.2829 46.432 58.9956 47.408 60.3433C47.8678 60.3555 48.3558 60.706 48.4659 61.0987C48.6115 61.616 48.1507 62.3607 47.677 61.7539C47.58 62.2362 47.0148 62.4069 46.7618 61.9113C46.6409 62.2612 46.4517 62.3513 46.0539 62.2962C45.542 61.913 45.9926 61.0781 45.6903 60.2849C45.321 59.3154 45.067 58.5116 44.7441 57.4059" fill="#F4B795"/>
<path d="M45.8373 55.0527C46.1749 57.2829 46.432 58.9956 47.408 60.3433C47.8678 60.3555 48.3558 60.706 48.4659 61.0987C48.6115 61.616 48.1507 62.3607 47.677 61.7539C47.58 62.2362 47.0148 62.4069 46.7618 61.9113C46.6409 62.2612 46.4517 62.3513 46.0539 62.2962C45.542 61.913 45.9926 61.0781 45.6903 60.2849C45.321 59.3154 45.067 58.5116 44.7441 57.4059" stroke="#2A2A2A" stroke-width="0.25" stroke-miterlimit="10"/>
<path d="M46.5625 61.0742C46.7715 61.2038 46.8696 61.6332 46.7631 61.8991" stroke="#2A2A2A" stroke-width="0.25" stroke-miterlimit="10"/>
<path d="M47.4609 60.9141C47.706 61.1972 47.6999 61.4308 47.6774 61.7567" stroke="#2A2A2A" stroke-width="0.25" stroke-miterlimit="10"/>
<path d="M45.7022 50.3158C45.7022 50.3158 46.1093 50.628 46.0904 50.4529C46.3165 49.7859 45.9711 48.6002 45.8152 48.3165L45.6907 47.8527C45.3434 47.834 44.9216 47.5241 44.5459 47.4102C44.1288 47.2839 43.6244 47.2766 43.1826 47.2799H43.1267C42.6848 47.2765 42.1809 47.2835 41.7633 47.4102C41.3877 47.5241 40.9657 47.834 40.6186 47.8527L40.494 48.3165C40.2141 48.8262 40.2503 49.6376 40.4659 50.5002C40.1825 50.684 39.9297 50.9188 39.9297 51.5218C39.9299 51.9036 40.0293 52.5517 40.4401 52.8855C41.0772 53.4038 41.4714 53.0561 41.553 53.2266C41.8627 53.8743 42.0959 54.1143 42.7043 54.2364C42.7498 54.2457 42.8027 54.2368 42.8595 54.2167C43.0877 54.2801 43.3354 54.2907 43.6047 54.2364C44.2132 54.1143 44.4467 53.8743 44.7561 53.2266C44.8375 53.0557 45.2319 53.4038 45.8693 52.8855C46.2797 52.5517 46.3793 51.9033 46.3794 51.5218C46.3796 50.7746 46.0552 50.5355 45.7022 50.3158Z" fill="#F4B795" stroke="#2A2A2A" stroke-width="0.25" stroke-miterlimit="10"/>
<path d="M45.05 49.8101C45.1327 49.5201 44.8643 49.2927 44.5247 49.3254C44.2301 49.354 44.0195 49.4931 44.0195 49.7988C44.2272 49.755 44.2994 49.9951 44.5069 50.0057C44.7467 50.0181 44.9527 49.9526 45.05 49.8101Z" stroke="#2A2A2A" stroke-width="0.25" stroke-miterlimit="10" stroke-linecap="round" stroke-linejoin="round"/>
<path d="M44.2809 49.4278C44.181 49.7431 44.4176 50.2164 44.7565 49.9032C45.019 49.6604 44.6694 49.0712 44.3431 49.3658" fill="#2A2A2A"/>
<path d="M41.7363 49.8101C41.6536 49.5201 41.9108 49.2927 42.2502 49.3254C42.5451 49.354 42.7669 49.4931 42.7669 49.7988C42.5592 49.755 42.4868 49.9951 42.2795 50.0057C42.0395 50.0181 41.8333 49.9526 41.7363 49.8101Z" stroke="#2A2A2A" stroke-width="0.25" stroke-miterlimit="10" stroke-linecap="round" stroke-linejoin="round"/>
<path d="M42.5051 49.4278C42.605 49.7431 42.3685 50.2164 42.0296 49.9032C41.7671 49.6604 42.1166 49.0712 42.4427 49.3658" fill="#2A2A2A"/>
<path d="M44.4123 50.8317C44.3343 50.6552 44.2025 50.5533 44.0513 50.4901C44.0256 50.4694 43.9921 50.4509 43.9474 50.4339C43.7612 50.3641 43.5596 50.3658 43.3628 50.3769C43.166 50.3658 42.9643 50.3643 42.7783 50.4339C42.7332 50.4506 42.7005 50.4694 42.6741 50.4901C42.5232 50.5531 42.3915 50.6552 42.3131 50.8317C42.1503 51.1989 42.6155 51.067 42.8495 51.085C42.8954 51.1316 42.9158 51.2028 42.9406 51.2964C42.9783 51.4397 43.0328 51.5494 43.143 51.6302C43.2072 51.699 43.2809 51.7282 43.3632 51.7217C43.4453 51.7282 43.5192 51.699 43.5833 51.6302C43.6933 51.5494 43.748 51.4397 43.7856 51.2964C43.8104 51.2027 43.8307 51.1316 43.8766 51.085C44.11 51.067 44.5754 51.1989 44.4123 50.8317Z" fill="#2A2A2A"/>
<path d="M44.051 52.7324C44.2369 53.1033 44.239 53.4408 44.1211 53.8529C44.0073 54.2514 43.6081 54.6464 43.0991 54.4723C42.7647 54.3581 42.6577 54.0272 42.6581 53.7253C42.6584 53.4986 42.6159 53.1646 42.6703 52.9565" stroke="#2A2A2A" stroke-width="0.25" stroke-miterlimit="10"/>
<path d="M43.4698 52.7773C43.494 53.1753 43.4451 53.5727 43.3867 53.9652" stroke="#2A2A2A" stroke-width="0.25" stroke-miterlimit="10" stroke-linecap="round" stroke-linejoin="round"/>
<path d="M44.7258 52.8317C44.2061 52.9773 43.4548 52.5789 43.383 51.9492C43.2792 52.3932 43.0433 52.7286 42.6753 52.9554C42.4771 53.0429 41.9261 52.9 41.752 52.5725" stroke="#2A2A2A" stroke-width="0.25" stroke-miterlimit="10"/>
<path d="M41.93 51.0254C41.6669 51.1467 41.223 51.2916 41.3151 51.9478" stroke="#2A2A2A" stroke-width="0.25" stroke-miterlimit="10"/>
<path d="M44.8477 51.0254C45.1105 51.1467 45.5547 51.2916 45.4622 51.9478" stroke="#2A2A2A" stroke-width="0.25" stroke-miterlimit="10"/>
<path d="M41.7725 47.6616C40.928 48.1781 40.7594 47.0966 39.93 47.3689C39.1924 47.611 39.1104 48.6157 39.1074 49.374C39.1061 49.8294 39.2179 50.2885 39.2376 50.7439C39.2576 51.1971 39.1432 51.8725 39.7517 51.4738C40.0244 51.2951 40.2285 50.8398 40.461 50.5879C40.761 50.2628 41.0557 50.0506 41.1554 49.5711C41.2188 49.2671 41.2162 48.8646 41.1554 48.589" fill="#F4B795"/>
<path d="M41.7725 47.6616C40.928 48.1781 40.7594 47.0966 39.93 47.3689C39.1924 47.611 39.1104 48.6157 39.1074 49.374C39.1061 49.8294 39.2179 50.2885 39.2376 50.7439C39.2576 51.1971 39.1432 51.8725 39.7517 51.4738C40.0244 51.2951 40.2285 50.8398 40.461 50.5879C40.761 50.2628 41.0557 50.0506 41.1554 49.5711C41.2188 49.2671 41.2162 48.8646 41.1554 48.589" stroke="#2A2A2A" stroke-width="0.25" stroke-miterlimit="10"/>
<path d="M40.5241 49.9551C40.4288 50.3251 39.9624 50.4981 39.7871 50.8461" stroke="#2A2A2A" stroke-width="0.25" stroke-miterlimit="10" stroke-linecap="round" stroke-linejoin="round"/>
<path d="M44.748 47.6951C45.6382 48.3357 45.9079 47.3323 46.7374 47.6047C47.475 47.8467 47.5036 48.6166 47.5063 49.3747C47.508 49.8301 47.3958 50.2892 47.3759 50.7446C47.3561 51.1979 47.4704 51.8732 46.862 51.4745C46.5895 51.2959 46.3851 50.8406 46.1524 50.5886C45.8529 50.2635 45.6355 50.2342 45.7587 49.7606C45.8209 49.521 45.8587 48.8321 45.4581 48.5901" fill="#F4B795"/>
<path d="M44.748 47.6951C45.6382 48.3357 45.9079 47.3323 46.7374 47.6047C47.475 47.8467 47.5036 48.6166 47.5063 49.3747C47.508 49.8301 47.3958 50.2892 47.3759 50.7446C47.3561 51.1979 47.4704 51.8732 46.862 51.4745C46.5895 51.2959 46.3851 50.8406 46.1524 50.5886C45.8529 50.2635 45.6355 50.2342 45.7587 49.7606C45.8209 49.521 45.8587 48.8321 45.4581 48.5901" stroke="#2A2A2A" stroke-width="0.25" stroke-miterlimit="10"/>
<path d="M46.0918 49.9551C46.1871 50.3251 46.6535 50.4981 46.8286 50.8461" stroke="#2A2A2A" stroke-width="0.25" stroke-miterlimit="10" stroke-linecap="round" stroke-linejoin="round"/>
<path d="M45.0159 55.459C45.0815 55.6582 45.1369 55.8688 45.1878 56.0823C45.1562 56.094 45.1257 56.0779 45.0946 56.0907C45.1199 56.2392 45.1422 56.4205 45.1629 56.5718C45.1389 56.5813 45.094 56.5585 45.0889 56.5607C45.1696 57.0502 45.2055 57.6559 44.9414 58.0781" stroke="#2A2A2A" stroke-width="0.25" stroke-miterlimit="10"/>
<path d="M43.9418 49.9551C43.9001 50.1834 44.0777 50.2313 44.1493 50.3185" stroke="#2A2A2A" stroke-width="0.25" stroke-miterlimit="10" stroke-linecap="round" stroke-linejoin="round"/>
<path d="M42.7661 49.9883C42.7661 50.1783 42.5955 50.2663 42.5273 50.3728" stroke="#2A2A2A" stroke-width="0.25" stroke-miterlimit="10" stroke-linecap="round" stroke-linejoin="round"/>
<path d="M40.1819 53.8535C39.6838 55.8266 39.4332 59.5561 38.9394 60.8304C38.4774 60.8393 37.9915 61.1892 37.8847 61.5847C37.7436 62.107 38.217 62.8629 38.6869 62.2516C38.7905 62.74 39.3608 62.9141 39.6082 62.4146C39.7342 62.7689 39.9258 62.8607 40.3232 62.8067C40.8301 62.4224 40.2816 61.9457 40.5704 61.1553C40.9224 60.1913 41.0323 56.7788 41.6757 55.8405" fill="#F4B795"/>
<path d="M40.1819 53.8535C39.6838 55.8266 39.4332 59.5561 38.9394 60.8304C38.4774 60.8393 37.9915 61.1892 37.8847 61.5847C37.7436 62.107 38.217 62.8629 38.6869 62.2516C38.7905 62.74 39.3608 62.9141 39.6082 62.4146C39.7342 62.7689 39.9258 62.8607 40.3232 62.8067C40.8301 62.4224 40.2816 61.9457 40.5704 61.1553C40.9224 60.1913 41.0323 56.7788 41.6757 55.8405" stroke="#2A2A2A" stroke-width="0.25" stroke-miterlimit="10"/>
<path d="M39.7933 61.5723C39.5856 61.7019 39.4932 62.1346 39.6037 62.4033" stroke="#2A2A2A" stroke-width="0.25" stroke-miterlimit="10"/>
<path d="M38.8917 61.4023C38.6494 61.6871 38.6583 61.9224 38.685 62.2517" stroke="#2A2A2A" stroke-width="0.25" stroke-miterlimit="10"/>
<path d="M17.0982 54.4257C17.0982 54.7856 15.1968 55.6855 14.8362 55.6855H7.93151C7.57086 55.6855 6.01367 55.3942 6.01367 55.0342L7.2477 51.5278C7.5381 50.7999 7.77759 50.6172 8.44674 50.6172H13.2831L17.0982 54.4257Z" fill="#F4B795" stroke="#2A2A2A" stroke-width="0.25" stroke-miterlimit="10"/>
<path d="M8.91429 51.1211L8.53892 51.1214C8.22182 51.1214 7.95551 51.3735 7.82731 51.7131L6.78906 54.6503C6.78906 54.952 7.3697 55.3699 7.68506 55.3699L8.91413 55.3695V51.1211H8.91429Z" fill="#F4B795" stroke="#2A2A2A" stroke-width="0.25" stroke-miterlimit="10"/>
<path d="M13.0853 51.1211L9.30078 51.1218V55.3698L13.7287 55.3695C14.0444 55.3695 16.3955 54.7269 16.3952 54.4253L13.0853 51.1211Z" fill="#F4B795" stroke="#2A2A2A" stroke-width="0.25" stroke-miterlimit="10"/>
<path d="M15.582 56.9942C15.582 57.2239 15.7688 57.4103 15.9989 57.4103H18.9789C19.2092 57.4103 19.3958 57.2239 19.3958 56.9942V54.377C19.3958 54.1473 19.2092 53.9609 18.9789 53.9609H15.9989C15.7688 53.9609 15.582 54.1471 15.582 54.377V56.9942Z" fill="#F4B795" stroke="#2A2A2A" stroke-width="0.25" stroke-miterlimit="10"/>
<path d="M18.2222 53.9409L17.5655 53.9375H5.64258V58.3322H19.395V55.4009C18.3514 55.4009 18.2222 54.3726 18.2222 53.9409Z" fill="#F4B795" stroke="#2A2A2A" stroke-width="0.25" stroke-miterlimit="10"/>
<path d="M16.7281 59.6299C17.6857 59.6299 18.462 58.8551 18.462 57.899C18.462 56.9434 17.6857 56.168 16.7281 56.168C15.7704 56.168 14.9941 56.9434 14.9941 57.899C14.9941 58.8551 15.7704 59.6299 16.7281 59.6299Z" fill="#F4B795" stroke="#2A2A2A" stroke-width="0.25" stroke-miterlimit="10"/>
<path d="M16.7268 58.7376C17.1897 58.7376 17.5649 58.3633 17.5649 57.901C17.5649 57.4388 17.1897 57.0645 16.7268 57.0645C16.2639 57.0645 15.8887 57.4388 15.8887 57.901C15.8887 58.3633 16.2639 58.7376 16.7268 58.7376Z" fill="#F4B795" stroke="#2A2A2A" stroke-width="0.25" stroke-miterlimit="10"/>
<path d="M8.37848 59.6313C9.33612 59.6313 10.1125 58.8565 10.1125 57.9009C10.1125 56.9447 9.33612 56.1699 8.37848 56.1699C7.42084 56.1699 6.64453 56.9447 6.64453 57.9009C6.64453 58.8565 7.42084 59.6313 8.37848 59.6313Z" fill="#F4B795" stroke="#2A2A2A" stroke-width="0.25" stroke-miterlimit="10"/>
<path d="M8.37728 58.7376C8.84024 58.7376 9.21556 58.3633 9.21556 57.901C9.21556 57.4394 8.84024 57.0645 8.37728 57.0645C7.91438 57.0645 7.53906 57.4394 7.53906 57.901C7.53906 58.3633 7.91438 58.7376 8.37728 58.7376Z" fill="#F4B795" stroke="#2A2A2A" stroke-width="0.25" stroke-miterlimit="10"/>
<path d="M5.69141 55.7566C5.69141 55.9229 5.79556 56.0586 5.9236 56.0586H5.98633C6.11469 56.0586 6.21868 55.9229 6.21868 55.7566V55.07C6.21868 54.9031 6.11469 54.7676 5.98633 54.7676H5.9236C5.79556 54.7676 5.69141 54.9031 5.69141 55.07V55.7566Z" fill="#F4B795" stroke="#2A2A2A" stroke-width="0.25" stroke-miterlimit="10"/>
<path d="M9.90997 54.3867C9.74292 54.3867 9.60742 54.4903 9.60742 54.6186V54.6815C9.60742 54.8098 9.74259 54.9134 9.90997 54.9134H10.5971C10.7642 54.9134 10.8997 54.8098 10.8997 54.6815V54.6186C10.8997 54.4903 10.7643 54.3867 10.5971 54.3867H9.90997Z" fill="#F4B795" stroke="#2A2A2A" stroke-width="0.25" stroke-miterlimit="10"/>
<path d="M19.6656 57.1641H18.6562V58.3316H19.6656V57.1641Z" fill="#F4B795" stroke="#2A2A2A" stroke-width="0.25" stroke-miterlimit="10"/>
<path d="M6.46103 57.1641H5.45117V58.3316H6.46103V57.1641Z" fill="#F4B795" stroke="#2A2A2A" stroke-width="0.25" stroke-miterlimit="10"/>
<path d="M20.6982 5.43323C20.6764 5.47402 20.6428 5.49442 20.5974 5.49442C20.5701 5.49442 20.5393 5.48422 20.5047 5.46383C20.4702 5.44343 20.4275 5.42118 20.3766 5.39708C20.3276 5.37112 20.2686 5.34795 20.1995 5.32755C20.1305 5.3053 20.0487 5.29418 19.9542 5.29418C19.8725 5.29418 19.7989 5.3053 19.7335 5.32755C19.6681 5.34795 19.6118 5.37668 19.5645 5.41377C19.5191 5.45085 19.4837 5.49442 19.4582 5.54448C19.4346 5.5927 19.4228 5.64555 19.4228 5.70301C19.4228 5.77531 19.4428 5.83555 19.4828 5.88378C19.5246 5.932 19.5791 5.97372 19.6463 6.00893C19.7135 6.04414 19.7898 6.07568 19.8752 6.10349C19.9606 6.12947 20.0478 6.15817 20.1368 6.18971C20.2277 6.21935 20.3158 6.25273 20.4012 6.28983C20.4866 6.32693 20.5629 6.37326 20.6301 6.42889C20.6973 6.48451 20.7509 6.55309 20.7909 6.63469C20.8327 6.7144 20.8536 6.81085 20.8536 6.92393C20.8536 7.0537 20.8309 7.17423 20.7854 7.28548C20.74 7.39489 20.6728 7.49034 20.5838 7.57194C20.4947 7.65164 20.3857 7.71472 20.2567 7.76106C20.1278 7.80739 19.9788 7.83058 19.8098 7.83058C19.6172 7.83058 19.4428 7.79905 19.2866 7.73602C19.1303 7.67111 18.9977 7.58862 18.8887 7.4885L19.0031 7.29938C19.0177 7.2753 19.035 7.25672 19.0549 7.24376C19.0749 7.2308 19.1004 7.22429 19.1312 7.22429C19.1639 7.22429 19.1985 7.23725 19.2348 7.26323C19.2711 7.28921 19.3147 7.31791 19.3656 7.34945C19.4183 7.38098 19.4819 7.40968 19.5564 7.43566C19.6309 7.46164 19.7235 7.4746 19.8343 7.4746C19.9288 7.4746 20.0115 7.46253 20.0823 7.43844C20.1532 7.41247 20.2123 7.3782 20.2595 7.33554C20.3067 7.29288 20.3412 7.24376 20.363 7.18814C20.3867 7.13252 20.3984 7.07317 20.3984 7.01014C20.3984 6.93227 20.3776 6.86831 20.3358 6.81825C20.2958 6.76635 20.2422 6.72274 20.175 6.68753C20.1078 6.65043 20.0305 6.61895 19.9433 6.59297C19.858 6.56516 19.7698 6.5364 19.679 6.50676C19.59 6.47711 19.5018 6.44374 19.4146 6.40664C19.3293 6.3677 19.253 6.31947 19.1857 6.26202C19.1185 6.20456 19.064 6.13408 19.0222 6.05065C18.9823 5.96538 18.9623 5.86248 18.9623 5.74194C18.9623 5.63442 18.9841 5.5315 19.0277 5.43323C19.0713 5.33311 19.1349 5.24597 19.2184 5.17181C19.302 5.09579 19.4047 5.03553 19.5264 4.99103C19.6481 4.94653 19.7871 4.92428 19.9433 4.92428C20.125 4.92428 20.2876 4.95395 20.4311 5.01328C20.5765 5.07076 20.7019 5.15049 20.8072 5.25246L20.6982 5.43323ZM22.1541 5.34424C22.2722 5.2163 22.4031 5.11433 22.5466 5.03831C22.6901 4.96229 22.8554 4.92428 23.0426 4.92428C23.1934 4.92428 23.326 4.95024 23.4404 5.00216C23.5567 5.05222 23.653 5.12453 23.7293 5.21909C23.8074 5.31179 23.8665 5.42396 23.9064 5.5556C23.9464 5.68726 23.9664 5.83277 23.9664 5.99224V7.78609H23.4786V5.99224C23.4786 5.77904 23.4305 5.61401 23.3341 5.4972C23.2397 5.37854 23.0953 5.31921 22.9008 5.31921C22.7573 5.31921 22.6229 5.35443 22.4975 5.42489C22.3739 5.49535 22.2595 5.59081 22.1541 5.71135V7.78609H21.6663V3.68945H22.1541V5.34424ZM26.4197 6.51788C26.1963 6.52528 26.0055 6.54386 25.8475 6.5735C25.6912 6.60132 25.5631 6.63842 25.4632 6.68475C25.3651 6.73108 25.2933 6.78582 25.2479 6.84884C25.2043 6.91186 25.1825 6.98233 25.1825 7.06021C25.1825 7.13435 25.1943 7.19832 25.2179 7.2521C25.2415 7.30589 25.2734 7.35039 25.3133 7.3856C25.3551 7.41897 25.4032 7.444 25.4577 7.46069C25.514 7.47554 25.574 7.48294 25.6376 7.48294C25.723 7.48294 25.8011 7.4746 25.872 7.45791C25.9428 7.43939 26.0092 7.41341 26.0709 7.38004C26.1345 7.34666 26.1945 7.30678 26.2508 7.26045C26.3089 7.21411 26.3652 7.16127 26.4197 7.10192V6.51788ZM24.8527 5.36649C25.0054 5.2163 25.1698 5.10413 25.346 5.02997C25.5222 4.9558 25.7176 4.91872 25.9319 4.91872C26.0863 4.91872 26.2235 4.94468 26.3434 4.99659C26.4633 5.04851 26.5642 5.12082 26.6459 5.21352C26.7277 5.30623 26.7894 5.4184 26.8313 5.55004C26.8731 5.6817 26.8939 5.82632 26.8939 5.9839V7.78609H26.6786C26.6314 7.78609 26.5951 7.77869 26.5696 7.76384C26.5442 7.74715 26.5242 7.71561 26.5097 7.66928L26.4552 7.40229C26.3825 7.47087 26.3117 7.53206 26.2426 7.58584C26.1735 7.63774 26.1009 7.68224 26.0246 7.71934C25.9483 7.75455 25.8665 7.78147 25.7793 7.79999C25.6939 7.82041 25.5985 7.83058 25.4932 7.83058C25.386 7.83058 25.2851 7.81573 25.1907 7.78609C25.0962 7.75455 25.0135 7.70821 24.9427 7.64703C24.8736 7.58584 24.8182 7.50892 24.7764 7.41619C24.7365 7.32163 24.7165 7.21039 24.7165 7.08245C24.7165 6.97121 24.7465 6.86458 24.8064 6.76262C24.8664 6.65877 24.9636 6.567 25.098 6.48729C25.2325 6.40758 25.4078 6.34267 25.624 6.29261C25.8402 6.24071 26.1054 6.21101 26.4197 6.20361V5.9839C26.4197 5.76514 26.3734 5.6001 26.2808 5.48886C26.1881 5.37576 26.0528 5.31921 25.8747 5.31921C25.7548 5.31921 25.654 5.33496 25.5722 5.36649C25.4922 5.39615 25.4223 5.43045 25.3624 5.46939C25.3042 5.50647 25.2534 5.54077 25.2097 5.57229C25.1679 5.60194 25.1262 5.61679 25.0844 5.61679C25.0517 5.61679 25.0235 5.60845 24.9999 5.59176C24.9763 5.57324 24.9563 5.55097 24.94 5.52501L24.8527 5.36649ZM28.3387 7.10749C28.4277 7.22986 28.5249 7.31607 28.6303 7.36613C28.7356 7.41619 28.8537 7.44122 28.9846 7.44122C29.2425 7.44122 29.4406 7.34761 29.5786 7.16033C29.7167 6.97304 29.7858 6.70605 29.7858 6.35936C29.7858 6.1758 29.7694 6.01822 29.7367 5.88656C29.7058 5.7549 29.6604 5.64738 29.6005 5.56395C29.5405 5.47866 29.4669 5.41655 29.3797 5.37761C29.2925 5.33867 29.1935 5.31921 29.0827 5.31921C28.9246 5.31921 28.7856 5.35629 28.6657 5.43045C28.5476 5.50461 28.4386 5.60939 28.3387 5.74472V7.10749ZM28.3141 5.40542C28.4304 5.25895 28.5649 5.14121 28.7175 5.05222C28.8701 4.96322 29.0445 4.91872 29.2407 4.91872C29.4006 4.91872 29.545 4.95024 29.674 5.01328C29.803 5.07447 29.9129 5.16624 30.0038 5.28861C30.0946 5.40913 30.1646 5.55931 30.2136 5.73916C30.2627 5.91899 30.2872 6.12574 30.2872 6.35936C30.2872 6.567 30.26 6.76079 30.2054 6.94062C30.1509 7.11861 30.0719 7.27341 29.9684 7.40507C29.8666 7.53484 29.7412 7.63774 29.5923 7.71378C29.4451 7.78792 29.2789 7.82502 29.0936 7.82502C28.9246 7.82502 28.7792 7.79626 28.6575 7.73881C28.5376 7.67946 28.4313 7.59791 28.3387 7.49407V8.74002H27.8509V4.96878H28.1425C28.2115 4.96878 28.2542 5.00308 28.2705 5.07168L28.3141 5.40542ZM32.9718 6.07012C32.9718 5.95514 32.9555 5.85041 32.9228 5.75585C32.8919 5.65945 32.8455 5.57691 32.7838 5.50832C32.7238 5.43787 32.6502 5.3841 32.563 5.34702C32.4758 5.30808 32.3768 5.28861 32.266 5.28861C32.0334 5.28861 31.849 5.35814 31.7128 5.4972C31.5783 5.63442 31.4947 5.82538 31.462 6.07012H32.9718ZM33.3642 7.39116C33.3043 7.46531 33.2325 7.53022 33.1489 7.58584C33.0653 7.63963 32.9754 7.68413 32.8792 7.71934C32.7846 7.75455 32.6865 7.78052 32.5848 7.79721C32.4831 7.81573 32.3822 7.82502 32.2823 7.82502C32.0916 7.82502 31.9153 7.79259 31.7536 7.72768C31.5937 7.66093 31.4547 7.56454 31.3367 7.43844C31.2204 7.31051 31.1296 7.15293 31.0642 6.96565C30.9988 6.77836 30.9661 6.56333 30.9661 6.32042C30.9661 6.1239 30.9951 5.94035 31.0533 5.76975C31.1132 5.59916 31.1986 5.45177 31.3094 5.32755C31.4202 5.20147 31.5556 5.10321 31.7155 5.03275C31.8753 4.96044 32.0552 4.92428 32.2551 4.92428C32.4204 4.92428 32.573 4.95302 32.7129 5.0105C32.8546 5.06612 32.9763 5.1477 33.0781 5.25524C33.1817 5.36092 33.2625 5.49257 33.3206 5.65016C33.3787 5.80591 33.4078 5.9839 33.4078 6.18414C33.4078 6.26202 33.3997 6.31391 33.3833 6.33989C33.367 6.36586 33.3361 6.37882 33.2907 6.37882H31.4457C31.4511 6.55682 31.4747 6.71162 31.5165 6.84328C31.5602 6.97494 31.6201 7.08524 31.6964 7.17423C31.7727 7.26139 31.8635 7.3272 31.9689 7.37169C32.0743 7.41436 32.1924 7.43566 32.3232 7.43566C32.4449 7.43566 32.5494 7.42176 32.6366 7.39394C32.7256 7.3643 32.8019 7.33276 32.8655 7.29938C32.9291 7.26601 32.9818 7.23542 33.0236 7.20761C33.0672 7.17796 33.1044 7.16311 33.1353 7.16311C33.1753 7.16311 33.2062 7.17885 33.228 7.21039L33.3642 7.39116Z" fill="#2A2A2A"/>
<path d="M29.0226 16.9414L36.3983 24.2523C36.3839 24.2728 36.3642 24.2981 36.337 24.3284C36.2491 24.4262 36.1147 24.5417 35.939 24.6698C35.5892 24.9248 35.1084 25.2059 34.5983 25.4687C34.0895 25.7308 33.5593 25.9707 33.1144 26.1443C32.8918 26.2312 32.6934 26.3004 32.5314 26.3475C32.3624 26.3966 32.2546 26.4151 32.2033 26.4151H18.5196C18.194 26.4151 17.268 26.2778 16.4162 26.0483C15.9921 25.934 15.6034 25.8012 15.3258 25.6595C15.1862 25.5882 15.0875 25.5211 15.0271 25.4623C14.9995 25.4354 14.9849 25.4154 14.9772 25.402L17.3983 18.5718C17.6829 17.8642 17.9243 17.4741 18.2216 17.2497C18.512 17.0306 18.8945 16.9414 19.5407 16.9414H29.0226Z" fill="#F4B795" stroke="#2A2A2A" stroke-width="0.5" stroke-miterlimit="10"/>
<path d="M20.4638 17.6855L19.7199 17.6862C19.0915 17.6862 18.5636 18.1823 18.3096 18.8505L16.252 24.6301C16.252 25.2239 17.4027 26.046 18.0277 26.046L20.4634 26.0453V17.6855H20.4638Z" fill="#F4B795" stroke="#2A2A2A" stroke-width="0.5" stroke-miterlimit="10"/>
<path d="M28.7308 17.6836L21.2305 17.6848V26.044L30.0059 26.0434C30.6315 26.0434 35.2911 24.7789 35.2904 24.1854L28.7308 17.6836Z" fill="#F4B795" stroke="#2A2A2A" stroke-width="0.5" stroke-miterlimit="10"/>
<path d="M33.6777 29.2405C33.6777 29.6923 34.0478 30.0589 34.5039 30.0589H40.4098C40.8661 30.0589 41.2359 29.6919 41.2359 29.2405V24.0901C41.2359 23.6381 40.8661 23.2715 40.4098 23.2715H34.5039C34.0478 23.2715 33.6777 23.6378 33.6777 24.0901V29.2405Z" fill="#F4B795" stroke="#2A2A2A" stroke-width="0.5" stroke-miterlimit="10"/>
<path d="M38.9129 23.2331L37.6115 23.2266H13.9824V31.8744L41.2373 31.8741V26.1062C39.1691 26.1062 38.9129 24.0827 38.9129 23.2331Z" fill="#F4B795" stroke="#2A2A2A" stroke-width="0.5" stroke-miterlimit="10"/>
<path d="M35.9501 34.4294C37.8479 34.4294 39.3865 32.9044 39.3865 31.0233C39.3865 29.1421 37.8479 27.6172 35.9501 27.6172C34.0522 27.6172 32.5137 29.1421 32.5137 31.0233C32.5137 32.9044 34.0522 34.4294 35.9501 34.4294Z" fill="#F4B795" stroke="#2A2A2A" stroke-width="0.5" stroke-miterlimit="10"/>
<path d="M35.95 32.6694C36.8673 32.6694 37.6109 31.9323 37.6109 31.0232C37.6109 30.114 36.8673 29.377 35.95 29.377C35.0327 29.377 34.2891 30.114 34.2891 31.0232C34.2891 31.9323 35.0327 32.6694 35.95 32.6694Z" fill="#F4B795" stroke="#2A2A2A" stroke-width="0.5" stroke-miterlimit="10"/>
<path d="M19.4032 34.4307C21.3011 34.4307 22.8396 32.9059 22.8396 31.0249C22.8396 29.1439 21.3011 27.6191 19.4032 27.6191C17.5053 27.6191 15.9668 29.1439 15.9668 31.0249C15.9668 32.9059 17.5053 34.4307 19.4032 34.4307Z" fill="#F4B795" stroke="#2A2A2A" stroke-width="0.5" stroke-miterlimit="10"/>
<path d="M19.4015 32.6687C20.319 32.6687 21.0628 31.9318 21.0628 31.0228C21.0628 30.1138 20.319 29.377 19.4015 29.377C18.484 29.377 17.7402 30.1138 17.7402 31.0228C17.7402 31.9318 18.484 32.6687 19.4015 32.6687Z" fill="#F4B795" stroke="#2A2A2A" stroke-width="0.5" stroke-miterlimit="10"/>
<path d="M14.0781 26.8031C14.0781 27.131 14.2845 27.3977 14.5382 27.3977H14.6626C14.9169 27.3977 15.123 27.131 15.123 26.8031V25.4525C15.123 25.1242 14.9169 24.8574 14.6626 24.8574H14.5382C14.2845 24.8574 14.0781 25.1242 14.0781 25.4525V26.8031Z" fill="#F4B795" stroke="#2A2A2A" stroke-width="0.5" stroke-miterlimit="10"/>
<path d="M22.4375 24.1094C22.1065 24.1094 21.8379 24.3132 21.8379 24.5655V24.6893C21.8379 24.9419 22.1058 25.1457 22.4375 25.1457H23.7993C24.1304 25.1457 24.3989 24.9419 24.3989 24.6893V24.5655C24.3989 24.3132 24.1307 24.1094 23.7993 24.1094H22.4375Z" fill="#F4B795" stroke="#2A2A2A" stroke-width="0.5" stroke-miterlimit="10"/>
<path d="M41.7738 29.5762H39.7734V31.8742H41.7738V29.5762Z" fill="#F4B795" stroke="#2A2A2A" stroke-width="0.5" stroke-miterlimit="10"/>
<path d="M15.601 29.5762H13.5996V31.8746H15.601V29.5762Z" fill="#F4B795" stroke="#2A2A2A" stroke-width="0.5" stroke-miterlimit="10"/>
</g>
<path d="M22.7219 70.2195C21.8995 70.2195 21.22 70.7201 20.9339 71.4353H20.7909V70.5413C20.7909 69.4685 19.9326 68.6103 18.8598 68.6103C17.787 68.6103 16.9288 69.4685 16.9288 70.5413V69.2182C16.9288 68.1454 16.0705 67.2871 14.9977 67.2871C13.9249 67.2871 13.0666 68.1454 13.0666 69.2182V62.7455C13.0666 61.6727 12.2084 60.8145 11.1356 60.8145C10.0627 60.8145 9.20449 61.6727 9.20449 62.7455V70.6844C9.20449 70.6844 9.09721 75.226 9.34756 77.5503C9.63365 81.5197 12.9594 84.6667 17.0003 84.6667C21.22 84.6667 24.6173 81.3052 24.6887 77.0855C24.7245 77.0497 24.7245 76.9782 24.7245 76.9067V73.9743V72.2221V72.1148C24.653 71.0777 23.7947 70.2195 22.7219 70.2195Z" fill="#F4B795"/>
<path d="M20.938 71.4394V72.0177H21.3295L21.4749 71.6542L20.938 71.4394ZM20.7949 71.4394H20.2166V72.0177H20.7949V71.4394ZM9.20856 70.6884L9.78669 70.7021L9.78686 70.6953V70.6884H9.20856ZM9.35163 77.5544L9.92843 77.5129L9.92768 77.5027L9.92658 77.4925L9.35163 77.5544ZM24.6928 77.0896L24.2839 76.6807L24.1186 76.846L24.1146 77.0797L24.6928 77.0896ZM24.7286 72.1189H25.3069V72.0989L25.3055 72.0791L24.7286 72.1189ZM22.726 69.6452C21.6554 69.6452 20.7705 70.3009 20.401 71.2246L21.4749 71.6542C21.6776 71.1475 22.1517 70.8019 22.726 70.8019V69.6452ZM20.938 70.8611H20.7949V72.0177H20.938V70.8611ZM21.3732 71.4394V70.5454H20.2166V71.4394H21.3732ZM21.3732 70.5454C21.3732 69.1532 20.2561 68.0361 18.8639 68.0361V69.1927C19.6173 69.1927 20.2166 69.792 20.2166 70.5454H21.3732ZM18.8639 68.0361C17.4717 68.0361 16.3545 69.1532 16.3545 70.5454H17.5111C17.5111 69.792 18.1104 69.1927 18.8639 69.1927V68.0361ZM17.5111 70.5454V69.2223H16.3545V70.5454H17.5111ZM17.5111 69.2223C17.5111 67.8301 16.394 66.7129 15.0018 66.7129V67.8695C15.7552 67.8695 16.3545 68.4689 16.3545 69.2223H17.5111ZM15.0018 66.7129C13.6096 66.7129 12.4924 67.8301 12.4924 69.2223H13.649C13.649 68.4689 14.2484 67.8695 15.0018 67.8695V66.7129ZM13.649 69.2223V62.7496H12.4924V69.2223H13.649ZM13.649 62.7496C13.649 61.3574 12.5318 60.2402 11.1396 60.2402V61.3968C11.893 61.3968 12.4924 61.9962 12.4924 62.7496H13.649ZM11.1396 60.2402C9.74742 60.2402 8.63025 61.3574 8.63025 62.7496H9.78686C9.78686 61.9962 10.3862 61.3968 11.1396 61.3968V60.2402ZM8.63025 62.7496V70.6884H9.78686V62.7496H8.63025ZM9.20856 70.6884C8.63043 70.6748 8.63043 70.6748 8.63043 70.6749C8.63043 70.6749 8.63043 70.675 8.63043 70.6751C8.63043 70.6752 8.63043 70.6754 8.63043 70.6758C8.63037 70.6764 8.63037 70.6772 8.63037 70.6784C8.63031 70.6807 8.6302 70.6841 8.63014 70.6885C8.62991 70.6974 8.62962 70.7105 8.62927 70.7276C8.62852 70.7619 8.62748 70.8123 8.62626 70.8771C8.62378 71.0069 8.62054 71.1944 8.61747 71.4267C8.61129 71.8911 8.60568 72.5347 8.60793 73.2516C8.61238 74.6772 8.64789 76.4209 8.77662 77.6164L9.92658 77.4925C9.80502 76.3635 9.76899 74.6742 9.76454 73.248C9.76228 72.5389 9.76783 71.9018 9.77396 71.4421C9.77703 71.2122 9.78021 71.0269 9.78264 70.8991C9.78385 70.8352 9.78489 70.7858 9.78559 70.7524C9.78594 70.7357 9.78622 70.723 9.7864 70.7146C9.78651 70.7104 9.78657 70.7072 9.78663 70.7051C9.78669 70.7041 9.78669 70.7033 9.78669 70.7028C9.78669 70.7025 9.78669 70.7023 9.78669 70.7022C9.78669 70.7022 9.78669 70.7022 9.78669 70.7021C9.78669 70.7021 9.78669 70.7021 9.20856 70.6884ZM8.77483 77.596C9.08249 81.8654 12.6577 85.2491 17.0043 85.2491V84.0925C13.2691 84.0925 10.1929 81.1822 9.92843 77.5129L8.77483 77.596ZM17.0043 85.2491C21.5418 85.2491 25.1942 81.6324 25.2711 77.0993L24.1146 77.0797C24.0484 80.9861 20.9064 84.0925 17.0043 84.0925V85.2491ZM25.1017 77.4985C25.2531 77.3471 25.2863 77.1678 25.2966 77.0954C25.308 77.0154 25.3069 76.9358 25.3069 76.9108H24.1503C24.1503 76.9304 24.1502 76.9388 24.15 76.9452C24.1498 76.9512 24.1497 76.945 24.1516 76.9318C24.1534 76.9194 24.1587 76.8873 24.1749 76.8459C24.1917 76.803 24.2238 76.7407 24.2839 76.6807L25.1017 77.4985ZM25.3069 76.9108V73.9784H24.1503V76.9108H25.3069ZM25.3069 73.9784V72.2262H24.1503V73.9784H25.3069ZM25.3069 72.2262V72.1189H24.1503V72.2262H25.3069ZM25.3055 72.0791C25.2142 70.7551 24.1188 69.6452 22.726 69.6452V70.8019C23.4788 70.8019 24.0999 71.4085 24.1516 72.1587L25.3055 72.0791Z" fill="#2A2A2A"/>
<defs>
<clipPath id="clip0">
<rect width="54.5043" height="85.1032" fill="white"/>
</clipPath>
</defs>
</svg>
