<svg width="48" height="49" viewBox="0 0 48 49" fill="none" xmlns="http://www.w3.org/2000/svg">
<path d="M42 25.5C40 29 35 34.9643 27.5 35.5C20.5 36 12.5 27.5 12 25.5C13.5 22.5 20 15.5 27 15.5C33.0751 15.5 39.5 21.5 42 25.5Z" fill="#FFE500"/>
<circle cx="24" cy="24.5" r="5.5" stroke="black"/>
<path d="M38.4143 24.512C36.3535 27.9814 31.5359 33.4962 24.4644 34.0013C21.1569 34.2375 17.5337 32.337 14.6218 30.0446C13.1777 28.9078 11.9349 27.6951 11.0259 26.6487C10.5713 26.1253 10.2046 25.6485 9.93923 25.2482C9.74061 24.9485 9.61257 24.712 9.54165 24.5422C10.3185 23.1036 12.2108 20.7731 14.7476 18.7672C17.3932 16.6754 20.6601 15 24 15C26.883 15 29.9028 16.43 32.5415 18.4006C35.0606 20.2818 37.1726 22.6114 38.4143 24.512Z" stroke="black"/>
</svg>
