<?xml version="1.0" encoding="utf-8"?>
<svg width="17px" height="23px" viewBox="0 0 17 23" fill="none" preserveAspectRatio="xMidYMid slice" xmlns="http://www.w3.org/2000/svg">
  <ellipse cx="-9.773" cy="-14.573" rx="6.5" ry="6.5" transform="matrix(-1, 0, 0, -1, 0, 0)" fill="#CDCDCD"/>
  <mask id="path-2-inside-1" fill="white">
    <path d="M 15.461 14.168 C 15.461 18.087 12.285 21.263 8.367 21.263 C 4.449 21.263 1.273 18.087 1.273 14.168 C 1.273 10.25 4.449 7.073 8.367 7.073 C 12.285 7.073 15.461 10.25 15.461 14.168 Z"/>
  </mask>
  <path d="M 14.461 14.168 C 14.461 17.534 11.732 20.263 8.367 20.263 L 8.367 22.263 C 12.837 22.263 16.461 18.639 16.461 14.168 L 14.461 14.168 Z M 8.367 20.263 C 5.001 20.263 2.273 17.534 2.273 14.168 L 0.273 14.168 C 0.273 18.639 3.897 22.263 8.367 22.263 L 8.367 20.263 Z M 2.273 14.168 C 2.273 10.802 5.001 8.073 8.367 8.073 L 8.367 6.073 C 3.897 6.073 0.273 9.697 0.273 14.168 L 2.273 14.168 Z M 8.367 8.073 C 11.732 8.073 14.461 10.802 14.461 14.168 L 16.461 14.168 C 16.461 9.697 12.837 6.073 8.367 6.073 L 8.367 8.073 Z" fill="black" mask="url(#path-2-inside-1)"/>
  <path fill-rule="evenodd" clip-rule="evenodd" d="M 11.273 7.961 L 11.273 5.073 C 11.273 3.417 9.93 2.073 8.273 2.073 C 6.617 2.073 5.273 3.417 5.273 5.073 L 5.273 7.961 C 4.915 8.144 4.58 8.359 4.273 8.601 L 4.273 5.073 C 4.273 2.864 6.064 1.073 8.273 1.073 C 10.483 1.073 12.273 2.864 12.273 5.073 L 12.273 8.601 C 11.967 8.359 11.632 8.144 11.273 7.961 Z" fill="black"/>
</svg>