<svg width="40" height="40" viewBox="0 0 40 40" fill="none" xmlns="http://www.w3.org/2000/svg">
<path d="M12.0113 20.6662L12.3244 21.056L12.0113 20.6662ZM12.0113 20.6662L11.3189 21.2223C10.8536 21.596 10.6286 22.2372 10.8537 22.8382L11.3219 22.6628L10.8537 22.8382C11.0141 23.2664 11.2084 23.6875 11.4407 24.102C11.739 24.6343 12.3309 24.8834 12.8952 24.8072L13.8771 24.6746C14.039 24.6528 14.2216 24.7147 14.3662 24.86C14.5303 25.025 14.7014 25.1819 14.8789 25.3305C15.0438 25.4685 15.121 25.6565 15.1051 25.8272L15.0263 26.6725C14.9713 27.2624 15.2701 27.8632 15.847 28.1253C16.2939 28.3283 16.7562 28.4985 17.2296 28.6342C17.8116 28.8011 18.4053 28.5685 18.7555 28.1217L19.3365 27.3806C19.4378 27.2514 19.6119 27.1691 19.8152 27.1739C20.0673 27.1798 20.3207 27.1739 20.5745 27.1558C20.7773 27.1414 20.9549 27.215 21.0623 27.3386L21.684 28.0542C22.0555 28.4818 22.6584 28.6844 23.2304 28.4906C23.6887 28.3353 24.1394 28.1454 24.5833 27.9167C25.1481 27.6257 25.4172 27.0085 25.3313 26.4203L25.2092 25.5837C25.1844 25.4138 25.252 25.2215 25.4102 25.0748C25.5796 24.9177 25.7408 24.7539 25.8936 24.5839C26.0313 24.4308 26.2111 24.3598 26.3744 24.3738L27.3598 24.4587C27.928 24.5077 28.5088 24.2293 28.7797 23.6803C28.9852 23.2638 29.1587 22.833 29.2989 22.3918C29.493 21.781 29.2363 21.1532 28.754 20.8036L28.0284 20.2777C27.8898 20.1773 27.7986 19.9945 27.8025 19.7767C27.8062 19.5694 27.801 19.3613 27.7866 19.1528C27.7716 18.9345 27.8538 18.7467 27.9875 18.6393L28.6799 18.0832C29.1452 17.7094 29.3702 17.0683 29.1451 16.4672C28.9847 16.0391 28.7904 15.618 28.5581 15.2035C28.2598 14.6712 27.6679 14.4221 27.1036 14.4983L26.1217 14.6309C25.9598 14.6527 25.7772 14.5908 25.6326 14.4455C25.4685 14.2805 25.2974 14.1236 25.1199 13.975C24.955 13.837 24.8778 13.649 24.8937 13.4783L24.9725 12.6332C25.0275 12.0431 24.7285 11.4423 24.1515 11.1802C23.7047 10.9772 23.2425 10.8071 22.7692 10.6713C22.1872 10.5044 21.5935 10.737 21.2433 11.1838L20.6623 11.9249C20.561 12.0541 20.3869 12.1364 20.1836 12.1316C19.9315 12.1257 19.6781 12.1316 19.4243 12.1496C19.2215 12.1641 19.0439 12.0905 18.9365 11.9669L18.3148 11.2513C17.9433 10.8237 17.3404 10.6211 16.7684 10.8149C16.3101 10.9702 15.8594 11.1601 15.4155 11.3888C14.8507 11.6798 14.5816 12.297 14.6675 12.8852L14.7896 13.7218C14.8144 13.8917 14.7468 14.084 14.5886 14.2307C14.4192 14.3878 14.258 14.5516 14.1052 14.7216C13.9675 14.8746 13.7877 14.9457 13.6244 14.9317L12.639 14.8468C12.0708 14.7978 11.49 15.0762 11.2191 15.6252C11.0136 16.0417 10.8401 16.4725 10.6999 16.9136C10.5058 17.5245 10.7625 18.1523 11.2448 18.5019L11.5352 18.1013L11.2448 18.5019L11.9704 19.0278C12.109 19.1282 12.2002 19.3109 12.1963 19.5288C12.1926 19.7361 12.1978 19.9442 12.2122 20.1527C12.2272 20.371 12.145 20.5587 12.0113 20.6662Z" stroke="#2A2A2A"/>
<path fill-rule="evenodd" clip-rule="evenodd" d="M20 23C21.6569 23 23 21.6569 23 20C23 18.3431 21.6569 17 20 17C18.3431 17 17 18.3431 17 20C17 21.6569 18.3431 23 20 23ZM20 24C22.2091 24 24 22.2091 24 20C24 17.7909 22.2091 16 20 16C17.7909 16 16 17.7909 16 20C16 22.2091 17.7909 24 20 24Z" fill="#2A2A2A"/>
</svg>
