<svg width="61" height="40" viewBox="0 0 61 40" fill="none" xmlns="http://www.w3.org/2000/svg">
<path d="M16.6758 3.36328H2.37841C1.61714 3.36328 1 3.98042 1 4.74169V19.0391C1 19.8004 1.61714 20.4175 2.37841 20.4175H16.6758C17.4371 20.4175 18.0542 19.8004 18.0542 19.0391V4.74169C18.0542 3.98042 17.4371 3.36328 16.6758 3.36328Z" fill="#EEFAF2" stroke="#2A2A2A" stroke-width="0.5"/>
<path d="M15.8945 12.1864C23.1164 -3.64811 38.9143 2.54761 38.9143 2.54761" stroke="#2A2A2A" stroke-opacity="0.5" stroke-linecap="round"/>
<path d="M24.6595 24.7364C23.8754 24.7364 23.2276 25.2137 22.9548 25.8957H22.8184V25.0433C22.8184 24.0204 22.0001 23.2022 20.9773 23.2022C19.9545 23.2022 19.1362 24.0204 19.1362 25.0433V23.7818C19.1362 22.759 18.318 21.9407 17.2951 21.9407C16.2723 21.9407 15.454 22.759 15.454 23.7818V17.6106C15.454 16.5878 14.6357 15.7695 13.6129 15.7695C12.5901 15.7695 11.7718 16.5878 11.7718 17.6106V25.1797C11.7718 25.1797 11.6695 29.5097 11.9082 31.7258C12.181 35.5103 15.3517 38.5107 19.2044 38.5107C23.2276 38.5107 26.4666 35.3057 26.5347 31.2826C26.5689 31.2485 26.5689 31.1803 26.5689 31.1121V28.3164V26.6457V26.5435C26.5007 25.5547 25.6824 24.7364 24.6595 24.7364Z" fill="#C7E3D0"/>
<path d="M22.9574 25.8982V26.4496H23.3306L23.4692 26.1029L22.9574 25.8982ZM22.8209 25.8982H22.2696V26.4496H22.8209V25.8982ZM11.7743 25.1822L12.3255 25.1952L12.3257 25.1887V25.1822H11.7743ZM11.9107 31.7283L12.4606 31.6887L12.4599 31.679L12.4589 31.6693L11.9107 31.7283ZM26.5372 31.2851L26.1474 30.8953L25.9897 31.0529L25.986 31.2758L26.5372 31.2851ZM26.5714 26.546H27.1227V26.527L27.1214 26.5081L26.5714 26.546ZM24.6621 24.1876C23.6413 24.1876 22.7977 24.8127 22.4454 25.6934L23.4692 26.1029C23.6625 25.6199 24.1145 25.2903 24.6621 25.2903V24.1876ZM22.9574 25.3468H22.8209V26.4496H22.9574V25.3468ZM23.3723 25.8982V25.0458H22.2696V25.8982H23.3723ZM23.3723 25.0458C23.3723 23.7185 22.3072 22.6534 20.9798 22.6534V23.7561C21.6982 23.7561 22.2696 24.3275 22.2696 25.0458H23.3723ZM20.9798 22.6534C19.6525 22.6534 18.5874 23.7185 18.5874 25.0458H19.6901C19.6901 24.3275 20.2615 23.7561 20.9798 23.7561V22.6534ZM19.6901 25.0458V23.7843H18.5874V25.0458H19.6901ZM19.6901 23.7843C19.6901 22.457 18.625 21.3918 17.2977 21.3918V22.4946C18.016 22.4946 18.5874 23.066 18.5874 23.7843H19.6901ZM17.2977 21.3918C15.9703 21.3918 14.9052 22.457 14.9052 23.7843H16.0079C16.0079 23.066 16.5793 22.4946 17.2977 22.4946V21.3918ZM16.0079 23.7843V17.6132H14.9052V23.7843H16.0079ZM16.0079 17.6132C16.0079 16.2858 14.9428 15.2207 13.6154 15.2207V16.3234C14.3337 16.3234 14.9052 16.8949 14.9052 17.6132H16.0079ZM13.6154 15.2207C12.2881 15.2207 11.2229 16.2858 11.2229 17.6132H12.3257C12.3257 16.8949 12.8971 16.3234 13.6154 16.3234V15.2207ZM11.2229 17.6132V25.1822H12.3257V17.6132H11.2229ZM11.7743 25.1822C11.2231 25.1692 11.2231 25.1692 11.2231 25.1692C11.2231 25.1693 11.2231 25.1694 11.2231 25.1695C11.2231 25.1696 11.2231 25.1698 11.2231 25.1701C11.2231 25.1707 11.223 25.1715 11.223 25.1726C11.223 25.1748 11.2229 25.178 11.2228 25.1823C11.2226 25.1907 11.2223 25.2032 11.222 25.2195C11.2213 25.2522 11.2203 25.3003 11.2191 25.3621C11.2168 25.4858 11.2137 25.6646 11.2108 25.8861C11.2049 26.3288 11.1995 26.9424 11.2017 27.626C11.2059 28.9852 11.2398 30.6477 11.3625 31.7874L12.4589 31.6693C12.343 30.5929 12.3086 28.9823 12.3044 27.6225C12.3022 26.9465 12.3075 26.3391 12.3134 25.9007C12.3163 25.6816 12.3193 25.5049 12.3216 25.3831C12.3228 25.3221 12.3238 25.275 12.3245 25.2432C12.3248 25.2272 12.3251 25.2152 12.3252 25.2071C12.3253 25.2031 12.3254 25.2001 12.3254 25.1981C12.3255 25.1971 12.3255 25.1963 12.3255 25.1959C12.3255 25.1956 12.3255 25.1954 12.3255 25.1953C12.3255 25.1953 12.3255 25.1953 12.3255 25.1952C12.3255 25.1952 12.3255 25.1952 11.7743 25.1822ZM11.3608 31.768C11.6541 35.8385 15.0628 39.0646 19.2069 39.0646V37.9618C15.6457 37.9618 12.7128 35.1871 12.4606 31.6887L11.3608 31.768ZM19.2069 39.0646C23.533 39.0646 27.0153 35.6164 27.0886 31.2945L25.986 31.2758C25.9229 35.0002 22.9272 37.9618 19.2069 37.9618V39.0646ZM26.9271 31.675C27.0714 31.5307 27.1031 31.3597 27.1129 31.2907C27.1238 31.2145 27.1227 31.1385 27.1227 31.1147H26.02C26.02 31.1334 26.02 31.1414 26.0197 31.1475C26.0196 31.1533 26.0195 31.1473 26.0213 31.1347C26.023 31.1229 26.0281 31.0923 26.0435 31.0528C26.0595 31.0119 26.0901 30.9525 26.1474 30.8953L26.9271 31.675ZM27.1227 31.1147V28.3189H26.02V31.1147H27.1227ZM27.1227 28.3189V26.6483H26.02V28.3189H27.1227ZM27.1227 26.6483V26.546H26.02V26.6483H27.1227ZM27.1214 26.5081C27.0344 25.2457 25.99 24.1876 24.6621 24.1876V25.2903C25.3798 25.2903 25.972 25.8688 26.0213 26.5839L27.1214 26.5081Z" fill="#2A2A2A"/>
<path d="M58.5782 3.36328H44.2808C43.5195 3.36328 42.9023 3.98042 42.9023 4.74169V19.0391C42.9023 19.8004 43.5195 20.4175 44.2808 20.4175H58.5782C59.3395 20.4175 59.9566 19.8004 59.9566 19.0391V4.74169C59.9566 3.98042 59.3395 3.36328 58.5782 3.36328Z" fill="#C7E3D0" fill-opacity="0.5" stroke="#2A2A2A" stroke-width="0.5"/>
</svg>
