<svg width="48" height="48" viewBox="0 0 48 48" fill="none" xmlns="http://www.w3.org/2000/svg">
<path fill-rule="evenodd" clip-rule="evenodd" d="M24.5918 27.7135C24.4915 27.8088 24.3696 27.8848 24.2303 27.9331L21.6334 28.8322C22.1919 29.9637 22.0095 31.2486 21.7848 31.8812L23.2758 34.9083L20.5072 35.8669L17.3403 30.3187L16.6279 30.5654C16.106 30.7461 15.5364 30.4695 15.3557 29.9476L15.1355 29.3114L12.9168 30.0796C12.3949 30.2603 11.8253 29.9837 11.6446 29.4618L10.6557 26.6056C10.475 26.0837 10.7515 25.5142 11.2734 25.3335L13.4921 24.5652L13.2712 23.9272C13.0905 23.4054 13.3671 22.8358 13.889 22.6551L20.7833 20.268L28.3357 11.1555L35.1419 29.5077L24.5918 27.7135Z" fill="#7FD1B9"/>
<circle cx="24.0098" cy="24.0098" r="22.0098" stroke="black" stroke-width="2"/>
<line x1="40.5815" y1="8.20353" x2="7.52519" y2="39.9635" stroke="black" stroke-width="2"/>
<path d="M13.9696 31.1037C13.7748 31.1037 13.5799 31.0639 13.3954 30.9842C13.0536 30.8348 12.7938 30.5658 12.6605 30.2271L10.0389 23.5135C9.90562 23.1748 9.91929 22.8063 10.0697 22.4742C10.2235 22.1422 10.5003 21.8898 10.849 21.7604L19.9374 18.4102L23.5536 27.6639L14.4686 31.0141C14.308 31.0738 14.1405 31.1037 13.9696 31.1037ZM19.346 19.6984L11.2181 22.6967C11.1258 22.7299 11.0506 22.7996 11.0096 22.8859C10.9686 22.9756 10.9652 23.0719 10.9994 23.1648L13.621 29.8785C13.6551 29.9682 13.7269 30.0412 13.8158 30.0811C13.9081 30.1209 14.0072 30.1242 14.1029 30.091L22.2308 27.0928L19.346 19.6984Z" fill="black"/>
<path d="M10.6125 30.7512C9.8742 30.7512 9.17693 30.3129 8.90007 29.6023L7.65252 26.4049C7.29363 25.4885 7.77214 24.4592 8.7155 24.1105L11.0431 23.2539L13.5929 29.775L11.2585 30.635C11.0466 30.7146 10.8278 30.7512 10.6125 30.7512ZM10.4416 24.5389L9.07439 25.0436C8.66082 25.1963 8.4489 25.6479 8.60613 26.0529L9.85369 29.2504C10.0109 29.6521 10.4758 29.858 10.8928 29.7053L12.2599 29.2006L10.4416 24.5389Z" fill="black"/>
<path d="M34.1113 29.7789C34.0635 29.7789 34.0156 29.7755 33.9678 29.7656L22.521 27.8166L19.0586 18.9646L26.291 10.1293C26.479 9.90015 26.7798 9.78394 27.0806 9.83042C27.3779 9.87691 27.6309 10.0728 27.7368 10.3484L34.8941 28.6732C35 28.9488 34.9487 29.2576 34.7573 29.4834C34.6001 29.6726 34.3574 29.7789 34.1113 29.7789ZM23.2695 26.9334L33.8242 28.7296L26.896 10.9959L20.2275 19.1439L23.2695 26.9334Z" fill="black"/>
<path d="M18.6655 36.9742C18.4126 36.9742 18.1699 36.8381 18.0503 36.6057L14.5469 29.9219L20.313 27.7969L20.9966 29.5434C21.2495 30.1941 21.1504 30.918 20.73 31.4824L20.3813 31.9506L22.0186 34.982C22.1108 35.1514 22.1245 35.3539 22.0527 35.5332C21.981 35.7125 21.8374 35.8553 21.6494 35.925L18.9116 36.9344C18.833 36.9609 18.7476 36.9742 18.6655 36.9742ZM15.979 30.4564L18.8262 35.8951L20.9351 35.1182L19.1748 31.8643L19.8994 30.8947C20.1182 30.6059 20.1694 30.2307 20.0361 29.8953L19.7183 29.0818L15.979 30.4564Z" fill="black"/>
<path d="M37.5982 17.7262L37.2344 16.7949L34.2019 17.9129L34.5657 18.8441L37.5982 17.7262Z" fill="black"/>
<path d="M34.1444 12.1445L33.4043 11.4551L31.157 13.7318L31.8971 14.4212L34.1444 12.1445Z" fill="black"/>
<path d="M38.4595 23.2002L35.2266 22.9453L35.1436 23.9381L38.3766 24.193L38.4595 23.2002Z" fill="black"/>
<path d="M18.5826 22.7262L18.2188 21.7949L13.1987 23.6456L13.5625 24.5769L18.5826 22.7262Z" fill="black"/>
</svg>
