<svg width="48" height="48" viewBox="0 0 48 48" fill="none" xmlns="http://www.w3.org/2000/svg">
<path d="M4 20L16 31.7091L4.42857 43" stroke="black"/>
<path d="M43 20L31 31.7091L42.5714 43" stroke="black"/>
<path d="M31 31.5L38 24.5V4H9V24.6471L16 31.5H31Z" stroke="black"/>
<path d="M38 15.5L43 20.5213V43.0001H4V20.5213L8.97872 15.5801" stroke="black"/>
<path fill-rule="evenodd" clip-rule="evenodd" d="M25.2516 19.5629C25.1404 19.6917 24.9948 19.7938 24.8225 19.8535L23.6379 20.2637C23.9734 20.9443 23.8638 21.7169 23.7286 22.0974L24.6257 23.9188L22.9599 24.4956L21.0548 21.158L21.001 21.1767C20.4791 21.3574 19.9096 21.0808 19.7288 20.5589L19.7261 20.5509L18.7654 20.8835C18.2436 21.0642 17.674 20.7876 17.4933 20.2657L17.1589 19.2999C16.9782 18.7781 17.2548 18.2085 17.7767 18.0278L18.7373 17.6952L18.7353 17.6893C18.5546 17.1674 18.8312 16.5979 19.353 16.4172L23.1195 15.1131L27.6657 9.62769L31.7609 20.67L25.2516 19.5629Z" fill="#7FD1B9"/>
<path d="M19.0694 20C18.9691 20 18.8689 19.9812 18.7739 19.9435C18.5981 19.8729 18.4645 19.7457 18.3959 19.5857L17.0472 16.4122C16.9786 16.2522 16.9856 16.0779 17.063 15.921C17.1421 15.7641 17.2845 15.6448 17.4639 15.5836L22.1396 14L24 18.3741L19.3261 19.9576C19.2434 19.9859 19.1573 20 19.0694 20ZM21.8354 14.6089L17.6538 16.0262C17.6063 16.0419 17.5676 16.0748 17.5465 16.1156C17.5254 16.158 17.5237 16.2035 17.5413 16.2474L18.89 19.4209C18.9076 19.4632 18.9445 19.4978 18.9902 19.5166C19.0377 19.5354 19.0887 19.537 19.1379 19.5213L23.3195 18.1041L21.8354 14.6089Z" fill="black"/>
<path d="M17.5245 20C17.159 20 16.8138 19.8246 16.6767 19.5403L16.0591 18.2608C15.8814 17.8942 16.1183 17.4823 16.5853 17.3428L17.7377 17L19 19.6094L17.8443 19.9535C17.7394 19.9854 17.6311 20 17.5245 20ZM17.4399 17.5142L16.763 17.7161C16.5582 17.7772 16.4533 17.9579 16.5312 18.12L17.1488 19.3995C17.2266 19.5602 17.4568 19.6426 17.6632 19.5815L18.3401 19.3795L17.4399 17.5142Z" fill="black"/>
<path d="M29.5786 20C29.5545 20 29.5304 19.9982 29.5063 19.9927L23.7432 18.9185L22 14.0398L25.6413 9.17027C25.736 9.044 25.8874 8.97995 26.0388 9.00557C26.1885 9.03119 26.3159 9.13916 26.3692 9.29105L29.9727 19.3906C30.026 19.5425 30.0002 19.7127 29.9039 19.8371C29.8247 19.9414 29.7025 20 29.5786 20ZM24.1201 18.4317L29.4341 19.4217L25.9459 9.64789L22.5885 14.1386L24.1201 18.4317Z" fill="black"/>
<path d="M21.2407 23.0514C21.1068 23.0516 20.9782 22.9848 20.9147 22.8707L19.0557 19.5889L22.1089 18.5419L22.4719 19.3996C22.6062 19.7192 22.554 20.0748 22.3316 20.3523L22.1472 20.5825L23.0158 22.071C23.0648 22.1541 23.0721 22.2536 23.0342 22.3417C22.9963 22.4298 22.9203 22.5001 22.8208 22.5344L21.3711 23.0317C21.3294 23.0448 21.2842 23.0514 21.2407 23.0514ZM19.8146 19.8508L21.3253 22.5212L22.442 22.1384L21.508 20.5407L21.8914 20.064C22.0071 19.922 22.0341 19.7377 21.9633 19.573L21.7945 19.1735L19.8146 19.8508Z" fill="black"/>
<path d="M31.5335 13.418L31.3438 12.918L29.7621 13.5182L29.9518 14.0182L31.5335 13.418Z" fill="black"/>
<path d="M29.7317 10.4229L29.3457 10.0527L28.1736 11.2752L28.5596 11.6453L29.7317 10.4229Z" fill="black"/>
<path d="M31.9831 16.3595L30.2969 16.2227L30.2536 16.7557L31.9399 16.8926L31.9831 16.3595Z" fill="black"/>
<path d="M21.6155 16.1055L21.4258 15.6055L18.8074 16.5992L18.9972 17.0992L21.6155 16.1055Z" fill="black"/>
</svg>
