<svg width="48" height="48" viewBox="0 0 48 48" fill="none" xmlns="http://www.w3.org/2000/svg">
<g clip-path="url(#clip0)">
<rect x="16.3477" y="14.2793" width="19.4415" height="25.5809" fill="#89A1EF"/>
<circle cx="24.01" cy="25.01" r="22.01" stroke="black" stroke-width="2"/>
<line x1="40.5815" y1="9.20353" x2="7.52488" y2="40.9638" stroke="black" stroke-width="2"/>
<path d="M26.5655 21.7593C26.5655 23.2692 25.3415 24.4933 23.8316 24.4933C22.3217 24.4933 21.0977 23.2692 21.0977 21.7593C21.0977 20.2494 22.3217 19.0254 23.8316 19.0254C25.3415 19.0254 26.5655 20.2494 26.5655 21.7593Z" stroke="black"/>
<path d="M23.8326 26.3501C24.834 26.3501 25.761 26.027 26.5157 25.4816C27.4033 26.1801 28.0113 27.2158 28.1465 28.3952H19.5187C19.654 27.2158 20.262 26.1801 21.1496 25.4816C21.9042 26.027 22.8313 26.3501 23.8326 26.3501Z" stroke="black"/>
<rect x="14.3047" y="12.5449" width="19.0932" height="23.6304" stroke="black"/>
<line x1="11.8594" y1="16.082" x2="15.7484" y2="16.082" stroke="black"/>
<line x1="11.8594" y1="21.2676" x2="15.7484" y2="21.2676" stroke="black"/>
<line x1="11.8594" y1="26.4531" x2="15.7484" y2="26.4531" stroke="black"/>
<line x1="11.8594" y1="31.6367" x2="15.7484" y2="31.6367" stroke="black"/>
</g>
<defs>
<clipPath id="clip0">
<rect width="48" height="48" fill="white"/>
</clipPath>
</defs>
</svg>
