<svg width="48" height="48" viewBox="0 0 48 48" fill="none" xmlns="http://www.w3.org/2000/svg">
<rect x="7" y="13.5" width="39" height="23.9902" rx="5" fill="#FFE500"/>
<rect x="4.5" y="11.5" width="38.6274" height="21.7647" rx="4.5" stroke="black"/>
<line x1="24.2344" y1="18.9316" x2="39.4108" y2="18.9316" stroke="black"/>
<line x1="24.2344" y1="25.6758" x2="39.4108" y2="25.6758" stroke="black"/>
<line x1="24.2344" y1="22.3047" x2="39.4108" y2="22.3047" stroke="black"/>
<path d="M19.0618 20.2653C19.0618 22.3124 17.4023 23.972 15.3551 23.972C13.308 23.972 11.6484 22.3124 11.6484 20.2653C11.6484 18.2181 13.308 16.5586 15.3551 16.5586C17.4023 16.5586 19.0618 18.2181 19.0618 20.2653Z" stroke="black"/>
<path d="M15.3576 26.0868C16.6673 26.0868 17.8768 25.6509 18.8497 24.9191C20.1267 25.8839 20.9913 27.363 21.1353 29.0479H9.57986C9.72379 27.363 10.5885 25.8839 11.8655 24.9191C12.8383 25.6509 14.0478 26.0868 15.3576 26.0868Z" stroke="black"/>
</svg>
