<svg width="55" height="62" viewBox="0 0 55 62" fill="none" xmlns="http://www.w3.org/2000/svg">
<path d="M21.9539 13.6762H18.3831C17.8846 13.6762 17.4805 14.0446 17.4805 14.4991V19.5026C17.4805 19.9567 17.8846 20.3251 18.3831 20.3251H21.9539C22.1148 20.3251 22.2727 20.3642 22.4117 20.4386L28.1331 25.2946C28.7346 25.6173 29.4931 25.2219 29.4931 24.5856V9.41576C29.4931 8.77941 28.7346 8.384 28.1331 8.70667L22.4117 13.5628C22.2727 13.6371 22.1148 13.6762 21.9539 13.6762Z" fill="white"/>
<path d="M31.5666 13.7031C33.5183 15.1103 33.6958 18.4525 31.5666 20.0356" stroke="white" stroke-width="2" stroke-linecap="round" stroke-linejoin="round"/>
<path d="M34.6578 10.9316C37.6436 13.5344 37.915 19.7159 34.6577 22.644" stroke="white" stroke-width="2" stroke-linecap="round" stroke-linejoin="round"/>
<circle cx="27.2393" cy="16.7901" r="15.0069" stroke="#D8EFFE" stroke-width="2"/>
<path fill-rule="evenodd" clip-rule="evenodd" d="M37.5748 4.5543C34.6801 2.0847 30.9087 0.639314 26.8477 0.728516L26.9877 2.7263C30.4164 2.67465 33.6042 3.87259 36.0877 5.9174L37.5748 4.5543Z" fill="white"/>
<g filter="url(#filter0_d)">
<path d="M35.4375 40.6055L35.4375 54.6603" stroke="white"/>
</g>
<line x1="0.800781" y1="56.5039" x2="53.6777" y2="56.5039" stroke="#2A2A2A" stroke-linecap="round"/>
<path d="M16.8843 50.3755C16.8443 50.4488 16.7826 50.4855 16.6993 50.4855C16.6493 50.4855 16.5926 50.4671 16.5293 50.4305C16.466 50.3938 16.3876 50.3538 16.2943 50.3105C16.2043 50.2638 16.096 50.2221 15.9693 50.1855C15.8426 50.1455 15.6926 50.1255 15.5193 50.1255C15.3693 50.1255 15.2343 50.1455 15.1143 50.1855C14.9943 50.2221 14.891 50.2738 14.8043 50.3405C14.721 50.4071 14.656 50.4855 14.6093 50.5755C14.566 50.6621 14.5443 50.7571 14.5443 50.8605C14.5443 50.9905 14.581 51.0988 14.6543 51.1855C14.731 51.2721 14.831 51.3471 14.9543 51.4105C15.0776 51.4738 15.2176 51.5305 15.3743 51.5805C15.531 51.6271 15.691 51.6788 15.8543 51.7355C16.021 51.7888 16.1826 51.8488 16.3393 51.9155C16.496 51.9821 16.636 52.0655 16.7593 52.1655C16.8826 52.2655 16.981 52.3888 17.0543 52.5355C17.131 52.6788 17.1693 52.8521 17.1693 53.0555C17.1693 53.2888 17.1276 53.5055 17.0443 53.7055C16.961 53.9021 16.8376 54.0738 16.6743 54.2205C16.511 54.3638 16.311 54.4771 16.0743 54.5605C15.8376 54.6438 15.5643 54.6855 15.2543 54.6855C14.901 54.6855 14.581 54.6288 14.2943 54.5155C14.0076 54.3988 13.7643 54.2505 13.5643 54.0705L13.7743 53.7305C13.801 53.6871 13.8326 53.6538 13.8693 53.6305C13.906 53.6071 13.9526 53.5955 14.0093 53.5955C14.0693 53.5955 14.1326 53.6188 14.1993 53.6655C14.266 53.7121 14.346 53.7638 14.4393 53.8205C14.536 53.8771 14.6526 53.9288 14.7893 53.9755C14.926 54.0221 15.096 54.0455 15.2993 54.0455C15.4726 54.0455 15.6243 54.0238 15.7543 53.9805C15.8843 53.9338 15.9926 53.8721 16.0793 53.7955C16.166 53.7188 16.2293 53.6305 16.2693 53.5305C16.3126 53.4305 16.3343 53.3238 16.3343 53.2105C16.3343 53.0705 16.296 52.9555 16.2193 52.8655C16.146 52.7721 16.0476 52.6938 15.9243 52.6305C15.801 52.5638 15.6593 52.5071 15.4993 52.4605C15.3426 52.4105 15.181 52.3588 15.0143 52.3055C14.851 52.2521 14.6893 52.1921 14.5293 52.1255C14.3726 52.0555 14.2326 51.9688 14.1093 51.8655C13.986 51.7621 13.886 51.6355 13.8093 51.4855C13.736 51.3321 13.6993 51.1471 13.6993 50.9305C13.6993 50.7371 13.7393 50.5521 13.8193 50.3755C13.8993 50.1955 14.016 50.0388 14.1693 49.9055C14.3226 49.7688 14.511 49.6605 14.7343 49.5805C14.9576 49.5005 15.2126 49.4605 15.4993 49.4605C15.8326 49.4605 16.131 49.5138 16.3943 49.6205C16.661 49.7238 16.891 49.8671 17.0843 50.0505L16.8843 50.3755ZM19.5555 53.3855C19.7188 53.6055 19.8971 53.7605 20.0905 53.8505C20.2838 53.9405 20.5005 53.9855 20.7405 53.9855C21.2138 53.9855 21.5771 53.8171 21.8305 53.4805C22.0838 53.1438 22.2105 52.6638 22.2105 52.0405C22.2105 51.7105 22.1805 51.4271 22.1205 51.1905C22.0638 50.9538 21.9805 50.7605 21.8705 50.6105C21.7605 50.4571 21.6255 50.3455 21.4655 50.2755C21.3055 50.2055 21.1238 50.1705 20.9205 50.1705C20.6305 50.1705 20.3755 50.2371 20.1555 50.3705C19.9388 50.5038 19.7388 50.6921 19.5555 50.9355V53.3855ZM19.5105 50.3255C19.7238 50.0621 19.9705 49.8505 20.2505 49.6905C20.5305 49.5305 20.8505 49.4505 21.2105 49.4505C21.5038 49.4505 21.7688 49.5071 22.0055 49.6205C22.2421 49.7305 22.4438 49.8955 22.6105 50.1155C22.7771 50.3321 22.9055 50.6021 22.9955 50.9255C23.0855 51.2488 23.1305 51.6205 23.1305 52.0405C23.1305 52.4138 23.0805 52.7621 22.9805 53.0855C22.8805 53.4055 22.7355 53.6838 22.5455 53.9205C22.3588 54.1538 22.1288 54.3388 21.8555 54.4755C21.5855 54.6088 21.2805 54.6755 20.9405 54.6755C20.6305 54.6755 20.3638 54.6238 20.1405 54.5205C19.9205 54.4138 19.7255 54.2671 19.5555 54.0805V56.3205H18.6605V49.5405H19.1955C19.3221 49.5405 19.4005 49.6021 19.4305 49.7255L19.5105 50.3255ZM28.0559 51.5205C28.0559 51.3138 28.0259 51.1255 27.9659 50.9555C27.9093 50.7821 27.8243 50.6338 27.7109 50.5105C27.6009 50.3838 27.4659 50.2871 27.3059 50.2205C27.1459 50.1505 26.9643 50.1155 26.7609 50.1155C26.3343 50.1155 25.9959 50.2405 25.7459 50.4905C25.4993 50.7371 25.3459 51.0805 25.2859 51.5205H28.0559ZM28.7759 53.8955C28.6659 54.0288 28.5343 54.1455 28.3809 54.2455C28.2276 54.3421 28.0626 54.4221 27.8859 54.4855C27.7126 54.5488 27.5326 54.5955 27.3459 54.6255C27.1593 54.6588 26.9743 54.6755 26.7909 54.6755C26.4409 54.6755 26.1176 54.6171 25.8209 54.5005C25.5276 54.3805 25.2726 54.2071 25.0559 53.9805C24.8426 53.7505 24.6759 53.4671 24.5559 53.1305C24.4359 52.7938 24.3759 52.4071 24.3759 51.9705C24.3759 51.6171 24.4293 51.2871 24.5359 50.9805C24.6459 50.6738 24.8026 50.4088 25.0059 50.1855C25.2093 49.9588 25.4576 49.7821 25.7509 49.6555C26.0443 49.5255 26.3743 49.4605 26.7409 49.4605C27.0443 49.4605 27.3243 49.5121 27.5809 49.6155C27.8409 49.7155 28.0643 49.8621 28.2509 50.0555C28.4409 50.2455 28.5893 50.4821 28.6959 50.7655C28.8026 51.0455 28.8559 51.3655 28.8559 51.7255C28.8559 51.8655 28.8409 51.9588 28.8109 52.0055C28.7809 52.0521 28.7243 52.0755 28.6409 52.0755H25.2559C25.2659 52.3955 25.3093 52.6738 25.3859 52.9105C25.4659 53.1471 25.5759 53.3455 25.7159 53.5055C25.8559 53.6621 26.0226 53.7805 26.2159 53.8605C26.4093 53.9371 26.6259 53.9755 26.8659 53.9755C27.0893 53.9755 27.2809 53.9505 27.4409 53.9005C27.6043 53.8471 27.7443 53.7905 27.8609 53.7305C27.9776 53.6705 28.0743 53.6155 28.1509 53.5655C28.2309 53.5121 28.2993 53.4855 28.3559 53.4855C28.4293 53.4855 28.4859 53.5138 28.5259 53.5705L28.7759 53.8955ZM31.2691 47.2405V54.6055H30.3791V47.2405H31.2691ZM34.0324 47.2405V54.6055H33.1424V47.2405H34.0324Z" fill="#2A2A2A"/>
<defs>
<filter id="filter0_d" x="30.9375" y="36.6055" width="9" height="22.0548" filterUnits="userSpaceOnUse" color-interpolation-filters="sRGB">
<feFlood flood-opacity="0" result="BackgroundImageFix"/>
<feColorMatrix in="SourceAlpha" type="matrix" values="0 0 0 0 0 0 0 0 0 0 0 0 0 0 0 0 0 0 127 0"/>
<feOffset/>
<feGaussianBlur stdDeviation="2"/>
<feColorMatrix type="matrix" values="0 0 0 0 0.603922 0 0 0 0 0.8 0 0 0 0 0.670588 0 0 0 0.25 0"/>
<feBlend mode="normal" in2="BackgroundImageFix" result="effect1_dropShadow"/>
<feBlend mode="normal" in="SourceGraphic" in2="effect1_dropShadow" result="shape"/>
</filter>
</defs>
</svg>
