<svg width="48" height="49" viewBox="0 0 48 49" fill="none" xmlns="http://www.w3.org/2000/svg">
<path fill-rule="evenodd" clip-rule="evenodd" d="M35.02 27.6166C39.9246 27.6166 43.9005 23.6406 43.9005 18.736C43.9005 13.8314 39.9246 9.85547 35.02 9.85547C30.1154 9.85547 26.1394 13.8314 26.1394 18.736C26.1394 20.671 26.7583 22.4614 27.8089 23.9202L25.1953 28.5612L32.2015 27.16C33.087 27.4561 34.0348 27.6166 35.02 27.6166Z" fill="#89A1EF"/>
<path d="M21.2358 31.8047C19.9317 32.9302 18.2353 33.6133 16.3815 33.6133C14.5276 33.6133 12.8313 32.9302 11.5272 31.8047C9.14696 33.3807 7.57617 36.0817 7.57617 39.1505H25.1868C25.1868 36.0817 23.616 33.3807 21.2358 31.8047Z" fill="#89A1EF"/>
<circle cx="15.8267" cy="25.9126" r="5.89308" fill="#89A1EF"/>
<path d="M19.6493 24.0473C19.6493 27.1218 17.1569 29.6142 14.0825 29.6142C11.008 29.6142 8.51562 27.1218 8.51562 24.0473C8.51562 20.9728 11.008 18.4805 14.0825 18.4805C17.1569 18.4805 19.6493 20.9728 19.6493 24.0473Z" stroke="black"/>
<path d="M14.0843 32.2195C15.9822 32.2195 17.7301 31.5677 19.1182 30.4796C21.1436 31.9486 22.5018 34.2786 22.6543 36.932H5.51432C5.66678 34.2786 7.02497 31.9486 9.05045 30.4796C10.4385 31.5677 12.1864 32.2195 14.0843 32.2195Z" stroke="black"/>
<path d="M25.5434 22.5265L25.994 22.7433L26.1221 22.4771L25.9507 22.2364L25.5434 22.5265ZM23.1621 27.4747L22.7116 27.2579L22.2536 28.2094L23.2799 27.9606L23.1621 27.4747ZM30.0007 25.8169L30.1571 25.342L30.0216 25.2973L29.8829 25.3309L30.0007 25.8169ZM41.1625 17.3805C41.1625 22.009 37.4104 25.7611 32.782 25.7611V26.7611C37.9627 26.7611 42.1625 22.5613 42.1625 17.3805H41.1625ZM32.782 9C37.4104 9 41.1625 12.7521 41.1625 17.3805H42.1625C42.1625 12.1998 37.9627 8 32.782 8V9ZM24.4014 17.3805C24.4014 12.7521 28.1535 9 32.782 9V8C27.6012 8 23.4014 12.1998 23.4014 17.3805H24.4014ZM25.9507 22.2364C24.9751 20.8665 24.4014 19.1913 24.4014 17.3805H23.4014C23.4014 19.406 24.0439 21.2829 25.1362 22.8165L25.9507 22.2364ZM23.6127 27.6915L25.994 22.7433L25.0929 22.3096L22.7116 27.2579L23.6127 27.6915ZM29.8829 25.3309L23.0443 26.9888L23.2799 27.9606L30.1185 26.3028L29.8829 25.3309ZM32.782 25.7611C31.8644 25.7611 30.9822 25.6138 30.1571 25.342L29.8442 26.2917C30.7689 26.5964 31.7567 26.7611 32.782 26.7611V25.7611Z" fill="black"/>
<path d="M31.293 15.1995C31.3894 15.119 31.4952 15.0426 31.6103 14.9704C31.7286 14.8982 31.8561 14.8343 31.993 14.7787C32.133 14.7232 32.2824 14.6802 32.4411 14.6496C32.6029 14.6163 32.7771 14.5996 32.9638 14.5996C33.2096 14.5996 33.4367 14.6315 33.6452 14.6954C33.8567 14.7593 34.0387 14.8496 34.1912 14.9662C34.3437 15.0829 34.4634 15.2245 34.5506 15.3911C34.6377 15.5578 34.6812 15.7452 34.6812 15.9535C34.6812 16.1646 34.6455 16.3465 34.5739 16.4993C34.5055 16.652 34.4168 16.7867 34.3079 16.9034C34.2021 17.0172 34.0854 17.1172 33.9579 17.2033C33.8334 17.2866 33.7152 17.3658 33.6032 17.4408C33.4911 17.5157 33.3947 17.5907 33.3138 17.6657C33.236 17.7407 33.1909 17.824 33.1785 17.9157L33.0944 18.5531H32.5251L32.4691 17.8615C32.4566 17.7365 32.4831 17.6282 32.5484 17.5366C32.6137 17.4422 32.6993 17.3547 32.8051 17.2741C32.9109 17.1908 33.0276 17.1103 33.1551 17.0325C33.2827 16.952 33.4009 16.8631 33.5098 16.7659C33.6218 16.6687 33.7152 16.559 33.7898 16.4368C33.8645 16.3118 33.9018 16.1632 33.9018 15.991C33.9018 15.8716 33.8754 15.7633 33.8225 15.6661C33.7696 15.5689 33.6981 15.4869 33.6078 15.4203C33.5176 15.3509 33.4103 15.2981 33.2858 15.262C33.1645 15.2259 33.0338 15.2078 32.8938 15.2078C32.704 15.2078 32.5406 15.2287 32.4037 15.2703C32.2699 15.312 32.1564 15.3578 32.063 15.4078C31.9697 15.4578 31.8935 15.5036 31.8343 15.5453C31.7783 15.5869 31.7317 15.6078 31.6943 15.6078C31.6166 15.6078 31.5559 15.5758 31.5123 15.5119L31.293 15.1995ZM32.203 20.1778C32.203 20.1056 32.217 20.0375 32.245 19.9736C32.2762 19.9098 32.3166 19.8542 32.3664 19.807C32.4193 19.7598 32.4815 19.7223 32.5531 19.6945C32.6246 19.6667 32.7009 19.6529 32.7818 19.6529C32.8627 19.6529 32.9389 19.6667 33.0104 19.6945C33.082 19.7223 33.1442 19.7598 33.1971 19.807C33.25 19.8542 33.292 19.9098 33.3231 19.9736C33.3542 20.0375 33.3698 20.1056 33.3698 20.1778C33.3698 20.2528 33.3542 20.3222 33.3231 20.3861C33.292 20.4472 33.25 20.5013 33.1971 20.5485C33.1442 20.5957 33.082 20.6318 33.0104 20.6568C32.9389 20.6846 32.8627 20.6985 32.7818 20.6985C32.7009 20.6985 32.6246 20.6846 32.5531 20.6568C32.4815 20.6318 32.4193 20.5957 32.3664 20.5485C32.3166 20.5013 32.2762 20.4472 32.245 20.3861C32.217 20.3222 32.203 20.2528 32.203 20.1778Z" fill="black"/>
</svg>
