<svg width="32" height="56" viewBox="0 0 32 56" fill="none" xmlns="http://www.w3.org/2000/svg">
<path d="M21.714 26.2861H1.14258V54.8576H21.714V26.2861Z" fill="#8FD6FF"/>
<path d="M30.858 27.4287H20.5723V53.7144H30.858V27.4287Z" fill="#FF9D94"/>
<path d="M1.14258 2.28613L16.5712 15.429L30.2854 2.85756V26.8576H1.14258V2.28613Z" fill="#F9DC5C"/>
<path fill-rule="evenodd" clip-rule="evenodd" d="M31.2066 55.6925H28.9209H3.07477H0.789062V53.4068L0.789067 6.02214V0.826172L4.6193 4.33722L15.9979 14.7676L27.3764 4.33722L31.2066 0.826176V6.02214V53.4068V55.6925ZM15.9979 17.8683L5.3605 8.11738L3.07479 6.02214V9.12286V25.2729H28.9188V27.5586H22.5951V53.4047H20.3093V27.5586H3.07479L3.07477 51.1211V53.4068H5.36049H26.6352H28.9209V51.1211V9.12287V6.02214L26.6352 8.11738L15.9979 17.8683Z" fill="#282525"/>
</svg>
