<svg width="40" height="40" viewBox="0 0 40 40" fill="none" xmlns="http://www.w3.org/2000/svg">
<path d="M26.1227 23.1717H26.0622C26.0177 23.1722 25.9735 23.1637 25.9323 23.1466C25.891 23.1294 25.8535 23.1041 25.8219 23.072C25.7902 23.0399 25.7651 23.0016 25.748 22.9595C25.7308 22.9174 25.722 22.8722 25.722 22.8265V19.0679C25.7207 17.6052 25.1904 16.1951 24.2337 15.1108C23.2771 14.0265 21.9623 13.3454 20.5441 13.1993V11.5818C20.5441 11.4275 20.4844 11.2795 20.3781 11.1704C20.2717 11.0613 20.1275 11 19.9772 11C19.8268 11 19.6826 11.0613 19.5763 11.1704C19.47 11.2795 19.4103 11.4275 19.4103 11.5818V13.1993C17.9921 13.3454 16.6773 14.0265 15.7207 15.1108C14.764 16.1951 14.2337 17.6052 14.2324 19.0679V22.8265C14.2324 22.8722 14.2235 22.9174 14.2064 22.9595C14.1893 23.0016 14.1641 23.0399 14.1325 23.072C14.1009 23.1041 14.0633 23.1294 14.0221 23.1466C13.9808 23.1637 13.9367 23.1722 13.8922 23.1717C13.4163 23.1615 12.9547 23.3394 12.603 23.6686C12.2513 23.9978 12.0363 24.4531 12.0025 24.9405C11.9896 25.1937 12.0271 25.4469 12.1127 25.6848C12.1983 25.9227 12.3301 26.1402 12.5001 26.3242C12.6702 26.5081 12.8749 26.6547 13.1019 26.7549C13.3289 26.8551 13.5733 26.9068 13.8204 26.907H17.4374C17.5644 27.5003 17.885 28.0312 18.3462 28.4118C18.8075 28.7925 19.3816 29 19.9734 29C20.5653 29 21.1394 28.7925 21.6006 28.4118C22.0618 28.0312 22.3825 27.5003 22.5095 26.907H26.1793C26.4266 26.9062 26.6712 26.8543 26.8985 26.7543C27.1257 26.6543 27.3311 26.5084 27.5022 26.3252C27.6721 26.141 27.8036 25.9233 27.8887 25.6852C27.9739 25.4471 28.0108 25.1937 27.9973 24.9405C27.9636 24.4559 27.7507 24.0028 27.4022 23.674C27.0537 23.3452 26.596 23.1655 26.1227 23.1717ZM19.9885 27.8263C19.6994 27.8264 19.4168 27.7389 19.176 27.5746C18.9353 27.4104 18.7472 27.1767 18.6355 26.9031H21.3416C21.2304 27.1775 21.0426 27.4119 20.8018 27.5769C20.561 27.7418 20.278 27.83 19.9885 27.8302V27.8263ZM26.6934 25.499C26.6295 25.5691 26.5522 25.6248 26.4663 25.6629C26.3805 25.7009 26.288 25.7204 26.1945 25.7201H13.8355C13.7421 25.7203 13.6496 25.7008 13.5637 25.6629C13.4779 25.625 13.4006 25.5694 13.3365 25.4996C13.2724 25.4298 13.2229 25.3473 13.1911 25.2571C13.1592 25.167 13.1457 25.0711 13.1514 24.9754C13.1731 24.7875 13.263 24.615 13.403 24.4921C13.5431 24.3692 13.7232 24.3049 13.9073 24.3121C14.2976 24.3121 14.6719 24.1532 14.9483 23.8704C15.2246 23.5875 15.3803 23.2038 15.3813 22.8032V19.0679C15.3813 17.8129 15.8671 16.6092 16.7318 15.7218C17.5966 14.8343 18.7694 14.3358 19.9923 14.3358C21.2152 14.3358 22.388 14.8343 23.2528 15.7218C24.1175 16.6092 24.6033 17.8129 24.6033 19.0679V22.8265C24.6043 23.2244 24.7579 23.6058 25.031 23.8882C25.304 24.1706 25.6745 24.3313 26.0622 24.3354H26.1113C26.2955 24.3282 26.4755 24.3925 26.6156 24.5154C26.7557 24.6383 26.8455 24.8108 26.8672 24.9986C26.8745 25.0935 26.8629 25.1888 26.833 25.2789C26.8031 25.3689 26.7556 25.4518 26.6934 25.5223V25.499Z" fill="#2A2A2A"/>
</svg>
