<?xml version="1.0" encoding="utf-8"?>
<svg width="116" height="70" viewBox="0 0 116 70" fill="none" xmlns="http://www.w3.org/2000/svg">
  <path d="M114.968 34.3091C110.257 41.1042 106.54 38.6977 104.417 36.8355C103.987 36.4583 103.982 35.7862 104.407 35.404C110.182 30.2167 113.76 32.9982 114.469 33.4571C115.126 33.8817 115.017 34.2126 114.984 34.2823C114.98 34.2917 114.974 34.3006 114.968 34.3091Z" fill="white"/>
  <path d="M115.493 23.6167C113.359 31.6048 109.047 30.598 106.419 29.5638C105.887 29.3543 105.655 28.7235 105.926 28.2199C109.605 21.3847 113.913 22.7917 114.736 22.9836C115.497 23.1611 115.507 23.5091 115.5 23.5859C115.499 23.5963 115.496 23.6067 115.493 23.6167Z" fill="white"/>
  <path d="M113.218 11.4986C114.033 19.7265 109.642 20.3024 106.819 20.2593C106.247 20.2506 105.807 19.7419 105.884 19.175C106.921 11.4823 111.449 11.2826 112.286 11.1726C113.061 11.0707 113.193 11.393 113.213 11.4675C113.216 11.4776 113.217 11.4883 113.218 11.4986Z" fill="white"/>
  <path d="M110.425 43.7629C104.102 49.0894 101.143 45.7944 99.5811 43.4419C99.2648 42.9654 99.4358 42.3153 99.9464 42.0577C106.877 38.5613 109.603 42.1817 110.167 42.8102C110.69 43.3916 110.498 43.6827 110.448 43.7413C110.442 43.7492 110.433 43.7562 110.425 43.7629Z" fill="white"/>
  <path d="M97.8511 17.582C95.9421 25.2993 100.913 26.6694 104.098 27.1723C104.69 27.2658 105.227 26.8007 105.203 26.2016C104.902 18.7865 99.8676 17.7184 98.941 17.4508C98.0941 17.2063 97.8991 17.4733 97.863 17.546C97.8574 17.5572 97.8541 17.5699 97.8511 17.582Z" fill="white"/>
  <path d="M94.8633 6.81326C95.0359 14.2226 100.158 14.2812 103.366 13.968C103.973 13.9088 104.377 13.3065 104.179 12.7296C101.937 6.19479 96.841 6.44572 95.8812 6.42833C95.0087 6.41252 94.8837 6.69504 94.8658 6.77292C94.8629 6.78595 94.863 6.79989 94.8633 6.81326Z" fill="white"/>
  <path d="M95.6208 27.7284C93.239 34.7465 98.03 36.5603 101.15 37.3675C101.741 37.5203 102.327 37.0934 102.339 36.4836C102.477 29.576 97.6044 28.0622 96.7089 27.7163C95.8949 27.4019 95.6805 27.6243 95.637 27.6913C95.6297 27.7026 95.6251 27.7157 95.6208 27.7284Z" fill="white"/>
  <path d="M84.4115 50.0226C95.1942 47.402 113.561 33.9808 100.767 1.25971" stroke="black" stroke-width="0.5" stroke-linecap="round" stroke-linejoin="round"/>
  <path d="M114.479 32.6275C109.769 39.4226 106.051 37.0161 103.929 35.1539C103.499 34.7767 103.494 34.1045 103.919 33.7223C109.694 28.5351 113.272 31.3165 113.981 31.7755C114.637 32.2 114.529 32.531 114.496 32.6006C114.491 32.61 114.485 32.6189 114.479 32.6275Z" stroke="black" stroke-width="0.5" stroke-linecap="round" stroke-linejoin="round"/>
  <path d="M115.005 21.9351C112.871 29.9232 108.559 28.9164 105.931 27.8822C105.399 27.6727 105.167 27.0419 105.438 26.5382C109.117 19.7031 113.425 21.1101 114.248 21.3019C115.009 21.4794 115.019 21.8275 115.011 21.9043C115.01 21.9146 115.008 21.925 115.005 21.9351Z" stroke="black" stroke-width="0.5" stroke-linecap="round" stroke-linejoin="round"/>
  <path d="M112.732 9.81699C113.547 18.0449 109.156 18.6207 106.332 18.5777C105.76 18.569 105.321 18.0602 105.398 17.4934C106.435 9.80061 110.962 9.60097 111.8 9.49091C112.575 9.38909 112.707 9.71138 112.727 9.78589C112.73 9.79594 112.731 9.80663 112.732 9.81699Z" stroke="black" stroke-width="0.5" stroke-linecap="round" stroke-linejoin="round"/>
  <path d="M109.939 42.0813C103.615 47.4078 100.657 44.1128 99.0948 41.7602C98.7784 41.2837 98.9494 40.6337 99.4601 40.376C106.391 36.8797 109.116 40.5001 109.681 41.1286C110.203 41.71 110.012 42.0011 109.962 42.0597C109.955 42.0676 109.947 42.0746 109.939 42.0813Z" stroke="black" stroke-width="0.5" stroke-linecap="round" stroke-linejoin="round"/>
  <path d="M97.3628 15.9004C95.4538 23.6177 100.425 24.9878 103.61 25.4907C104.202 25.5842 104.739 25.1191 104.715 24.52C104.414 17.1048 99.3793 16.0367 98.4528 15.7692C97.6059 15.5247 97.4108 15.7916 97.3747 15.8643C97.3691 15.8755 97.3658 15.8882 97.3628 15.9004Z" stroke="black" stroke-width="0.5" stroke-linecap="round" stroke-linejoin="round"/>
  <path d="M94.377 5.13162C94.5496 12.5409 99.672 12.5995 102.88 12.2864C103.487 12.2271 103.891 11.6249 103.693 11.0479C101.45 4.51315 96.3547 4.76408 95.3948 4.74669C94.5223 4.73088 94.3974 5.0134 94.3795 5.09128C94.3765 5.10431 94.3767 5.11825 94.377 5.13162Z" stroke="black" stroke-width="0.5" stroke-linecap="round" stroke-linejoin="round"/>
  <path d="M95.1345 26.0467C92.7527 33.0649 97.5436 34.8786 100.664 35.6859C101.254 35.8386 101.841 35.4118 101.853 34.8019C101.99 27.8944 97.1181 26.3805 96.2226 26.0346C95.4086 25.7202 95.1942 25.9427 95.1507 26.0097C95.1434 26.0209 95.1388 26.0341 95.1345 26.0467Z" stroke="black" stroke-width="0.5" stroke-linecap="round" stroke-linejoin="round"/>
  <path d="M0.627979 34.3072C5.33854 41.1023 9.05614 38.6958 11.1788 36.8336C11.6088 36.4564 11.6137 35.7842 11.1882 35.402C5.41348 30.2148 1.83565 32.9962 1.1263 33.4552C0.470071 33.8797 0.578459 34.2106 0.611537 34.2803C0.616001 34.2897 0.622047 34.2986 0.627979 34.3072Z" fill="white"/>
  <path d="M0.102535 23.6148C2.23632 31.6029 6.54886 30.5961 9.17638 29.5619C9.7086 29.3524 9.9407 28.7215 9.6696 28.2179C5.99041 21.3828 1.68252 22.7897 0.859733 22.9816C0.0985604 23.1591 0.0885953 23.5072 0.0961479 23.584C0.0971664 23.5943 0.099848 23.6047 0.102535 23.6148Z" fill="white"/>
  <path d="M2.37765 11.4967C1.56277 19.7246 5.95366 20.3004 8.77708 20.2574C9.34897 20.2487 9.78829 19.7399 9.71184 19.1731C8.67437 11.4803 4.14694 11.2807 3.30928 11.1706C2.53434 11.0688 2.40248 11.3911 2.38253 11.4656C2.37983 11.4756 2.37868 11.4863 2.37765 11.4967Z" fill="white"/>
  <path d="M5.17027 43.761C11.4941 49.0875 14.4529 45.7925 16.0146 43.4399C16.3309 42.9634 16.1599 42.3133 15.6493 42.0557C8.71885 38.5594 5.99304 42.1798 5.42841 42.8083C4.90606 43.3897 5.09723 43.6807 5.14738 43.7393C5.15415 43.7473 5.16231 43.7543 5.17027 43.761Z" fill="white"/>
  <path d="M17.7446 17.5801C19.6536 25.2974 14.6828 26.6675 11.4977 27.1704C10.9054 27.2639 10.3685 26.7988 10.3928 26.1997C10.6939 18.7845 15.7281 17.7164 16.6547 17.4489C17.5016 17.2044 17.6966 17.4713 17.7327 17.544C17.7383 17.5552 17.7416 17.5679 17.7446 17.5801Z" fill="white"/>
  <path d="M20.7324 6.81131C20.5598 14.2206 15.4373 14.2792 12.2297 13.9661C11.6226 13.9068 11.2183 13.3046 11.4163 12.7276C13.659 6.19283 18.7547 6.44377 19.7145 6.42637C20.587 6.41056 20.712 6.69309 20.7299 6.77097C20.7328 6.784 20.7327 6.79794 20.7324 6.81131Z" fill="white"/>
  <path d="M19.9749 27.7264C22.3567 34.7446 17.5657 36.5583 14.4456 37.3655C13.855 37.5183 13.2685 37.0915 13.2564 36.4816C13.1191 29.5741 17.9913 28.0602 18.8868 27.7143C19.7008 27.3999 19.9152 27.6224 19.9587 27.6894C19.966 27.7006 19.9706 27.7138 19.9749 27.7264Z" fill="white"/>
  <path d="M31.1842 50.0226C20.4015 47.402 2.0346 33.9808 14.8283 1.25971" stroke="black" stroke-width="0.5" stroke-linecap="round" stroke-linejoin="round"/>
  <path d="M1.11431 32.6275C5.82487 39.4226 9.54246 37.0161 11.6651 35.1539C12.0951 34.7767 12.1001 34.1045 11.6746 33.7223C5.89981 28.5351 2.32198 31.3165 1.61263 31.7755C0.9564 32.2 1.06479 32.531 1.09787 32.6006C1.10233 32.61 1.10838 32.6189 1.11431 32.6275Z" stroke="black" stroke-width="0.5" stroke-linecap="round" stroke-linejoin="round"/>
  <path d="M0.590816 21.9351C2.72461 29.9232 7.03714 28.9164 9.66466 27.8822C10.1969 27.6727 10.429 27.0419 10.1579 26.5382C6.47869 19.7031 2.1708 21.1101 1.34801 21.3019C0.586842 21.4794 0.576877 21.8275 0.584429 21.9043C0.585448 21.9146 0.588129 21.925 0.590816 21.9351Z" stroke="black" stroke-width="0.5" stroke-linecap="round" stroke-linejoin="round"/>
  <path d="M2.86398 9.81699C2.0491 18.0449 6.43999 18.6207 9.26341 18.5777C9.8353 18.569 10.2746 18.0602 10.1982 17.4934C9.1607 9.80061 4.63327 9.60097 3.79561 9.49091C3.02067 9.38909 2.88881 9.71138 2.86886 9.78589C2.86616 9.79594 2.86501 9.80663 2.86398 9.81699Z" stroke="black" stroke-width="0.5" stroke-linecap="round" stroke-linejoin="round"/>
  <path d="M5.6566 42.0813C11.9804 47.4078 14.9392 44.1128 16.5009 41.7602C16.8173 41.2837 16.6463 40.6337 16.1356 40.376C9.20518 36.8797 6.47937 40.5001 5.91474 41.1286C5.39239 41.71 5.58356 42.0011 5.63371 42.0597C5.64047 42.0676 5.64863 42.0746 5.6566 42.0813Z" stroke="black" stroke-width="0.5" stroke-linecap="round" stroke-linejoin="round"/>
  <path d="M18.2309 15.9004C20.1399 23.6177 15.1691 24.9878 11.984 25.4907C11.3917 25.5842 10.8548 25.1191 10.8791 24.52C11.1802 17.1048 16.2144 16.0367 17.141 15.7692C17.9879 15.5247 18.1829 15.7916 18.2191 15.8643C18.2246 15.8755 18.2279 15.8882 18.2309 15.9004Z" stroke="black" stroke-width="0.5" stroke-linecap="round" stroke-linejoin="round"/>
  <path d="M21.2187 5.13162C21.0461 12.5409 15.9237 12.5995 12.716 12.2864C12.1089 12.2271 11.7046 11.6249 11.9026 11.0479C14.1453 4.51315 19.241 4.76408 20.2009 4.74669C21.0734 4.73088 21.1983 5.0134 21.2162 5.09128C21.2192 5.10431 21.219 5.11825 21.2187 5.13162Z" stroke="black" stroke-width="0.5" stroke-linecap="round" stroke-linejoin="round"/>
  <path d="M20.4612 26.0467C22.843 33.0649 18.0521 34.8786 14.9319 35.6859C14.3414 35.8386 13.7548 35.4118 13.7427 34.8019C13.6055 27.8944 18.4776 26.3805 19.3731 26.0346C20.1871 25.7202 20.4015 25.9427 20.445 26.0097C20.4523 26.0209 20.4569 26.0341 20.4612 26.0467Z" stroke="black" stroke-width="0.5" stroke-linecap="round" stroke-linejoin="round"/>
  <text style="font-size: 36; font-family: Roboto; white-space: pre;" transform="matrix(1, 0, 0, 1, -10.031247, 52.095754)">#95CFF4</text>
</svg>