<svg width="26" height="35" viewBox="0 0 26 35" fill="none" xmlns="http://www.w3.org/2000/svg">
<rect x="2" y="2" width="24" height="32.3077" rx="2" fill="white"/>
<rect x="0.5" y="0.5" width="23" height="31.3077" rx="1.5" stroke="black"/>
<path d="M4.61523 23H20.3075" stroke="black" stroke-linecap="round" stroke-linejoin="round"/>
<path d="M4.61523 25.7695H18.4614" stroke="black" stroke-linecap="round" stroke-linejoin="round"/>
<path fill-rule="evenodd" clip-rule="evenodd" d="M14.2852 7.92742L14.2852 7.9269V7.92673L14.2852 7.92578C14.2852 6.7724 13.3601 5.85156 12.2363 5.85156C11.1125 5.85156 10.1874 6.7724 10.1874 7.92578V7.92579V7.92579V7.9258V7.92581V7.92581V7.92582V7.92583V7.92583V7.92584V7.92585V7.92585V7.92586V7.92586V7.92587V7.92588V7.92588V7.92589V7.9259V7.9259V7.92591V7.92592V7.92592V7.92593V7.92593V7.92594V7.92595V7.92595V7.92596V7.92597V7.92597V7.92598V7.92599V7.92599V7.926V7.926V7.92601V7.92602V7.92602V7.92603V7.92604V7.92604V7.92605V7.92606V7.92606V7.92607V7.92608V7.92608V7.92609V7.92609V7.9261V7.92611V7.92611V7.92612V7.92613V7.92613V7.92614V7.92615V7.92615V7.92616V7.92616V7.92617V7.92618V7.92618V7.92619V7.9262V7.9262V7.92621V7.92622V7.92622V7.92623V7.92624V7.92624V7.92625V7.92625V7.92626V7.92627V7.92627V7.92628V7.92629V7.92629V7.9263V7.92631V7.92631V7.92632V7.92632V7.92633V7.92634V7.92634V7.92635V7.92636V7.92636V7.92637V7.92638V7.92638V7.92639V7.92639V7.9264V7.92641V7.92641V7.92642V7.92643V7.92643V7.92644V7.92645V7.92645V7.92646V7.92647V7.92647V7.92648V7.92648V7.92649V7.9265V7.9265V7.92651V7.92652V7.92652V7.92653V7.92654V7.92654V7.92655V7.92655V7.92656V7.92657V7.92657V7.92658V7.92659V7.92659V7.9266V7.92661V7.92661V7.92662V7.92663V7.92663V7.92664V7.92664V7.92665V7.92666V7.92666V7.92667V7.92668V7.92668V7.92669V7.9267V7.9267V7.92671V7.92671V7.92672V7.92673V7.92673V7.92674V7.92675V7.92675V7.92676V7.92677V7.92677V7.92678V7.92678V7.92679V7.9268V7.9268V7.92681V7.92682V7.92682V7.92683V7.92684V7.92684V7.92685V7.92686V7.92686V7.92687V7.92687V7.92688V7.92689V7.92689V7.9269V7.92691V7.92691V7.92692V7.92693V7.92693V7.92694V7.92694V7.92695V7.92696V7.92696V7.92697V7.92698V7.92698V7.92699V7.927V7.927V7.92701V7.92702V7.92702V7.92703V7.92703V7.92704V7.92705V7.92705V7.92706V7.92707V7.92707V7.92708V7.92709V7.92709V7.9271V7.9271V7.92711V7.92712V7.92712V7.92713V7.92714V7.92714V7.92715V7.92716V7.92716V7.92717V7.92718V7.92718V7.92719V7.92719V7.9272V7.92721V7.92721V7.92722V7.92723V7.92723V7.92724V7.92725V7.92725V7.92726V7.92726V7.92727V7.92728V7.92728V7.92729V7.9273V7.9273V7.92731V7.92732V7.92732V7.92733V7.92733V7.92734V7.92735V7.92735V7.92736V7.92737V7.92737V7.92738V7.92739V7.92739V7.9274V7.92741V7.92741V7.92742V10.0016H14.2852L14.2852 7.92742ZM9.18742 7.92742V7.92578C9.18742 6.22794 10.5524 4.85156 12.2363 4.85156C13.9201 4.85156 15.2852 6.22794 15.2852 7.92578V7.92742V10.0016V10.2998H9.18742V10.0016V7.92742Z" fill="black"/>
<ellipse rx="4.38105" ry="4.31977" transform="matrix(1 -8.61998e-08 -8.86631e-08 -1 12.3811 14.3209)" fill="white"/>
<mask id="path-7-inside-1" fill="white">
<path d="M7.43751 13.8128C7.43751 16.417 9.57814 18.528 12.2188 18.528C14.8594 18.528 17 16.417 17 13.8128C17 11.2087 14.8594 9.09766 12.2188 9.09766C9.57814 9.09766 7.43751 11.2087 7.43751 13.8128Z"/>
</mask>
<path d="M8.43751 13.8128C8.43751 15.8516 10.1173 17.528 12.2188 17.528V19.528C9.03902 19.528 6.43751 16.9823 6.43751 13.8128H8.43751ZM12.2188 17.528C14.3202 17.528 16 15.8516 16 13.8128H18C18 16.9823 15.3985 19.528 12.2188 19.528V17.528ZM16 13.8128C16 11.7741 14.3202 10.0977 12.2188 10.0977V8.09766C15.3985 8.09766 18 10.6434 18 13.8128H16ZM12.2188 10.0977C10.1173 10.0977 8.43751 11.7741 8.43751 13.8128H6.43751C6.43751 10.6434 9.03902 8.09766 12.2188 8.09766V10.0977Z" fill="black" mask="url(#path-7-inside-1)"/>
<rect x="11.6641" y="11.2422" width="0.952771" height="3.00621" rx="0.476386" fill="black"/>
</svg>
