<svg width="100" height="34" viewBox="0 0 100 34" fill="none" xmlns="http://www.w3.org/2000/svg">
<g clip-path="url(#clip0)">
<path d="M13.1318 0.289062H2.96349C1.48968 0.289062 0.294922 1.45366 0.294922 2.89027V30.4555C0.294922 31.8921 1.48968 33.0567 2.96349 33.0567H13.1318C14.6056 33.0567 15.8004 31.8921 15.8004 30.4555V2.89027C15.8004 1.45366 14.6056 0.289062 13.1318 0.289062Z" fill="#D2CBE8" stroke="#2A2A2A" stroke-width="0.5"/>
<path d="M33.8896 0.289062H23.7213C22.2475 0.289062 21.0527 1.45366 21.0527 2.89027V30.4555C21.0527 31.8921 22.2475 33.0567 23.7213 33.0567H33.8896C35.3634 33.0567 36.5582 31.8921 36.5582 30.4555V2.89027C36.5582 1.45366 35.3634 0.289062 33.8896 0.289062Z" fill="#D2CBE8" stroke="#2A2A2A" stroke-width="0.5"/>
<path d="M92.0025 0H81.8342C80.1966 0 78.8691 1.294 78.8691 2.89022V30.4555C78.8691 32.0517 80.1966 33.3457 81.8342 33.3457H92.0025C93.6401 33.3457 94.9676 32.0517 94.9676 30.4555V16.6728V2.89022C94.9676 1.294 93.6401 0 92.0025 0Z" fill="#D2CBE8"/>
<path d="M92.0048 0.289062H81.8365C80.3627 0.289062 79.168 1.45366 79.168 2.89027V30.4555C79.168 31.8921 80.3627 33.0567 81.8365 33.0567H92.0048C93.4786 33.0567 94.6734 31.8921 94.6734 30.4555V2.89027C94.6734 1.45366 93.4786 0.289062 92.0048 0.289062Z" stroke="#2A2A2A" stroke-opacity="0.4" stroke-width="0.5"/>
<path d="M54.6435 0.289062H44.4752C43.0014 0.289062 41.8066 1.45366 41.8066 2.89027V30.4555C41.8066 31.8921 43.0014 33.0567 44.4752 33.0567H54.6435C56.1173 33.0567 57.3121 31.8921 57.3121 30.4555V2.89027C57.3121 1.45366 56.1173 0.289062 54.6435 0.289062Z" fill="#D2CBE8" stroke="#2A2A2A" stroke-width="0.5"/>
<path d="M112.76 0H102.592C100.954 0 99.627 1.294 99.627 2.89022V30.4555C99.627 32.0517 100.954 33.3457 102.592 33.3457H112.76C114.398 33.3457 115.725 32.0517 115.725 30.4555V2.89022C115.725 1.294 114.398 0 112.76 0Z" fill="#D2CBE8"/>
<path d="M112.759 0.289062H102.59C101.117 0.289062 99.9219 1.45366 99.9219 2.89027V30.4555C99.9219 31.8921 101.117 33.0567 102.59 33.0567H112.759C114.233 33.0567 115.427 31.8921 115.427 30.4555V2.89027C115.427 1.45366 114.233 0.289062 112.759 0.289062Z" stroke="#2A2A2A" stroke-opacity="0.4" stroke-width="0.5"/>
<path d="M49.4297 10.4618H51.8765V11.3762H48.293V5.41992H49.4297V10.4618Z" fill="#2A2A2A"/>
<path d="M51.5144 25.6081H52.2835V26.1971C52.2835 26.252 52.2652 26.3001 52.2286 26.3413C52.1919 26.3797 52.1384 26.399 52.068 26.399H51.5144V27.853H50.6016V26.399H48.0239C47.9534 26.399 47.8914 26.3783 47.8379 26.3372C47.7844 26.2932 47.7506 26.2397 47.7365 26.1765L47.6309 25.6616L50.5255 21.8926H51.5144V25.6081ZM50.6016 23.6597C50.6016 23.5718 50.6044 23.4771 50.61 23.3755C50.6157 23.2739 50.6255 23.1682 50.6396 23.0583L48.7422 25.6081H50.6016V23.6597Z" fill="#2A2A2A"/>
<path d="M30.8073 26.4191V27.1677H27.4864V26.4191H28.7027V23.008C28.7027 22.8732 28.7068 22.7342 28.7151 22.5913L27.8517 23.2953C27.8019 23.3331 27.7521 23.3574 27.7023 23.3682C27.6552 23.3763 27.6095 23.3763 27.5653 23.3682C27.5238 23.3601 27.4864 23.3466 27.4532 23.3277C27.42 23.3061 27.3951 23.2832 27.3785 23.2589L27.0547 22.826L28.8853 21.3086H29.728V26.4191H30.8073Z" fill="#2A2A2A"/>
<path fill-rule="evenodd" clip-rule="evenodd" d="M67.6828 21.3296C67.4527 21.5569 67.4557 21.9229 67.6887 22.147C67.9218 22.3713 68.2972 22.3688 68.5273 22.1415L72.5141 18.2021C72.7424 17.9766 72.7418 17.614 72.5129 17.3891L68.5261 13.4698C68.2954 13.2432 67.92 13.2416 67.6876 13.4664C67.4551 13.6912 67.4533 14.0572 67.684 14.2839L70.6686 17.2181H64.0696C63.7422 17.2181 63.4766 17.4769 63.4766 17.7961C63.4766 18.1154 63.7422 18.3741 64.0696 18.3741H70.674L67.6828 21.3296Z" fill="#2A2A2A"/>
<path d="M24.6337 8.76736C24.4422 8.76736 24.2871 8.61614 24.2871 8.42955C24.2871 8.24301 24.4422 8.0918 24.6337 8.0918H32.4261C32.6175 8.0918 32.7726 8.24301 32.7726 8.42955C32.7726 8.61614 32.6175 8.76736 32.4261 8.76736H24.6337Z" fill="#2A2A2A"/>
<path opacity="0.4" d="M82.7487 9.04079C82.5577 9.04079 82.4023 8.88958 82.4023 8.70299C82.4023 8.51645 82.5577 8.36523 82.7487 8.36523H90.5415C90.733 8.36523 90.8878 8.51645 90.8878 8.70299C90.8878 8.88958 90.733 9.04079 90.5415 9.04079H82.7487Z" fill="#8F8B9C"/>
<path d="M5.05859 6.03125V12.7181H5.71328C5.81449 12.7181 5.89989 12.7026 5.96948 12.6718C6.03589 12.6379 6.10071 12.5824 6.16398 12.5054L9.74579 8.04747C9.72682 8.25094 9.71733 8.43898 9.71733 8.61164V12.7181H10.8417V6.03125H10.1728C10.119 6.03125 10.0731 6.03431 10.0352 6.0405C9.99403 6.04356 9.95928 6.05281 9.93081 6.06824C9.89915 6.08056 9.86914 6.10062 9.84067 6.12836C9.81221 6.15304 9.78054 6.18692 9.74579 6.2301L6.14975 10.7065C6.15924 10.5986 6.16713 10.4922 6.17347 10.3874C6.17976 10.2826 6.18296 10.1855 6.18296 10.0961V6.03125H5.05859Z" fill="#2A2A2A"/>
<path d="M9.82706 26.237C9.93771 26.237 10.0249 26.2681 10.0886 26.3301C10.155 26.3894 10.1882 26.469 10.1882 26.5688V27.1677H6.07031V26.8359C6.07031 26.7684 6.08413 26.6983 6.11182 26.6255C6.14224 26.5499 6.18927 26.4825 6.25296 26.4232L8.07529 24.6428C8.22746 24.4917 8.36308 24.3474 8.4821 24.2098C8.60385 24.0722 8.70484 23.936 8.78513 23.8011C8.86537 23.6663 8.92627 23.53 8.96778 23.3925C9.01202 23.2522 9.0342 23.1052 9.0342 22.9514C9.0342 22.8111 9.01344 22.6884 8.97193 22.5832C8.93042 22.4753 8.87088 22.3849 8.79343 22.3121C8.71871 22.2393 8.62739 22.1853 8.51946 22.1502C8.41426 22.1125 8.2953 22.0936 8.16247 22.0936C8.04066 22.0936 7.92722 22.1111 7.82208 22.1462C7.71966 22.1786 7.62834 22.2258 7.5481 22.2878C7.46781 22.3472 7.40003 22.4173 7.3447 22.4982C7.28931 22.5791 7.2478 22.6682 7.22017 22.7653C7.17308 22.8894 7.11224 22.9716 7.03752 23.0121C6.9628 23.0526 6.85487 23.062 6.71373 23.0404L6.17409 22.9474C6.2156 22.6668 6.29584 22.4213 6.41485 22.2109C6.53381 21.9978 6.68189 21.8212 6.85902 21.6809C7.03888 21.5379 7.24365 21.4313 7.47338 21.3612C7.70585 21.2884 7.95491 21.252 8.22058 21.252C8.49728 21.252 8.7505 21.2924 8.98023 21.3733C9.20991 21.4516 9.40637 21.5635 9.56969 21.7092C9.73295 21.8549 9.86027 22.0302 9.95159 22.2352C10.0429 22.4402 10.0886 22.6682 10.0886 22.919C10.0886 23.1348 10.0554 23.3345 9.98895 23.5179C9.92526 23.7013 9.83809 23.8767 9.72743 24.0439C9.6195 24.2111 9.49218 24.373 9.34553 24.5295C9.19882 24.686 9.04523 24.8451 8.88476 25.0069L7.5315 26.3544C7.66155 26.3166 7.79023 26.2883 7.91755 26.2694C8.0476 26.2478 8.17077 26.237 8.287 26.237H9.82706Z" fill="#2A2A2A"/>
<path opacity="0.4" d="M88.9225 26.4191V27.1677H85.6016V26.4191H86.8179V23.008C86.8179 22.8732 86.8221 22.7342 86.8304 22.5913L85.9669 23.2953C85.9171 23.3331 85.8673 23.3574 85.8175 23.3682C85.7701 23.3763 85.7244 23.3763 85.6805 23.3682C85.639 23.3601 85.6016 23.3466 85.5684 23.3277C85.5352 23.3061 85.5103 23.2832 85.4937 23.2589L85.1699 22.826L87.0006 21.3086H87.8432V26.4191H88.9225Z" fill="#8F8B9C"/>
</g>
<defs>
<clipPath id="clip0">
<rect width="141.73" height="33.5266" fill="white"/>
</clipPath>
</defs>
</svg>
