<svg width="48" height="49" viewBox="0 0 48 49" fill="none" xmlns="http://www.w3.org/2000/svg">
<rect x="10.1035" y="17.4062" width="30.4637" height="17.5004" rx="5" fill="#FFE500"/>
<rect x="8.62891" y="15.6133" width="29.4637" height="16.5004" rx="4.5" stroke="black"/>
<line x1="23.6816" y1="21.0957" x2="35.3486" y2="21.0957" stroke="black"/>
<line x1="23.6816" y1="26.2812" x2="35.3486" y2="26.2812" stroke="black"/>
<line x1="23.6816" y1="23.6875" x2="35.3486" y2="23.6875" stroke="black"/>
<circle cx="24.0098" cy="24.5098" r="22.0098" stroke="black" stroke-width="2"/>
<line x1="40.5815" y1="8.70353" x2="7.52519" y2="40.4635" stroke="black" stroke-width="2"/>
<path d="M19.5928 22.2339C19.5928 23.7438 18.3688 24.9678 16.8589 24.9678C15.349 24.9678 14.125 23.7438 14.125 22.2339C14.125 20.724 15.349 19.5 16.8589 19.5C18.3688 19.5 19.5928 20.724 19.5928 22.2339Z" stroke="black"/>
<path d="M16.8619 26.8247C17.8632 26.8247 18.7903 26.5016 19.5449 25.9562C20.4325 26.6547 21.0405 27.6904 21.1757 28.8698H12.548C12.6833 27.6904 13.2912 26.6547 14.1789 25.9562C14.9335 26.5016 15.8605 26.8247 16.8619 26.8247Z" stroke="black"/>
<rect x="25" y="27.5" width="9" height="6" fill="#FFE500"/>
<path d="M29.4022 32.5704H29.3685V30.076C29.9434 30.1732 30.4763 30.4302 30.9692 30.8459L31.6971 29.6247C30.9655 29.033 30.1894 28.7004 29.3685 28.6302V27.9531H28.6525V28.6161C27.9282 28.6604 27.3406 28.926 26.8887 29.413C26.4369 29.8989 26.2118 30.5252 26.2118 31.2898C26.2118 32.0553 26.4077 32.633 26.7994 33.0218C27.1912 33.4116 27.8089 33.7247 28.6525 33.9633V36.5376C27.9874 36.4145 27.3424 36.029 26.7156 35.3833L25.8984 36.5376C26.7111 37.3788 27.6294 37.8604 28.6525 37.9845V38.9531H29.3685V37.9975C30.1302 37.9532 30.7414 37.6876 31.2042 37.2017C31.6671 36.7147 31.8984 36.0852 31.8984 35.311C31.8984 34.5367 31.6971 33.9461 31.2935 33.539C30.8909 33.133 30.2604 32.809 29.4022 32.5704ZM28.6525 32.3318C28.2343 32.173 27.9501 32.0067 27.8016 31.834C27.6522 31.6612 27.5774 31.428 27.5774 31.131C27.5774 30.8351 27.6722 30.5868 27.8626 30.3881C28.053 30.1894 28.3163 30.0717 28.6525 30.0361V32.3318ZM30.2194 36.2061C30.0099 36.4102 29.7266 36.5333 29.3685 36.5776V34.189C29.8159 34.3488 30.1219 34.5194 30.2868 34.6998C30.4508 34.8812 30.5328 35.1274 30.5328 35.4362C30.5328 35.7461 30.428 36.0031 30.2194 36.2061Z" fill="black"/>
</svg>
