<?xml version="1.0" encoding="utf-8"?>
<svg width="17" height="19" viewBox="0 0 17 19" fill="none" xmlns="http://www.w3.org/2000/svg">
  <path d="M16.1803 14.1063C15.8681 13.502 15.4388 12.8575 14.8925 12.213L14.8535 12.1727C14.5803 11.8505 14.2681 11.4879 13.8389 11.206C13.2925 10.8837 12.434 10.7226 11.7706 11.1657L10.756 11.8908C10.678 11.9713 10.639 11.931 10.5999 11.931C10.5609 11.931 10.4439 11.8908 10.2878 11.7296C9.42925 10.8837 8.64879 9.9975 7.90734 9.03073C7.86832 8.99045 7.79028 8.90988 7.71223 8.78904C7.51711 8.54735 7.20493 8.14452 6.93177 7.7417C6.6586 7.33888 6.58056 7.13747 6.50251 7.01663C6.58056 6.93606 6.61958 6.89578 6.69763 6.81522L7.55614 5.88873C8.14148 5.2845 8.10246 4.3983 7.90734 3.79406C7.75125 3.31068 7.47809 2.90786 7.20493 2.5856L7.1659 2.50504C6.6586 1.82024 6.11228 1.2563 5.644 0.813194C5.29279 0.490937 4.70745 0.088117 4.00503 0.00755289C3.53675 -0.0327292 3.1075 0.0881168 2.75629 0.370091C2.56117 0.531219 2.36606 0.692348 2.20996 0.893758C1.66364 1.53827 1.19536 2.34391 1.00025 3.14955C0.844153 3.75378 0.80513 4.43858 0.844153 5.12337C1.00025 6.81522 1.70266 8.22509 2.4441 9.47383C3.34163 11.0448 4.27819 12.3741 5.25377 13.5423C7.322 15.9995 9.23413 17.4497 11.1072 18.0136C11.6536 18.1748 12.1609 18.2553 12.7072 18.2553C12.8243 18.2553 12.9023 18.2553 13.0194 18.2553C13.8389 18.215 14.6974 17.9331 15.3998 17.49C15.6339 17.3691 15.829 17.208 15.9851 17.0469C16.3363 16.7246 16.5315 16.3218 16.5705 15.8384C16.6876 15.1939 16.3754 14.5494 16.1803 14.1063ZM15.1657 16.1607C15.0486 16.2815 14.8925 16.4023 14.7364 16.4829C14.1901 16.8052 13.5267 17.0469 12.9413 17.0871C12.4731 17.1274 11.9658 17.0469 11.4585 16.8857C9.81948 16.4023 8.10246 15.073 6.19033 12.8172C5.25377 11.7296 4.39526 10.4406 3.49773 8.95017C2.83433 7.82227 2.20996 6.57353 2.09289 5.12337C2.05387 4.59971 2.09289 4.07604 2.20996 3.59265C2.36606 2.98842 2.67824 2.34391 3.1075 1.86053C3.22457 1.73968 3.38066 1.57855 3.49773 1.49799C3.6148 1.41742 3.69284 1.37714 3.84894 1.37714H3.88796C4.16112 1.41742 4.47331 1.57855 4.82452 1.86053C5.25377 2.22307 5.72205 2.74673 6.19033 3.35096L6.22935 3.43153C6.42446 3.7135 6.6586 3.95519 6.73665 4.23717C6.8147 4.51914 6.8147 4.88168 6.69763 5.00253L5.83912 5.92901C5.76107 6.00958 5.68302 6.09014 5.60498 6.17071L5.56595 6.21099L5.52693 6.25127C5.37084 6.4124 5.09768 6.77494 5.29279 7.37917C5.37084 7.62086 5.48791 7.90283 5.72205 8.22509C6.07326 8.74876 6.50251 9.3127 6.77567 9.63496C6.85372 9.71552 6.89274 9.79609 6.93177 9.83637C7.71223 10.8434 8.53171 11.8102 9.42925 12.6561C9.8585 13.0992 10.2878 13.2201 10.639 13.2201C10.9902 13.2201 11.2633 13.0992 11.4585 12.9381L12.4731 12.213C12.6291 12.0922 12.9413 12.1727 13.2145 12.2936C13.4486 12.4144 13.6437 12.6964 13.8779 12.9381L13.9169 13.0187C14.3852 13.6229 14.7754 14.1868 15.0486 14.6702C15.2827 15.1133 15.3608 15.4356 15.3608 15.7175C15.3608 15.919 15.2827 16.0398 15.1657 16.1607Z" fill="#2A2A2A"/>
</svg>