<svg width="40" height="40" viewBox="0 0 40 40" fill="none" xmlns="http://www.w3.org/2000/svg">
<path fill-rule="evenodd" clip-rule="evenodd" d="M30.7657 24.417H21.953C21.7023 24.0223 21.4054 23.6177 21.0624 23.213L21.0234 23.1727C20.7502 22.8505 20.438 22.4879 20.0088 22.206C19.4625 21.8837 18.604 21.7226 17.9406 22.1657L17.3699 22.5735V16C17.3699 15.9429 17.3759 15.8872 17.3873 15.8335L24.2118 20.3226L24.569 20.5575L24.9262 20.3226L31.5645 15.956C31.5653 15.9706 31.5657 15.9853 31.5657 16V23.617C31.5657 24.0589 31.2075 24.417 30.7657 24.417ZM30.3483 15.2L24.569 19.0015L18.7897 15.2H30.3483ZM14.0773 20.0307C14.735 20.8884 15.4235 21.6826 16.1699 22.4416V16C16.1699 14.8954 17.0654 14 18.1699 14H30.7657C31.8702 14 32.7657 14.8954 32.7657 16V23.617C32.7657 24.7216 31.8702 25.617 30.7657 25.617H22.5671C22.7073 25.9852 22.8179 26.4118 22.7404 26.8384C22.7014 27.3218 22.5063 27.7246 22.1551 28.0469C21.999 28.208 21.8039 28.3691 21.5697 28.49C20.8673 28.9331 20.0088 29.215 19.1893 29.2553H18.8771C18.3308 29.2553 17.8235 29.1748 17.2772 29.0136C15.4041 28.4497 13.4919 26.9995 11.4237 24.5423C10.4481 23.3741 9.51156 22.0448 8.61402 20.4738C7.87258 19.2251 7.17017 17.8152 7.01407 16.1234C6.97505 15.4386 7.01407 14.7538 7.17017 14.1496C7.36528 13.3439 7.83356 12.5383 8.37989 11.8938C8.53598 11.6923 8.73109 11.5312 8.92621 11.3701C9.27742 11.0881 9.70667 10.9673 10.175 11.0076C10.8774 11.0881 11.4627 11.4909 11.8139 11.8132C12.2822 12.2563 12.8285 12.8202 13.3358 13.505L13.3749 13.5856C13.648 13.9079 13.9212 14.3107 14.0773 14.7941C14.2724 15.3983 14.3114 16.2845 13.7261 16.8887L12.8675 17.8152L12.6724 18.0166C12.6979 18.056 12.7233 18.104 12.7556 18.1648L12.7556 18.1648C12.8222 18.2903 12.9176 18.4703 13.1017 18.7417C13.3748 19.1445 13.687 19.5473 13.8822 19.789C13.9602 19.9099 14.0382 19.9904 14.0773 20.0307ZM21.3356 27.1607C21.2185 27.2815 21.0624 27.4023 20.9063 27.4829C20.36 27.8052 19.6966 28.0469 19.1113 28.0871C18.643 28.1274 18.1357 28.0469 17.6284 27.8857C15.9894 27.4023 14.2724 26.073 12.3602 23.8172C11.4237 22.7296 10.5652 21.4406 9.66765 19.9502C9.00426 18.8223 8.37989 17.5735 8.26282 16.1234C8.22379 15.5997 8.26282 15.076 8.37989 14.5927C8.53598 13.9884 8.84816 13.3439 9.27742 12.8605C9.39449 12.7397 9.55058 12.5786 9.66765 12.498C9.78472 12.4174 9.86277 12.3771 10.0189 12.3771H10.0579C10.331 12.4174 10.6432 12.5786 10.9944 12.8605C11.4237 13.2231 11.892 13.7467 12.3602 14.351L12.3993 14.4315C12.4523 14.5081 12.5081 14.5817 12.563 14.654L12.563 14.654C12.71 14.8478 12.8497 15.0318 12.9066 15.2372C12.9846 15.5191 12.9846 15.8817 12.8675 16.0025L12.009 16.929L11.7749 17.1707L11.7359 17.211L11.6969 17.2513C11.5408 17.4124 11.2676 17.7749 11.4627 18.3792C11.5408 18.6209 11.6578 18.9028 11.892 19.2251C12.2432 19.7488 12.6724 20.3127 12.9456 20.635C12.9913 20.6822 13.0236 20.7293 13.0504 20.7684C13.0694 20.7961 13.0855 20.8197 13.1017 20.8364C13.8822 21.8434 14.7016 22.8102 15.5992 23.6561C16.0284 24.0992 16.4577 24.2201 16.8089 24.2201C17.1601 24.2201 17.4333 24.0992 17.6284 23.9381L18.643 23.213C18.7991 23.0922 19.1113 23.1727 19.3844 23.2936C19.5502 23.3792 19.6965 23.5456 19.8509 23.7212C19.9145 23.7936 19.9795 23.8676 20.0478 23.9381L20.0868 24.0187C20.5551 24.6229 20.9453 25.1868 21.2185 25.6702C21.4526 26.1133 21.5307 26.4356 21.5307 26.7175C21.5307 26.919 21.4526 27.0398 21.3356 27.1607Z" fill="#2A2A2A"/>
</svg>
