<svg width="48" height="49" viewBox="0 0 48 49" fill="none" xmlns="http://www.w3.org/2000/svg">
<rect x="11.0469" y="25.3145" width="2.52308" height="2.52308" fill="#2C2C2C"/>
<rect x="17.9844" y="25.3145" width="2.52308" height="2.52308" fill="#2C2C2C"/>
<rect x="24.9219" y="25.3145" width="2.52308" height="2.52308" fill="#2C2C2C"/>
<rect x="17.9844" y="19.0078" width="2.52308" height="2.52308" fill="#2C2C2C"/>
<rect x="24.9219" y="19.0078" width="2.52308" height="2.52308" fill="#2C2C2C"/>
<rect x="31.2305" y="10.1777" width="2.52308" height="2.52308" fill="#2C2C2C"/>
<rect x="14.8301" y="25.3145" width="2.52308" height="2.52308" fill="#2C2C2C"/>
<rect x="21.7695" y="25.3145" width="2.52308" height="2.52308" fill="#2C2C2C"/>
<rect x="14.8301" y="19.0078" width="2.52308" height="2.52308" fill="#2C2C2C"/>
<rect x="21.7695" y="19.0078" width="2.52308" height="2.52308" fill="#2C2C2C"/>
<rect x="21.7695" y="12.7012" width="2.52308" height="2.52308" fill="#2C2C2C"/>
<rect x="7.89062" y="28.4688" width="2.52308" height="2.52308" fill="#2C2C2C"/>
<rect x="7.89062" y="25.3145" width="2.52308" height="2.52308" fill="#2C2C2C"/>
<rect x="14.8301" y="28.4688" width="2.52308" height="2.52308" fill="#2C2C2C"/>
<rect x="33.123" y="29.7305" width="2.52308" height="2.52308" fill="#2C2C2C"/>
<rect x="14.8301" y="22.1621" width="2.52308" height="2.52308" fill="#2C2C2C"/>
<rect x="21.7695" y="22.1621" width="2.52308" height="2.52308" fill="#2C2C2C"/>
<rect x="21.7695" y="15.8535" width="2.52308" height="2.52308" fill="#2C2C2C"/>
<rect x="7.89062" y="31.623" width="2.52308" height="2.52308" fill="#2C2C2C"/>
<rect x="14.8301" y="31.623" width="2.52308" height="2.52308" fill="#2C2C2C"/>
<rect x="21.7695" y="31.623" width="2.52308" height="2.52308" fill="#2C2C2C"/>
<rect x="16.7246" y="4.5" width="2.52308" height="2.52308" fill="#2C2C2C"/>
<rect x="17.9844" y="28.4688" width="2.52308" height="2.52308" fill="#2C2C2C"/>
<rect x="24.9219" y="28.4688" width="2.52308" height="2.52308" fill="#2C2C2C"/>
<rect x="6" y="12.7012" width="2.52308" height="2.52308" fill="#2C2C2C"/>
<rect x="24.9219" y="22.1621" width="2.52308" height="2.52308" fill="#2C2C2C"/>
<rect x="24.9219" y="15.8535" width="2.52308" height="2.52308" fill="#2C2C2C"/>
<rect x="11.0469" y="31.623" width="2.52308" height="2.52308" fill="#2C2C2C"/>
<rect x="17.9844" y="31.623" width="2.52308" height="2.52308" fill="#2C2C2C"/>
<rect x="24.9219" y="31.623" width="2.52308" height="2.52308" fill="#2C2C2C"/>
<circle cx="32.4928" cy="34.776" r="9.46154" fill="#FAFAFA"/>
<circle cx="33.7769" cy="36.7769" r="9.77692" fill="#E98686"/>
<circle cx="32.4927" cy="34.7779" r="9.59231" stroke="black"/>
<path d="M29.712 33.632C29.326 32.8592 28.4593 32.4532 27.6185 32.6515C26.7777 32.8497 26.1836 33.6002 26.1836 34.464C26.1836 35.3279 26.7777 36.0783 27.6185 36.2766C28.4593 36.4748 29.326 36.0688 29.712 35.296" stroke="#2E2E2E" stroke-linecap="round" stroke-linejoin="round"/>
<path d="M35.0324 32.8335C35.8675 32.8355 36.6025 32.2826 36.832 31.4796C37.0615 30.6765 36.7297 29.8188 36.0196 29.3792C35.3094 28.9396 34.3937 29.0251 33.7773 29.5886C33.1608 30.1522 32.9937 31.0565 33.3679 31.8032" stroke="#2E2E2E" stroke-linecap="round" stroke-linejoin="round"/>
<path d="M33.3664 37.1216C32.9942 37.8664 33.1617 38.7678 33.7765 39.3292C34.3913 39.8907 35.3041 39.9758 36.0121 39.5377C36.7202 39.0996 37.0514 38.2448 36.8233 37.444C36.5953 36.6432 35.8634 36.0911 35.0308 36.0918" stroke="#2E2E2E" stroke-linecap="round" stroke-linejoin="round"/>
<path d="M35.0305 32.835C34.3254 32.8343 33.6811 32.4355 33.3661 31.8047L29.7109 33.632C29.9754 34.1553 29.9754 34.7732 29.7109 35.2964L33.3661 37.1243C33.6811 36.4934 34.3254 36.0946 35.0305 36.094" stroke="#2E2E2E" stroke-linecap="round" stroke-linejoin="round"/>
</svg>
