<?xml version="1.0" encoding="utf-8"?>
<svg width="40" height="40" viewBox="0 0 40 40" fill="none" xmlns="http://www.w3.org/2000/svg">
  <path d="M28.8673 18.6945C29.1822 18.4415 29.3192 18.022 29.1775 17.6437C29.0259 17.2391 28.8422 16.8411 28.6225 16.449C28.4343 16.1131 28.0526 15.9434 27.6711 15.9949L26.6892 16.1275C26.3521 16.173 26.0187 16.0403 25.7788 15.7992C25.6254 15.6451 25.4655 15.4984 25.2995 15.3595C25.0258 15.1303 24.8634 14.7884 24.8965 14.433L24.9752 13.5879C25.0124 13.1891 24.81 12.8022 24.4453 12.6365C24.0209 12.4437 23.5818 12.282 23.1319 12.153C22.7634 12.0473 22.3739 12.1916 22.1374 12.4933L21.5564 13.2344C21.346 13.5028 21.0134 13.6406 20.6725 13.6326C20.436 13.627 20.1983 13.6325 19.9604 13.6495C19.621 13.6736 19.2828 13.5528 19.0596 13.2959L18.4379 12.5803C18.187 12.2915 17.7918 12.1668 17.4295 12.2896C16.9942 12.4371 16.5664 12.6172 16.1451 12.8343C15.788 13.0184 15.6048 13.4165 15.6628 13.814L15.785 14.6506C15.8366 15.0045 15.6915 15.3551 15.4293 15.5983C15.2709 15.7452 15.1203 15.8983 14.9775 16.057C14.7494 16.3107 14.4219 16.4602 14.0821 16.4309L13.0967 16.346C12.7124 16.3129 12.3388 16.5016 12.1681 16.8475C11.9737 17.2415 11.8096 17.649 11.677 18.0661C11.5549 18.4504 11.7125 18.8616 12.0389 19.0981L12.7644 19.624C13.0536 19.8337 13.2032 20.1816 13.1968 20.5388C13.1933 20.7317 13.1982 20.9254 13.2116 21.1194C13.2362 21.4766 13.1042 21.8328 12.825 22.0571L12.1327 22.6132C11.8178 22.8661 11.6808 23.2857 11.8225 23.6639C11.9741 24.0686 12.1578 24.4666 12.3775 24.8587C12.5657 25.1946 12.9474 25.3643 13.3289 25.3128L14.3108 25.1802C14.6479 25.1347 14.9813 25.2674 15.2212 25.5085C15.3746 25.6626 15.5345 25.8093 15.7005 25.9482C15.9742 26.1773 16.1366 26.5193 16.1035 26.8747L16.0247 27.72C15.9876 28.1187 16.1899 28.5056 16.5544 28.6712C16.9788 28.864 17.4181 29.0257 17.8681 29.1547C18.2366 29.2604 18.6261 29.1161 18.8626 28.8143L19.4436 28.0732C19.654 27.8049 19.9866 27.6671 20.3275 27.6751C20.564 27.6807 20.8017 27.6751 21.0396 27.6582C21.379 27.634 21.7172 27.7549 21.9404 28.0118L22.5621 28.7274C22.813 29.0162 23.2082 29.1409 23.5705 29.0181C24.0058 28.8706 24.4336 28.6904 24.8549 28.4733C25.212 28.2893 25.3952 27.8912 25.3372 27.4937L25.215 26.6571C25.1634 26.3031 25.3085 25.9526 25.5707 25.7094C25.7291 25.5625 25.8797 25.4094 26.0225 25.2507C26.2506 24.997 26.5781 24.8475 26.9179 24.8768L27.9033 24.9617C28.2876 24.9948 28.6612 24.8061 28.8319 24.4602C29.0263 24.0662 29.1904 23.6587 29.323 23.2415C29.4451 22.8573 29.2875 22.4461 28.9611 22.2095L28.2356 21.6837C27.9464 21.474 27.7968 21.1261 27.8032 20.7689C27.8067 20.576 27.8018 20.3823 27.7884 20.1883C27.7638 19.831 27.8958 19.4749 28.175 19.2506L28.8673 18.6945ZM22.1037 24.1283C20.108 24.9798 17.7721 24.1148 16.886 22.1958C16.0004 20.2769 16.9001 18.0309 18.8958 17.1788C20.8915 16.3268 23.2273 17.1924 24.1134 19.1113C24.9996 21.0302 24.0994 23.2762 22.1037 24.1283Z" fill="#8FD6FF"/>
</svg>