<svg width="47" height="73" viewBox="0 0 47 73" fill="none" xmlns="http://www.w3.org/2000/svg">
<path d="M40.5323 42.4336H6.88779C3.63605 42.4336 1 45.0696 1 48.3214C1 51.5731 3.63605 54.2092 6.88779 54.2092H40.5323C43.784 54.2092 46.4201 51.5731 46.4201 48.3214C46.4201 45.0696 43.784 42.4336 40.5323 42.4336Z" fill="#DEEAF1" stroke="#2A2A2A" stroke-width="0.75"/>
<path d="M40.5323 26.166H6.88779C3.63605 26.166 1 28.8021 1 32.0538C1 35.3055 3.63605 37.9416 6.88779 37.9416H40.5323C43.784 37.9416 46.4201 35.3055 46.4201 32.0538C46.4201 28.8021 43.784 26.166 40.5323 26.166Z" stroke="#2A2A2A" stroke-width="0.75"/>
<path d="M40.5323 9.9043H6.88779C3.63605 9.9043 1 12.5403 1 15.7921C1 19.0438 3.63605 21.6799 6.88779 21.6799H40.5323C43.784 21.6799 46.4201 19.0438 46.4201 15.7921C46.4201 12.5403 43.784 9.9043 40.5323 9.9043Z" stroke="#2A2A2A" stroke-width="0.75"/>
<path d="M17.9153 0V4.01771H17.3713V2.1897H15.2041V4.01771H14.6602V0H15.2041V1.79157H17.3713V0H17.9153ZM21.3003 2.52614L20.6695 0.891579C20.6508 0.84298 20.6312 0.786905 20.6106 0.723357C20.5901 0.657935 20.5704 0.588779 20.5517 0.515882C20.5124 0.667283 20.4723 0.79345 20.4311 0.894383L19.8003 2.52614H21.3003ZM22.433 4.01771H22.0124C21.9639 4.01771 21.9246 4.00555 21.8947 3.98127C21.8648 3.95699 21.8424 3.92614 21.8274 3.88874L21.4517 2.91866H19.6489L19.2732 3.88874C19.262 3.92239 19.2405 3.95228 19.2087 3.97846C19.177 4.00465 19.1377 4.01771 19.091 4.01771H18.6704L20.2769 0H20.8265L22.433 4.01771ZM24.3718 2.08316C24.527 2.08316 24.6634 2.06258 24.7811 2.02147C24.9008 1.98037 25.0008 1.92334 25.0811 1.85045C25.1634 1.7757 25.2251 1.6869 25.2662 1.58409C25.3073 1.48129 25.3279 1.36821 25.3279 1.24485C25.3279 0.988773 25.2484 0.788778 25.0896 0.644853C24.9325 0.500927 24.6933 0.428967 24.3718 0.428967H23.727V2.08316H24.3718ZM24.3718 0C24.626 0 24.8466 0.0299043 25.0335 0.0897186C25.2223 0.14766 25.3783 0.230841 25.5017 0.339249C25.6251 0.447657 25.7166 0.5785 25.7765 0.731768C25.8381 0.885035 25.869 1.05606 25.869 1.24485C25.869 1.43176 25.8363 1.60278 25.7709 1.75793C25.7054 1.91308 25.6092 2.04671 25.4821 2.15886C25.3569 2.271 25.2008 2.35887 25.0139 2.4224C24.8288 2.48409 24.6148 2.51493 24.3718 2.51493H23.727V4.01771H23.1858V0H24.3718ZM27.9639 2.08316C28.119 2.08316 28.2554 2.06258 28.3732 2.02147C28.4928 1.98037 28.5928 1.92334 28.6732 1.85045C28.7554 1.7757 28.8171 1.6869 28.8582 1.58409C28.8993 1.48129 28.9199 1.36821 28.9199 1.24485C28.9199 0.988773 28.8405 0.788778 28.6816 0.644853C28.5246 0.500927 28.2853 0.428967 27.9639 0.428967H27.319V2.08316H27.9639ZM27.9639 0C28.218 0 28.4386 0.0299043 28.6255 0.0897186C28.8143 0.14766 28.9704 0.230841 29.0938 0.339249C29.2171 0.447657 29.3087 0.5785 29.3685 0.731768C29.4302 0.885035 29.461 1.05606 29.461 1.24485C29.461 1.43176 29.4283 1.60278 29.3629 1.75793C29.2975 1.91308 29.2012 2.04671 29.0741 2.15886C28.9489 2.271 28.7928 2.35887 28.6059 2.4224C28.4209 2.48409 28.2068 2.51493 27.9639 2.51493H27.319V4.01771H26.7779V0H27.9639ZM31.7962 2.4168V4.01771H31.2523V2.4168L29.7803 0H30.257C30.3055 0 30.3439 0.0121513 30.3719 0.0364482C30.3999 0.0588779 30.4242 0.0887822 30.4448 0.126167L31.3644 1.68783C31.3981 1.75325 31.4289 1.81495 31.4569 1.87288C31.485 1.92895 31.5093 1.98598 31.5298 2.0439C31.5504 1.98598 31.5737 1.92895 31.5999 1.87288C31.6261 1.81495 31.6551 1.75325 31.6868 1.68783L32.6037 0.126167C32.6205 0.0943896 32.6438 0.0654218 32.6738 0.039252C32.7036 0.0130822 32.7419 0 32.7887 0H33.2681L31.7962 2.4168Z" fill="#2A2A2A"/>
<path d="M34.0353 57.4357C33.2379 57.4357 32.579 57.9213 32.3016 58.615H32.1629V57.7481C32.1629 56.7073 31.3307 55.8752 30.2905 55.8752C29.2503 55.8752 28.4181 56.7073 28.4181 57.7481V56.4651C28.4181 55.4249 27.5859 54.5922 26.5457 54.5922C25.5055 54.5922 24.6733 55.4249 24.6733 56.4651V50.1888C24.6733 49.1486 23.8411 48.3164 22.8008 48.3164C21.7606 48.3164 20.9284 49.1486 20.9284 50.1888V57.8866C20.9284 57.8866 20.8244 62.2901 21.0671 64.5443C21.3445 68.3926 24.5692 71.4442 28.4874 71.4442C32.579 71.4442 35.8731 68.1846 35.9424 64.0934C35.9771 64.0587 35.9771 63.9891 35.9771 63.9202V61.0766V59.3776V59.2733C35.9078 58.2679 35.0756 57.4357 34.0353 57.4357Z" fill="#9FD3F4"/>
<path d="M32.2999 58.6152V59.1759H32.6795L32.8205 58.8232L32.2999 58.6152ZM32.1611 58.6152H31.6004V59.1759H32.1611V58.6152ZM20.9266 57.8868L21.4872 57.9002L21.4874 57.8935V57.8868H20.9266ZM21.0654 64.5445L21.6246 64.5041L21.6239 64.494L21.6228 64.4845L21.0654 64.5445ZM35.9407 64.0936L35.5442 63.6972L35.3838 63.8576L35.38 64.0841L35.9407 64.0936ZM35.9754 59.2735H36.5361V59.2544L36.5348 59.2354L35.9754 59.2735ZM34.0336 56.8752C32.9955 56.8752 32.1375 57.5111 31.7792 58.4066L32.8205 58.8232C33.017 58.332 33.4767 57.9967 34.0336 57.9967V56.8752ZM32.2999 58.0544H32.1611V59.1759H32.2999V58.0544ZM32.7219 58.6152V57.7483H31.6004V58.6152H32.7219ZM32.7219 57.7483C32.7219 56.398 31.6386 55.3147 30.2887 55.3147V56.4361C31.0193 56.4361 31.6004 57.0176 31.6004 57.7483H32.7219ZM30.2887 55.3147C28.9388 55.3147 27.8556 56.398 27.8556 57.7483H28.9771C28.9771 57.0176 29.5582 56.4361 30.2887 56.4361V55.3147ZM28.9771 57.7483V56.4653H27.8556V57.7483H28.9771ZM28.9771 56.4653C28.9771 55.115 27.8938 54.0317 26.5439 54.0317V55.1532C27.2744 55.1532 27.8556 55.7347 27.8556 56.4653H28.9771ZM26.5439 54.0317C25.194 54.0317 24.1107 55.115 24.1107 56.4653H25.2322C25.2322 55.7347 25.8134 55.1532 26.5439 55.1532V54.0317ZM25.2322 56.4653V50.189H24.1107V56.4653H25.2322ZM25.2322 50.189C25.2322 48.8391 24.149 47.7559 22.7991 47.7559V48.8773C23.5296 48.8773 24.1107 49.4585 24.1107 50.189H25.2322ZM22.7991 47.7559C21.4491 47.7559 20.3659 48.8391 20.3659 50.189H21.4874C21.4874 49.4585 22.0685 48.8773 22.7991 48.8773V47.7559ZM20.3659 50.189V57.8868H21.4874V50.189H20.3659ZM20.9266 57.8868C20.3661 57.8733 20.3661 57.8733 20.3661 57.8733C20.3661 57.8739 20.3661 57.8739 20.3661 57.8739V57.8744C20.366 57.875 20.366 57.8761 20.366 57.8772C20.3659 57.8795 20.3658 57.8823 20.3658 57.8868C20.3656 57.8952 20.3653 57.9081 20.3649 57.9249C20.3642 57.958 20.3632 58.0068 20.362 58.0696C20.3596 58.1957 20.3565 58.3774 20.3535 58.6028C20.3475 59.0531 20.3421 59.6767 20.3442 60.372C20.3486 61.7542 20.383 63.4454 20.5078 64.6045L21.6228 64.4845C21.505 63.3893 21.47 61.7514 21.4657 60.3686C21.4635 59.6811 21.4689 59.0632 21.4749 58.6174C21.4778 58.3948 21.4809 58.2148 21.4833 58.0909C21.4845 58.0292 21.4855 57.981 21.4861 57.949C21.4865 57.9328 21.4868 57.9204 21.4869 57.912C21.487 57.9081 21.4871 57.9047 21.4871 57.903C21.4872 57.9019 21.4872 57.9014 21.4872 57.9008C21.4872 57.9002 21.4872 57.9002 21.4872 57.9002C21.4872 57.9002 21.4872 57.9002 20.9266 57.8868ZM20.5061 64.5843C20.8044 68.7242 24.2711 72.0051 28.4857 72.0051V70.8836C24.8639 70.8836 21.8811 68.062 21.6246 64.5041L20.5061 64.5843ZM28.4857 72.0051C32.8853 72.0051 36.4268 68.4983 36.5013 64.1032L35.38 64.0841C35.3158 67.8719 32.2692 70.8836 28.4857 70.8836V72.0051ZM36.3372 64.4901C36.4839 64.3432 36.5161 64.1693 36.5261 64.0992C36.5372 64.0219 36.5361 63.9445 36.5361 63.9204H35.4146C35.4146 63.9394 35.4146 63.9473 35.4143 63.9534C35.4142 63.9596 35.4141 63.9534 35.4159 63.9405C35.4177 63.9282 35.4228 63.8974 35.4385 63.857C35.4548 63.8155 35.4859 63.7555 35.5442 63.6972L36.3372 64.4901ZM36.5361 63.9204V61.0768H35.4146V63.9204H36.5361ZM36.5361 61.0768V59.3778H35.4146V61.0768H36.5361ZM36.5361 59.3778V59.2735H35.4146V59.3778H36.5361ZM36.5348 59.2354C36.4462 57.9513 35.3841 56.8752 34.0336 56.8752V57.9967C34.7635 57.9967 35.3658 58.5849 35.4159 59.3122L36.5348 59.2354Z" fill="#2A2A2A"/>
</svg>
