<svg width="25" height="88" viewBox="0 0 25 88" fill="none" xmlns="http://www.w3.org/2000/svg">
<path fill-rule="evenodd" clip-rule="evenodd" d="M13.9576 2.22347C15.4335 4.06524 15.7237 6.61226 14.7231 8.75338C14.598 9.02229 14.4479 9.28105 14.2778 9.52966C14.0226 9.90622 13.7288 10.2476 13.4044 10.5507C13.4293 10.5583 13.454 10.5682 13.4781 10.5807C14.2036 10.9511 14.879 11.4128 15.4894 11.9607C17.4705 13.7416 18.6062 16.3394 18.6162 19.0183C18.6162 19.1857 18.4762 19.3227 18.3161 19.3227H18.256C17.4552 19.3464 16.6499 19.3385 15.846 19.3306C15.4447 19.3267 15.0437 19.3227 14.6438 19.3227H10.011H8.19995H3.34202H0.300181C0.140085 19.3227 0 19.1807 0 19.0183C0.00500302 18.2268 0.10006 17.4353 0.295178 16.6641C0.955577 14.041 2.75666 11.7984 5.1381 10.5807C5.16182 10.5685 5.18752 10.5587 5.21468 10.5512C4.08195 9.47325 3.36378 7.96608 3.29617 6.34335C3.19111 3.83185 4.68201 1.45226 6.95838 0.473032C9.37984 -0.567085 12.2966 0.148313 13.9576 2.22347ZM5.7422 10.9991C5.10485 11.333 4.16589 11.8597 3.66721 12.2905C1.80617 13.9006 0.699284 16.2335 0.602257 18.7036C0.805528 18.6971 1.01225 18.7036 1.21707 18.71C1.35991 18.7145 1.50182 18.719 1.64099 18.719H3.96239H8.6152H10.4213H15.2642H18.006C17.9871 18.1281 17.9124 17.5446 17.7757 16.9685C17.1754 14.4266 15.3228 12.0968 13.0314 10.9196C13.0187 10.9131 13.0071 10.9064 12.9965 10.8995C11.4469 12.11 9.35601 12.5345 7.43867 11.894C6.821 11.6883 6.25023 11.383 5.7422 10.9991ZM14.2301 8.39541C14.2202 8.40995 14.211 8.42608 14.2028 8.44388C13.1971 10.6307 10.7607 11.9194 8.41926 11.5135C6.22794 11.133 4.45187 9.40789 4.00159 7.19574C3.54132 4.94807 4.56694 2.58371 6.4981 1.39138C8.50431 0.163534 11.1559 0.396926 12.907 1.98501C14.6699 3.58152 15.2203 6.21786 14.2301 8.39541Z" fill="#2A2A2A"/>
<path fill-rule="evenodd" clip-rule="evenodd" d="M13.9548 27.825C15.4307 29.6668 15.7209 32.2138 14.7203 34.3549C14.5952 34.6239 14.4451 34.8826 14.275 35.1312C14.0178 35.5106 13.7215 35.8544 13.3942 36.1592C13.4225 36.1671 13.4507 36.178 13.4781 36.1921C14.2036 36.5625 14.879 37.0242 15.4894 37.5722C17.4705 39.3531 18.6062 41.9508 18.6162 44.6298C18.6162 44.7972 18.4762 44.9342 18.3161 44.9342H18.256C17.4552 44.9579 16.6499 44.95 15.846 44.9421C15.4447 44.9381 15.0437 44.9342 14.6438 44.9342H10.011H8.19995H3.34202H0.300181C0.140085 44.9342 0 44.7921 0 44.6298C0.00500302 43.8383 0.10006 43.0468 0.295178 42.2755C0.955577 39.6524 2.75666 37.4098 5.1381 36.1921C5.16354 36.179 5.19125 36.1688 5.2206 36.161C4.08283 35.0825 3.36115 33.5718 3.29337 31.9449C3.1883 29.4334 4.6792 27.0538 6.95558 26.0746C9.37704 25.0345 12.2938 25.7499 13.9548 27.825ZM5.74828 36.6074C5.11084 36.9411 4.16748 37.4698 3.66721 37.902C1.80617 39.5121 0.699284 41.845 0.602257 44.3151C0.805528 44.3086 1.01225 44.3151 1.21707 44.3215C1.35991 44.326 1.50182 44.3304 1.64099 44.3304H3.96239H8.6152H10.4213H15.2642H18.006C17.9871 43.7395 17.9124 43.1561 17.7757 42.58C17.1754 40.038 15.3228 37.7082 13.0314 36.5311C13.0153 36.5228 13.0009 36.5142 12.9882 36.5053C11.4392 37.7126 9.35094 38.1353 7.43587 37.4956C6.8218 37.2911 6.25408 36.9881 5.74828 36.6074ZM14.2273 33.997C14.2174 34.0115 14.2082 34.0276 14.2 34.0454C13.1943 36.2322 10.7579 37.521 8.41646 37.1151C6.22514 36.7345 4.44906 35.0095 3.99879 32.7973C3.53851 30.5496 4.56413 28.1853 6.4953 26.9929C8.50151 25.7651 11.1531 25.9985 12.9042 27.5866C14.6671 29.1831 15.2175 31.8194 14.2273 33.997Z" fill="#2A2A2A"/>
<path d="M18.5604 69.1924H0.583789C0.303595 68.3769 1.46859 60.4962 9.31402 59.9527C15.5904 59.5179 18.0934 65.9313 18.5604 69.1924Z" fill="#EEFAF2"/>
<ellipse cx="9.25981" cy="56.38" rx="5.99223" ry="5.71986" fill="#EEFAF2"/>
<path fill-rule="evenodd" clip-rule="evenodd" d="M13.9576 52.3582C15.4335 54.2 15.7237 56.747 14.7231 58.8881C14.598 59.1571 14.4479 59.4158 14.2778 59.6644C14.0226 60.041 13.7288 60.3824 13.4044 60.6855C13.4293 60.6931 13.454 60.703 13.4781 60.7154C14.2036 61.0858 14.879 61.5475 15.4894 62.0955C17.4705 63.8764 18.6062 66.4741 18.6162 69.1531C18.6162 69.3205 18.4762 69.4575 18.3161 69.4575H18.256C17.4552 69.4812 16.6499 69.4733 15.846 69.4654C15.4447 69.4614 15.0437 69.4575 14.6438 69.4575H10.011H8.19995H3.34202H0.300181C0.140085 69.4575 0 69.3154 0 69.1531C0.00500302 68.3616 0.10006 67.5701 0.295178 66.7989C0.955577 64.1757 2.75666 61.9331 5.1381 60.7154C5.16182 60.7032 5.18752 60.6935 5.21468 60.6859C4.08195 59.608 3.36378 58.1008 3.29617 56.4781C3.19111 53.9666 4.68201 51.587 6.95838 50.6078C9.37984 49.5677 12.2966 50.2831 13.9576 52.3582ZM5.74219 61.1339C5.10485 61.4678 4.16589 61.9945 3.66721 62.4253C1.80617 64.0354 0.699284 66.3683 0.602257 68.8384C0.805528 68.8319 1.01225 68.8384 1.21707 68.8448C1.35991 68.8493 1.50182 68.8537 1.64099 68.8537H3.96239H8.6152H10.4213H15.2642H18.006C17.9871 68.2628 17.9124 67.6794 17.7757 67.1033C17.1754 64.5613 15.3228 62.2315 13.0314 61.0544C13.0187 61.0479 13.0071 61.0412 12.9965 61.0342C11.4469 62.2448 9.35601 62.6692 7.43867 62.0288C6.821 61.8231 6.25023 61.5178 5.74219 61.1339ZM14.2301 58.5302C14.2202 58.5447 14.211 58.5608 14.2028 58.5786C13.1971 60.7654 10.7607 62.0542 8.41926 61.6483C6.22794 61.2677 4.45187 59.5427 4.00159 57.3305C3.54132 55.0828 4.56694 52.7185 6.4981 51.5261C8.50431 50.2983 11.1559 50.5317 12.907 52.1198C14.6699 53.7163 15.2203 56.3526 14.2301 58.5302Z" fill="#2A2A2A"/>
<path d="M22.471 73.1279C21.7047 73.1279 21.0717 73.5944 20.8051 74.2607H20.6718V73.4278C20.6718 72.4282 19.8722 71.6286 18.8726 71.6286C17.8731 71.6286 17.0735 72.4282 17.0735 73.4278V72.195C17.0735 71.1954 16.2739 70.3958 15.2743 70.3958C14.2748 70.3958 13.4751 71.1954 13.4751 72.195V66.1644C13.4751 65.1649 12.6755 64.3652 11.6759 64.3652C10.6764 64.3652 9.87676 65.1649 9.87676 66.1644V73.561C9.87676 73.561 9.77681 77.7924 10.0101 79.9581C10.2766 83.6564 13.3752 86.5884 17.1401 86.5884C21.0717 86.5884 24.2369 83.4565 24.3035 79.525C24.3368 79.4917 24.3368 79.425 24.3368 79.3584V76.6263V74.9937V74.8938C24.2702 73.9275 23.4705 73.1279 22.471 73.1279Z" fill="#CCE5D5"/>
<path d="M20.8048 74.2644V74.8032H21.1696L21.3051 74.4645L20.8048 74.2644ZM20.6715 74.2644H20.1327V74.8032H20.6715V74.2644ZM9.87649 73.5647L10.4151 73.5774L10.4153 73.5711V73.5647H9.87649ZM10.0098 79.9618L10.5472 79.923L10.5465 79.9135L10.5455 79.9041L10.0098 79.9618ZM24.3032 79.5286L23.9222 79.1476L23.7682 79.3017L23.7645 79.5195L24.3032 79.5286ZM24.3366 74.8974H24.8754V74.8789L24.8741 74.8603L24.3366 74.8974ZM22.4707 72.5928C21.4732 72.5928 20.6488 73.2036 20.3046 74.0642L21.3051 74.4645C21.4939 73.9924 21.9356 73.6704 22.4707 73.6704V72.5928ZM20.8048 73.7256H20.6715V74.8032H20.8048V73.7256ZM21.2104 74.2644V73.4314H20.1327V74.2644H21.2104ZM21.2104 73.4314C21.2104 72.1343 20.1695 71.0934 18.8724 71.0934V72.171C19.5744 72.171 20.1327 72.7295 20.1327 73.4314H21.2104ZM18.8724 71.0934C17.5753 71.0934 16.5344 72.1343 16.5344 73.4314H17.612C17.612 72.7295 18.1704 72.171 18.8724 72.171V71.0934ZM17.612 73.4314V72.1986H16.5344V73.4314H17.612ZM17.612 72.1986C17.612 70.9016 16.5712 69.8607 15.274 69.8607V70.9383C15.976 70.9383 16.5344 71.4967 16.5344 72.1986H17.612ZM15.274 69.8607C13.9769 69.8607 12.9361 70.9016 12.9361 72.1986H14.0137C14.0137 71.4967 14.5721 70.9383 15.274 70.9383V69.8607ZM14.0137 72.1986V66.1681H12.9361V72.1986H14.0137ZM14.0137 66.1681C14.0137 64.8709 12.9728 63.8301 11.6757 63.8301V64.9077C12.3776 64.9077 12.9361 65.4661 12.9361 66.1681H14.0137ZM11.6757 63.8301C10.3785 63.8301 9.33768 64.8709 9.33768 66.1681H10.4153C10.4153 65.4661 10.9737 64.9077 11.6757 64.9077V63.8301ZM9.33768 66.1681V73.5647H10.4153V66.1681H9.33768ZM9.87649 73.5647C9.33784 73.5519 9.33784 73.552 9.33784 73.5521C9.33784 73.5521 9.33784 73.5522 9.33784 73.5522C9.33784 73.5524 9.33784 73.5526 9.33784 73.5529C9.33779 73.5535 9.33779 73.5543 9.33779 73.5553C9.33773 73.5574 9.33762 73.5606 9.33757 73.5648C9.33736 73.573 9.33709 73.5852 9.33676 73.6012C9.33606 73.6331 9.33509 73.6801 9.33396 73.7405C9.33164 73.8613 9.32863 74.0361 9.32577 74.2525C9.32001 74.6852 9.31478 75.2849 9.31688 75.9528C9.32103 77.2811 9.35411 78.9057 9.47405 80.0195L10.5455 79.9041C10.4322 78.8522 10.3986 77.2782 10.3945 75.9494C10.3924 75.2888 10.3976 74.6952 10.4033 74.2668C10.4061 74.0527 10.4091 73.88 10.4114 73.7609C10.4125 73.7015 10.4135 73.6554 10.4141 73.6243C10.4144 73.6087 10.4147 73.5969 10.4149 73.589C10.415 73.5851 10.415 73.5821 10.4151 73.5802C10.4151 73.5792 10.4151 73.5785 10.4151 73.578C10.4151 73.5778 10.4151 73.5776 10.4151 73.5775C10.4151 73.5775 10.4151 73.5774 10.4151 73.5774C10.4151 73.5774 10.4151 73.5774 9.87649 73.5647ZM9.47238 80.0005C9.75903 83.9784 13.0901 87.1308 17.1398 87.1308V86.0532C13.6597 86.0532 10.7936 83.3418 10.5472 79.923L9.47238 80.0005ZM17.1398 87.1308C21.3674 87.1308 24.7704 83.7613 24.842 79.5378L23.7645 79.5195C23.7028 83.159 20.7754 86.0532 17.1398 86.0532V87.1308ZM24.6842 79.9096C24.8252 79.7687 24.8561 79.6015 24.8658 79.5341C24.8764 79.4595 24.8754 79.3854 24.8754 79.362H23.7978C23.7978 79.3803 23.7977 79.3882 23.7975 79.3941C23.7973 79.3998 23.7972 79.3939 23.799 79.3816C23.8007 79.37 23.8056 79.3402 23.8207 79.3016C23.8363 79.2617 23.8662 79.2036 23.9222 79.1476L24.6842 79.9096ZM24.8754 79.362V76.6299H23.7978V79.362H24.8754ZM24.8754 76.6299V74.9974H23.7978V76.6299H24.8754ZM24.8754 74.9974V74.8974H23.7978V74.9974H24.8754ZM24.8741 74.8603C24.789 73.6267 23.7684 72.5928 22.4707 72.5928V73.6704C23.1722 73.6704 23.7508 74.2356 23.799 74.9345L24.8741 74.8603Z" fill="#2A2A2A"/>
</svg>
