<svg width="46" height="38" viewBox="0 0 46 38" fill="none" xmlns="http://www.w3.org/2000/svg">
<path fill-rule="evenodd" clip-rule="evenodd" d="M11.7383 4.98828C11.7383 3.88371 12.6337 2.98828 13.7383 2.98828H34.3698C35.4744 2.98828 36.3698 3.88371 36.3698 4.98828V10.2223L43.5951 6.05081C44.2618 5.66591 45.0951 6.14703 45.0951 6.91683V23.0066C45.0951 23.7764 44.2618 24.2576 43.5951 23.8727L36.3698 19.7011V24.2514C36.3698 25.356 35.4744 26.2514 34.3698 26.2514H17.9944C17.8605 20.2945 15.3414 15.1857 11.7383 12.7587V4.98828Z" fill="#5BC0EB"/>
<path fill-rule="evenodd" clip-rule="evenodd" d="M13 1.25H31C32.6568 1.25 34 2.59314 34 4.25V19.5131C34 21.17 32.6568 22.5131 31 22.5131H17.584C17.6502 22.8421 17.7089 23.1756 17.7598 23.5131H31C33.2091 23.5131 35 21.7223 35 19.5131V17.1242L41.2395 20.7945C42.2394 21.3827 43.5 20.6617 43.5 19.5016V4.08814C43.5 2.89939 42.1832 2.18299 41.1851 2.82879L35 6.83095V4.25C35 2.04086 33.2091 0.25 31 0.25H13C10.7909 0.25 9 2.04086 9 4.25V11.5056C9.33903 11.5933 9.67262 11.703 10 11.8335V4.25C10 2.59315 11.3431 1.25 13 1.25ZM35 15.964V8.02203L41.7284 3.66836C42.0611 3.45309 42.5 3.69189 42.5 4.08814V19.5016C42.5 19.8883 42.0798 20.1286 41.7465 19.9326L35 15.964ZM16.1111 12.1304C17.7884 15.1638 20.6169 16.2398 22.5308 16.2398L22.5096 16.2498C23.2437 16.255 23.9726 16.1323 24.66 15.8878C25.9472 15.4034 27.0689 14.5916 27.9016 13.5415C28.2304 13.1285 28.5334 12.6976 28.8091 12.251L28.8586 12.1739C28.951 12.0313 29 11.8671 29 11.6996C29 11.5322 28.951 11.368 28.8586 11.2254C27.1919 8.68461 24.9355 7.27346 22.4637 7.25C22.3713 7.25162 22.2814 7.25954 22.1937 7.26727C22.1002 7.2755 22.0091 7.28352 21.9199 7.28352L21.6692 7.30698C19.5469 7.45782 17.6754 9.26784 17.5942 9.34829C17.0083 9.92497 16.5092 10.5758 16.1111 11.2823C16.0382 11.4129 16 11.5585 16 11.7063C16 11.8542 16.0382 11.9998 16.1111 12.1304ZM22.0963 8.00269L22.0963 8.00269L22.0964 8.00269C22.2239 7.9915 22.3468 7.98071 22.4743 7.98071C24.6494 8.00418 26.6799 9.28795 28.2089 11.6008C28.2252 11.6254 28.2338 11.6538 28.2338 11.6829C28.2338 11.7119 28.2252 11.7404 28.2089 11.765L28.1594 11.8455C27.8888 12.2679 27.5928 12.6752 27.2731 13.0655V13.0857C26.5218 14.0145 25.5184 14.7317 24.3705 15.1605C23.7749 15.369 23.1444 15.4735 22.5096 15.4689C20.8358 15.4689 18.3287 14.5002 16.8138 11.7617C16.8017 11.7382 16.7953 11.7124 16.7953 11.6862C16.7953 11.6601 16.8017 11.6343 16.8138 11.6108C17.1777 10.9673 17.6328 10.3741 18.1662 9.84772C18.1683 9.84653 18.1787 9.83706 18.197 9.82043C18.4374 9.60249 20.0327 8.1558 21.7257 8.03434C21.7674 8.03282 21.8091 8.02783 21.8508 8.02285C21.9009 8.01686 21.951 8.01088 22.0011 8.01088C22.0332 8.00823 22.0649 8.00545 22.0963 8.00269ZM20.9266 13.9838C21.3938 14.2853 21.9446 14.4486 22.5096 14.4532C22.8865 14.4559 23.2603 14.3879 23.6095 14.2531C23.9587 14.1183 24.2765 13.9193 24.5445 13.6677C24.8125 13.4161 25.0256 13.1167 25.1715 12.7867C25.3173 12.4568 25.3931 12.1027 25.3945 11.7449C25.3959 11.2086 25.2299 10.684 24.9176 10.2371C24.6052 9.79031 24.1605 9.44128 23.6394 9.23409C23.1183 9.02689 22.5443 8.97082 21.9897 9.07293C21.435 9.17505 20.9247 9.43078 20.523 9.80787C20.1214 10.185 19.8463 10.6665 19.7326 11.1918C19.6189 11.7171 19.6716 12.2626 19.8841 12.7595C20.0966 13.2564 20.4593 13.6824 20.9266 13.9838ZM21.368 10.1C21.705 9.88262 22.1021 9.76455 22.5096 9.76057V9.77398C22.7837 9.77131 23.0556 9.82037 23.3096 9.91831C23.5636 10.0162 23.7945 10.1611 23.989 10.3445C24.1835 10.5279 24.3376 10.7461 24.4425 10.9865C24.5474 11.2269 24.601 11.4847 24.6 11.7449C24.5958 12.1316 24.4714 12.5086 24.2425 12.8285C24.0135 13.1484 23.6901 13.3971 23.3129 13.5432C22.9357 13.6894 22.5214 13.7266 22.122 13.6502C21.7225 13.5737 21.3558 13.3871 21.0677 13.1136C20.7796 12.8401 20.5829 12.492 20.5024 12.1128C20.4219 11.7337 20.4611 11.3404 20.6151 10.9824C20.7691 10.6243 21.031 10.3173 21.368 10.1Z" fill="black"/>
<rect x="4.87891" y="15.1445" width="9.06061" height="16.0303" rx="4.5303" fill="#FFE500"/>
<path d="M4.87891 36.75H11.8486" stroke="black" stroke-linecap="round"/>
<rect x="3.03125" y="14.25" width="9.9681" height="15.874" rx="4.98405" stroke="black"/>
<line x1="2.53125" y1="19.1562" x2="7.59345" y2="19.1562" stroke="black"/>
<line x1="2.53125" y1="21.6875" x2="7.59345" y2="21.6875" stroke="black"/>
<line x1="2.53125" y1="24.2188" x2="7.59345" y2="24.2188" stroke="black"/>
<path d="M8.36523 32.5684L8.36523 36.7502" stroke="black"/>
<path fill-rule="evenodd" clip-rule="evenodd" d="M0.5 20.5C0.223858 20.5 0 20.7239 0 21V25.1398C0 29.5665 3.58851 33.155 8.01515 33.155C12.4418 33.155 16.0303 29.5665 16.0303 25.1398V21C16.0303 20.7239 15.8064 20.5 15.5303 20.5C15.2542 20.5 15.0303 20.7239 15.0303 21V25.1398C15.0303 29.0142 11.8895 32.155 8.01515 32.155C4.14079 32.155 1 29.0142 1 25.1398V21C1 20.7239 0.776142 20.5 0.5 20.5Z" fill="black"/>
</svg>
