<?xml version="1.0" encoding="utf-8"?>
<svg width="115" height="75" viewBox="0 0 115 75" fill="none" xmlns="http://www.w3.org/2000/svg">
  <path fill-rule="evenodd" clip-rule="evenodd" d="M20.4627 74.7185C20.5401 74.7194 20.6177 74.7198 20.6953 74.7198C20.773 74.7198 20.8505 74.7194 20.928 74.7185H86.2881C86.3669 74.7192 86.4459 74.7195 86.5249 74.7195C86.6039 74.7195 86.6828 74.7192 86.7617 74.7185H87.36V74.7074C102.621 74.2656 114.857 61.7554 114.857 46.3873C114.857 30.7399 102.172 18.0552 86.5249 18.0552C86.4585 18.0552 86.3921 18.0554 86.3258 18.0558C80.3576 7.28859 68.8771 0 55.6943 0C36.83 0 21.4515 14.9247 20.7227 33.6104L20.6953 33.6104C9.34328 33.6104 0.140625 42.8131 0.140625 54.1651C0.140625 65.0507 8.6025 73.9599 19.3072 74.6737V74.7185H20.4627Z" fill="#95CFF4"/>
  <path d="M61.0154 55.1116C61.0154 57.02 59.4365 58.6877 57.572 58.6877C55.5731 58.6877 54.0781 57.02 54.0781 55.1116C54.0781 53.1688 55.5731 51.5355 57.572 51.5355C59.4365 51.5355 61.0154 53.1516 61.0154 55.1116ZM60.1587 46.3089C60.1587 47.7531 58.6134 48.3549 57.5384 48.3549C56.0938 48.3549 54.8676 47.7531 54.8676 46.3089C54.8676 40.7901 54.2293 32.8642 54.2293 27.3626C54.2293 25.5573 55.6739 24.543 57.5384 24.543C59.3021 24.543 60.797 25.5573 60.797 27.3626C60.797 32.8642 60.1587 40.7901 60.1587 46.3089Z" fill="black"/>
</svg>