<?xml version="1.0" encoding="utf-8"?>
<svg width="115" height="75" viewBox="0 0 115 75" fill="none" xmlns="http://www.w3.org/2000/svg">
  <path d="M61.0154 55.1116C61.0154 57.02 59.4365 58.6877 57.572 58.6877C55.5731 58.6877 54.0781 57.02 54.0781 55.1116C54.0781 53.1688 55.5731 51.5355 57.572 51.5355C59.4365 51.5355 61.0154 53.1516 61.0154 55.1116ZM60.1587 46.3089C60.1587 47.7531 58.6134 48.3549 57.5384 48.3549C56.0938 48.3549 54.8676 47.7531 54.8676 46.3089C54.8676 40.7901 54.2293 32.8642 54.2293 27.3626C54.2293 25.5573 55.6739 24.543 57.5384 24.543C59.3021 24.543 60.797 25.5573 60.797 27.3626C60.797 32.8642 60.1587 40.7901 60.1587 46.3089Z" fill="black"/>
</svg>