<?xml version="1.0" encoding="utf-8"?>
<svg width="40" height="40" viewBox="0 0 40 40" fill="none" xmlns="http://www.w3.org/2000/svg">
  <path fill-rule="evenodd" clip-rule="evenodd" d="M25.625 18.875C25.625 16.3897 23.6103 14.375 21.125 14.375C18.6397 14.375 16.625 16.3897 16.625 18.875V23.471C16.4491 23.4088 16.2597 23.375 16.0625 23.375C15.1305 23.375 14.375 24.1305 14.375 25.0625C14.375 25.9945 15.1305 26.75 16.0625 26.75H16.625H20C20 27.3713 20.5037 27.875 21.125 27.875C21.7463 27.875 22.25 27.3713 22.25 26.75H25.625H26.1875C27.1195 26.75 27.875 25.9945 27.875 25.0625C27.875 24.1305 27.1195 23.375 26.1875 23.375C25.9903 23.375 25.8009 23.4088 25.625 23.471V18.875Z" fill="#8FD6FF"/>
</svg>