<svg width="48" height="48" viewBox="0 0 48 48" fill="none" xmlns="http://www.w3.org/2000/svg">
<path fill-rule="evenodd" clip-rule="evenodd" d="M26.73 13.2832C22.1963 13.2832 18.5211 16.9585 18.5211 21.4922V28.059H17.2911C15.7043 28.059 14.418 29.3453 14.418 30.9321C14.418 32.5189 15.7043 33.8052 17.2911 33.8052H19.204L19.2041 33.8056H23.4731C23.4563 33.9399 23.4477 34.0767 23.4477 34.2156C23.4477 36.029 24.9178 37.4991 26.7313 37.4991C28.5448 37.4991 30.0149 36.029 30.0149 34.2156C30.0149 34.0767 30.0063 33.9399 29.9895 33.8056H34.2559L34.2561 33.8052H36.1717C37.7585 33.8052 39.0448 32.5189 39.0448 30.9321C39.0448 29.3453 37.7585 28.059 36.1717 28.059H34.939V21.4922C34.939 16.9585 31.2637 13.2832 26.73 13.2832Z" fill="#FFE500"/>
<mask id="path-2-inside-1" fill="white">
<path fill-rule="evenodd" clip-rule="evenodd" d="M16.0593 20.2617C16.0593 15.728 19.7345 12.0527 24.2682 12.0527C28.8019 12.0527 32.4772 15.728 32.4772 20.2617V26.8286H33.7088C35.2956 26.8286 36.5819 28.115 36.5819 29.7018C36.5819 31.2886 35.2956 32.5749 33.7088 32.5749H14.8282C13.2414 32.5749 11.9551 31.2886 11.9551 29.7018C11.9551 28.115 13.2414 26.8286 14.8282 26.8286H16.0593V20.2617Z"/>
</mask>
<path d="M32.4772 26.8286H31.4772V27.8286H32.4772V26.8286ZM16.0593 26.8286V27.8286H17.0593V26.8286H16.0593ZM24.2682 11.0527C19.1822 11.0527 15.0593 15.1757 15.0593 20.2617H17.0593C17.0593 16.2803 20.2868 13.0527 24.2682 13.0527V11.0527ZM33.4772 20.2617C33.4772 15.1757 29.3542 11.0527 24.2682 11.0527V13.0527C28.2496 13.0527 31.4772 16.2803 31.4772 20.2617H33.4772ZM33.4772 26.8286V20.2617H31.4772V26.8286H33.4772ZM32.4772 27.8286H33.7088V25.8286H32.4772V27.8286ZM33.7088 27.8286C34.7433 27.8286 35.5819 28.6673 35.5819 29.7018H37.5819C37.5819 27.5627 35.8479 25.8286 33.7088 25.8286V27.8286ZM35.5819 29.7018C35.5819 30.7363 34.7433 31.5749 33.7088 31.5749V33.5749C35.8479 33.5749 37.5819 31.8408 37.5819 29.7018H35.5819ZM33.7088 31.5749H14.8282V33.5749H33.7088V31.5749ZM14.8282 31.5749C13.7937 31.5749 12.9551 30.7363 12.9551 29.7018H10.9551C10.9551 31.8408 12.6891 33.5749 14.8282 33.5749V31.5749ZM12.9551 29.7018C12.9551 28.6673 13.7937 27.8286 14.8282 27.8286V25.8286C12.6891 25.8286 10.9551 27.5627 10.9551 29.7018H12.9551ZM14.8282 27.8286H16.0593V25.8286H14.8282V27.8286ZM15.0593 20.2617V26.8286H17.0593V20.2617H15.0593Z" fill="black" mask="url(#path-2-inside-1)"/>
<path d="M24.2695 12.4627V10" stroke="black" stroke-linecap="round"/>
<path fill-rule="evenodd" clip-rule="evenodd" d="M20.9844 32.5742C20.9846 34.3875 22.4546 35.8573 24.268 35.8573C26.0813 35.8573 27.5513 34.3875 27.5515 32.5742H26.5515C26.5513 33.8352 25.529 34.8573 24.268 34.8573C23.0069 34.8573 21.9846 33.8352 21.9844 32.5742H20.9844Z" fill="black"/>
</svg>
